<svg width="22" height="11" viewBox="0 0 22 11" fill="none" xmlns="http://www.w3.org/2000/svg">
<line x1="4.5" y1="0.270508" x2="4.5" y2="6.27051" stroke="#E4E3EC"/>
<path d="M18.3536 6.62406C18.5488 6.4288 18.5488 6.11222 18.3536 5.91695L15.1716 2.73497C14.9763 2.53971 14.6597 2.53971 14.4645 2.73497C14.2692 2.93024 14.2692 3.24682 14.4645 3.44208L17.2929 6.27051L14.4645 9.09893C14.2692 9.2942 14.2692 9.61078 14.4645 9.80604C14.6597 10.0013 14.9763 10.0013 15.1716 9.80604L18.3536 6.62406ZM4 6.27051L4 6.77051L18 6.77051L18 6.27051L18 5.77051L4 5.77051L4 6.27051Z" fill="#E4E3EC"/>
</svg>
