<svg width="21" height="21" viewBox="0 0 21 21" fill="none" xmlns="http://www.w3.org/2000/svg">
<rect x="0.212891" y="0.164062" width="20.672" height="20.672" rx="3.44534" fill="#F4F3F7"/>
<path d="M15.2838 5.76368H10.9771V4.90235C10.9771 4.78813 10.9317 4.67858 10.851 4.59782C10.7702 4.51705 10.6606 4.47168 10.5464 4.47168C10.4322 4.47168 10.3227 4.51705 10.2419 4.59782C10.1611 4.67858 10.1158 4.78813 10.1158 4.90235V5.76368H5.80909C5.58065 5.76368 5.36156 5.85443 5.20003 6.01596C5.0385 6.17749 4.94775 6.39658 4.94775 6.62502V13.085C4.94775 13.3135 5.0385 13.5325 5.20003 13.6941C5.36156 13.8556 5.58065 13.9464 5.80909 13.9464H7.92797L6.76463 15.3999C6.69324 15.4891 6.66023 15.603 6.67285 15.7166C6.68547 15.8302 6.74269 15.9341 6.83192 16.0055C6.92116 16.0769 7.0351 16.1099 7.14867 16.0973C7.26225 16.0847 7.36616 16.0274 7.43755 15.9382L9.03048 13.9464H12.0624L13.6553 15.9382C13.6907 15.9824 13.7344 16.0192 13.7839 16.0465C13.8335 16.0738 13.8879 16.091 13.9442 16.0973C14.0004 16.1035 14.0573 16.0986 14.1117 16.0829C14.166 16.0671 14.2167 16.0408 14.2609 16.0055C14.3051 15.9701 14.3419 15.9264 14.3692 15.8769C14.3965 15.8273 14.4138 15.7729 14.42 15.7166C14.4263 15.6604 14.4214 15.6035 14.4056 15.5491C14.3899 15.4948 14.3636 15.444 14.3282 15.3999L13.1649 13.9464H15.2838C15.5122 13.9464 15.7313 13.8556 15.8928 13.6941C16.0544 13.5325 16.1451 13.3135 16.1451 13.085V6.62502C16.1451 6.39658 16.0544 6.17749 15.8928 6.01596C15.7313 5.85443 15.5122 5.76368 15.2838 5.76368ZM9.25443 11.3624C9.25443 11.4766 9.20905 11.5861 9.12829 11.6669C9.04752 11.7477 8.93798 11.793 8.82376 11.793C8.70954 11.793 8.6 11.7477 8.51923 11.6669C8.43847 11.5861 8.39309 11.4766 8.39309 11.3624V10.0704C8.39309 9.95613 8.43847 9.84659 8.51923 9.76583C8.6 9.68506 8.70954 9.63969 8.82376 9.63969C8.93798 9.63969 9.04752 9.68506 9.12829 9.76583C9.20905 9.84659 9.25443 9.95613 9.25443 10.0704V11.3624ZM10.9771 11.3624C10.9771 11.4766 10.9317 11.5861 10.851 11.6669C10.7702 11.7477 10.6606 11.793 10.5464 11.793C10.4322 11.793 10.3227 11.7477 10.2419 11.6669C10.1611 11.5861 10.1158 11.4766 10.1158 11.3624V9.20902C10.1158 9.0948 10.1611 8.98526 10.2419 8.90449C10.3227 8.82373 10.4322 8.77835 10.5464 8.77835C10.6606 8.77835 10.7702 8.82373 10.851 8.90449C10.9317 8.98526 10.9771 9.0948 10.9771 9.20902V11.3624ZM12.6998 11.3624C12.6998 11.4766 12.6544 11.5861 12.5736 11.6669C12.4929 11.7477 12.3833 11.793 12.2691 11.793C12.1549 11.793 12.0453 11.7477 11.9646 11.6669C11.8838 11.5861 11.8384 11.4766 11.8384 11.3624V8.34769C11.8384 8.23347 11.8838 8.12392 11.9646 8.04316C12.0453 7.96239 12.1549 7.91702 12.2691 7.91702C12.3833 7.91702 12.4929 7.96239 12.5736 8.04316C12.6544 8.12392 12.6998 8.23347 12.6998 8.34769V11.3624Z" fill="#8C94A6"/>
</svg>
