<svg width="15" height="15" viewBox="0 0 15 15" fill="none" xmlns="http://www.w3.org/2000/svg">
<path d="M13.6146 6.97145V3.00479C13.6146 2.12979 13.2413 1.77979 12.3138 1.77979H9.95708C9.02958 1.77979 8.65625 2.12979 8.65625 3.00479V6.97145C8.65625 7.84645 9.02958 8.19645 9.95708 8.19645H12.3138C13.2413 8.19645 13.6146 7.84645 13.6146 6.97145Z" stroke="#1A1A21" stroke-width="0.8" stroke-linecap="round" stroke-linejoin="round"/>
<path d="M13.6146 12.2218V11.1718C13.6146 10.2968 13.2413 9.94678 12.3138 9.94678H9.95708C9.02958 9.94678 8.65625 10.2968 8.65625 11.1718V12.2218C8.65625 13.0968 9.02958 13.4468 9.95708 13.4468H12.3138C13.2413 13.4468 13.6146 13.0968 13.6146 12.2218Z" stroke="#1A1A21" stroke-width="0.8" stroke-linecap="round" stroke-linejoin="round"/>
<path d="M6.90609 8.25479V12.2215C6.90609 13.0965 6.53275 13.4465 5.60525 13.4465H3.24859C2.32109 13.4465 1.94775 13.0965 1.94775 12.2215V8.25479C1.94775 7.37979 2.32109 7.02979 3.24859 7.02979H5.60525C6.53275 7.02979 6.90609 7.37979 6.90609 8.25479Z" stroke="#1A1A21" stroke-width="0.8" stroke-linecap="round" stroke-linejoin="round"/>
<path d="M6.90609 3.00479V4.05479C6.90609 4.92979 6.53275 5.27979 5.60525 5.27979H3.24859C2.32109 5.27979 1.94775 4.92979 1.94775 4.05479V3.00479C1.94775 2.12979 2.32109 1.77979 3.24859 1.77979H5.60525C6.53275 1.77979 6.90609 2.12979 6.90609 3.00479Z" stroke="#1A1A21" stroke-width="0.8" stroke-linecap="round" stroke-linejoin="round"/>
</svg>
