<svg width="67" height="66" viewBox="0 0 67 66" fill="none" xmlns="http://www.w3.org/2000/svg">
<g filter="url(#filter0_ddi_551_2489)">
<rect x="3.875" y="2" width="60" height="60" rx="12" fill="url(#paint0_linear_551_2489)"/>
<path opacity="0.4" d="M33.9993 50.3332C44.1246 50.3332 52.3327 42.1251 52.3327 31.9998C52.3327 21.8746 44.1246 13.6665 33.9993 13.6665C23.8741 13.6665 15.666 21.8746 15.666 31.9998C15.666 42.1251 23.8741 50.3332 33.9993 50.3332Z" fill="white"/>
<path d="M43.0755 42.4501C42.7272 42.4501 42.3788 42.3218 42.1038 42.0468C41.5722 41.5151 41.5722 40.6351 42.1038 40.1034C44.2672 37.9401 45.4588 35.0618 45.4588 32.0001C45.4588 28.9384 44.2672 26.0601 42.1038 23.8968C41.5722 23.3651 41.5722 22.4851 42.1038 21.9534C42.6355 21.4218 43.5155 21.4218 44.0472 21.9534C46.7238 24.6301 48.2088 28.2051 48.2088 32.0001C48.2088 35.7951 46.7238 39.3701 44.0472 42.0468C43.7722 42.3218 43.4238 42.4501 43.0755 42.4501Z" fill="white"/>
<path d="M24.9243 42.4501C24.576 42.4501 24.2277 42.3218 23.9527 42.0468C21.276 39.3701 19.791 35.7951 19.791 32.0001C19.791 28.2051 21.276 24.6301 23.9527 21.9534C24.4843 21.4218 25.3643 21.4218 25.896 21.9534C26.4277 22.4851 26.4277 23.3651 25.896 23.8968C23.7327 26.0601 22.541 28.9384 22.541 32.0001C22.541 35.0618 23.7327 37.9401 25.896 40.1034C26.4277 40.6351 26.4277 41.5151 25.896 42.0468C25.621 42.3218 25.2727 42.4501 24.9243 42.4501Z" fill="white"/>
<path d="M37.0247 31.597L35.3748 31.0103V27.3803H35.4297C36.2364 27.3803 36.9147 28.1136 36.9147 28.9936C36.9147 29.7453 37.5381 30.3686 38.2897 30.3686C39.0414 30.3686 39.6647 29.7453 39.6647 28.9936C39.6647 26.592 37.7764 24.6303 35.4297 24.6303H35.3748V24.3003C35.3748 23.5486 34.7514 22.9253 33.9998 22.9253C33.2481 22.9253 32.6248 23.5486 32.6248 24.3003V24.6303H32.2031C30.0764 24.6303 28.3348 26.427 28.3348 28.6086C28.3348 30.5336 29.1964 31.762 30.9564 32.3853L32.6064 32.972V36.602H32.5514C31.7447 36.602 31.0664 35.8686 31.0664 34.9886C31.0664 34.237 30.4431 33.6136 29.6914 33.6136C28.9397 33.6136 28.3164 34.237 28.3164 34.9886C28.3164 37.3903 30.2047 39.352 32.5514 39.352H32.6064V39.682C32.6064 40.4336 33.2297 41.057 33.9814 41.057C34.7331 41.057 35.3564 40.4336 35.3564 39.682V39.352H35.7781C37.9048 39.352 39.6464 37.5553 39.6464 35.3736C39.6464 33.4486 38.8031 32.2203 37.0247 31.597ZM31.8731 29.8003C31.2864 29.5986 31.0848 29.4886 31.0848 28.627C31.0848 27.9486 31.5797 27.3986 32.2031 27.3986H32.6248V30.0753L31.8731 29.8003ZM35.7964 36.6203H35.3748V33.9436L36.1264 34.2003C36.7131 34.402 36.9147 34.512 36.9147 35.3736C36.8964 36.052 36.4014 36.6203 35.7964 36.6203Z" fill="white"/>
</g>
<defs>
<filter id="filter0_ddi_551_2489" x="0.875" y="0" width="66" height="66" filterUnits="userSpaceOnUse" color-interpolation-filters="sRGB">
<feFlood flood-opacity="0" result="BackgroundImageFix"/>
<feColorMatrix in="SourceAlpha" type="matrix" values="0 0 0 0 0 0 0 0 0 0 0 0 0 0 0 0 0 0 127 0" result="hardAlpha"/>
<feMorphology radius="1" operator="dilate" in="SourceAlpha" result="effect1_dropShadow_551_2489"/>
<feOffset/>
<feComposite in2="hardAlpha" operator="out"/>
<feColorMatrix type="matrix" values="0 0 0 0 0.262745 0 0 0 0 0.219608 0 0 0 0 0.792157 0 0 0 0.6 0"/>
<feBlend mode="normal" in2="BackgroundImageFix" result="effect1_dropShadow_551_2489"/>
<feColorMatrix in="SourceAlpha" type="matrix" values="0 0 0 0 0 0 0 0 0 0 0 0 0 0 0 0 0 0 127 0" result="hardAlpha"/>
<feOffset dy="1"/>
<feGaussianBlur stdDeviation="1.5"/>
<feComposite in2="hardAlpha" operator="out"/>
<feColorMatrix type="matrix" values="0 0 0 0 0.192157 0 0 0 0 0.180392 0 0 0 0 0.505882 0 0 0 0.4 0"/>
<feBlend mode="normal" in2="effect1_dropShadow_551_2489" result="effect2_dropShadow_551_2489"/>
<feBlend mode="normal" in="SourceGraphic" in2="effect2_dropShadow_551_2489" result="shape"/>
<feColorMatrix in="SourceAlpha" type="matrix" values="0 0 0 0 0 0 0 0 0 0 0 0 0 0 0 0 0 0 127 0" result="hardAlpha"/>
<feOffset dy="1"/>
<feGaussianBlur stdDeviation="0.5"/>
<feComposite in2="hardAlpha" operator="arithmetic" k2="-1" k3="1"/>
<feColorMatrix type="matrix" values="0 0 0 0 0.505882 0 0 0 0 0.54902 0 0 0 0 0.972549 0 0 0 1 0"/>
<feBlend mode="normal" in2="shape" result="effect3_innerShadow_551_2489"/>
</filter>
<linearGradient id="paint0_linear_551_2489" x1="33.875" y1="2" x2="33.875" y2="62" gradientUnits="userSpaceOnUse">
<stop offset="0.25" stop-color="#818CF8"/>
<stop offset="1" stop-color="#6366F1"/>
</linearGradient>
</defs>
</svg>
