<svg width="43" height="43" viewBox="0 0 43 43" fill="none" xmlns="http://www.w3.org/2000/svg">
<rect x="1.19141" y="1.35694" width="40.4827" height="40.4827" rx="20.2414" stroke="#E4E3EC" stroke-width="0.861335"/>
<mask id="mask0_40_1738" style="mask-type:alpha" maskUnits="userSpaceOnUse" x="11" y="11" width="21" height="21">
<rect x="11.0967" y="11.2622" width="20.672" height="20.672" fill="#D9D9D9"/>
</mask>
<g mask="url(#mask0_40_1738)">
<path d="M16.803 27.6272C16.401 27.6272 16.0674 27.4946 15.8021 27.2293C15.5363 26.9634 15.4033 26.6295 15.4033 26.2276V24.1819H16.2647V26.2276C16.2647 26.3711 16.3186 26.4966 16.4266 26.604C16.534 26.7119 16.6594 26.7659 16.803 26.7659H26.0623C26.2059 26.7659 26.3314 26.7119 26.4387 26.604C26.5467 26.4966 26.6007 26.3711 26.6007 26.2276V24.1819H27.462V26.2276C27.462 26.6295 27.3294 26.9634 27.0641 27.2293C26.7982 27.4946 26.4643 27.6272 26.0623 27.6272H16.803ZM21.4327 24.3757L18.3749 21.3395L18.9994 20.715L21.002 22.7176V15.2671H21.8633V22.7176L23.8659 20.715L24.4904 21.3395L21.4327 24.3757Z" fill="#1A1A21"/>
</g>
</svg>
