<svg width="17" height="17" viewBox="0 0 17 17" fill="none" xmlns="http://www.w3.org/2000/svg">
<g clip-path="url(#clip0_119_1084)">
<path d="M15.1012 9.41953C14.9301 9.28767 14.7307 9.19717 14.5187 9.15511C14.3068 9.11304 14.088 9.12054 13.8794 9.17703L11.0519 9.82703C11.1446 9.58112 11.1762 9.31639 11.1441 9.05555C11.1121 8.79471 11.0172 8.54554 10.8677 8.32941C10.7182 8.11329 10.5185 7.93665 10.2857 7.81464C10.0529 7.69263 9.79405 7.6289 9.53125 7.62891H6.4025C6.15618 7.62821 5.91217 7.6764 5.68462 7.77071C5.45706 7.86501 5.25049 8.00355 5.07688 8.17828L3.62625 9.62891H1.78125C1.54919 9.62891 1.32663 9.72109 1.16253 9.88519C0.998437 10.0493 0.90625 10.2718 0.90625 10.5039V13.0039C0.90625 13.236 0.998437 13.4585 1.16253 13.6226C1.32663 13.7867 1.54919 13.8789 1.78125 13.8789H8.28125C8.31201 13.8789 8.34266 13.8751 8.3725 13.8677L12.3725 12.8677C12.3914 12.8626 12.41 12.8564 12.4281 12.8489L14.8544 11.8164L14.875 11.807C15.0895 11.6999 15.2732 11.5399 15.4088 11.3422C15.5445 11.1444 15.6275 10.9154 15.6501 10.6767C15.6728 10.438 15.6342 10.1974 15.5382 9.97769C15.4422 9.75798 15.2918 9.56632 15.1012 9.42078V9.41953ZM1.65625 13.0039V10.5039C1.65625 10.4708 1.66942 10.439 1.69286 10.4155C1.7163 10.3921 1.7481 10.3789 1.78125 10.3789H3.40625V13.1289H1.78125C1.7481 13.1289 1.7163 13.1157 1.69286 13.0923C1.66942 13.0689 1.65625 13.0371 1.65625 13.0039ZM14.5487 11.1289L12.1613 12.1458L8.235 13.1289H4.15625V10.1595L5.60687 8.70828C5.71112 8.60349 5.83512 8.52042 5.97169 8.46388C6.10826 8.40734 6.25469 8.37846 6.4025 8.37891H9.53125C9.76331 8.37891 9.98587 8.47109 10.15 8.63519C10.3141 8.79928 10.4062 9.02184 10.4062 9.25391C10.4062 9.48597 10.3141 9.70853 10.15 9.87262C9.98587 10.0367 9.76331 10.1289 9.53125 10.1289H7.78125C7.68179 10.1289 7.58641 10.1684 7.51609 10.2387C7.44576 10.3091 7.40625 10.4045 7.40625 10.5039C7.40625 10.6034 7.44576 10.6987 7.51609 10.7691C7.58641 10.8394 7.68179 10.8789 7.78125 10.8789H9.78125C9.80943 10.8789 9.83752 10.8758 9.865 10.8695L14.0525 9.90641L14.0675 9.90266C14.2251 9.85969 14.393 9.87647 14.539 9.94977C14.685 10.0231 14.7988 10.1477 14.8585 10.2998C14.9181 10.4519 14.9195 10.6206 14.8624 10.7737C14.8052 10.9267 14.6935 11.0532 14.5487 11.1289ZM11.0312 6.37891C11.1842 6.37882 11.3367 6.36248 11.4862 6.33016C11.5987 6.72956 11.8257 7.0873 12.1391 7.35924C12.4525 7.63117 12.8387 7.80539 13.2499 7.86041C13.6612 7.91543 14.0796 7.84883 14.4535 7.66884C14.8273 7.48885 15.1403 7.20334 15.3538 6.84754C15.5673 6.49174 15.672 6.08122 15.6549 5.66663C15.6378 5.25204 15.4997 4.85153 15.2576 4.51451C15.0156 4.17749 14.6801 3.91872 14.2927 3.77012C13.9053 3.62152 13.4829 3.58959 13.0775 3.67828C12.9704 3.2976 12.7591 2.95437 12.4676 2.6872C12.176 2.42002 11.8157 2.23951 11.4271 2.16597C11.0385 2.09243 10.6372 2.12878 10.2681 2.27093C9.8991 2.41307 9.57705 2.65538 9.33823 2.97058C9.0994 3.28578 8.95327 3.66138 8.91627 4.05511C8.87927 4.44884 8.95288 4.84508 9.12881 5.19926C9.30474 5.55343 9.57601 5.85149 9.91211 6.05989C10.2482 6.2683 10.6358 6.37878 11.0312 6.37891ZM14.9062 5.75391C14.9062 6.02586 14.8256 6.2917 14.6745 6.51782C14.5234 6.74393 14.3087 6.92017 14.0574 7.02424C13.8062 7.12831 13.5297 7.15554 13.263 7.10249C12.9963 7.04943 12.7513 6.91848 12.559 6.72618C12.3667 6.53388 12.2357 6.28888 12.1827 6.02216C12.1296 5.75543 12.1568 5.47897 12.2609 5.22772C12.365 4.97647 12.5412 4.76172 12.7673 4.61064C12.9935 4.45955 13.2593 4.37891 13.5312 4.37891C13.8959 4.37891 14.2457 4.52377 14.5035 4.78163C14.7614 5.0395 14.9062 5.38923 14.9062 5.75391ZM11.0312 2.87891C11.3469 2.87853 11.653 2.98708 11.898 3.18623C12.1429 3.38537 12.3116 3.66293 12.3756 3.97203C12.1038 4.14829 11.8759 4.38437 11.7093 4.66223C11.5427 4.94008 11.4418 5.25235 11.4144 5.57516C11.2254 5.62962 11.0269 5.64289 10.8323 5.61407C10.6377 5.58526 10.4515 5.51503 10.2864 5.40812C10.1213 5.30122 9.98104 5.16013 9.87511 4.99438C9.76918 4.82864 9.70004 4.64209 9.67237 4.44734C9.6447 4.25259 9.65913 4.05417 9.7147 3.86548C9.77027 3.67678 9.86567 3.50221 9.99448 3.35354C10.1233 3.20487 10.2825 3.08557 10.4613 3.00369C10.6402 2.92181 10.8345 2.87926 11.0312 2.87891Z" fill="#49576D"/>
</g>
<defs>
<clipPath id="clip0_119_1084">
<rect width="16" height="16" fill="white" transform="translate(0.78125 0.503906)"/>
</clipPath>
</defs>
</svg>
