<svg width="67" height="66" viewBox="0 0 67 66" fill="none" xmlns="http://www.w3.org/2000/svg">
<g filter="url(#filter0_ddi_551_2504)">
<rect x="3.5" y="2" width="60" height="60" rx="12" fill="url(#paint0_linear_551_2504)"/>
<path d="M33.375 19.9164C33.2083 19.9164 33.0417 19.8998 32.8917 19.8664C32.725 19.8331 32.575 19.7831 32.425 19.7331C32.275 19.6664 32.125 19.5831 31.9916 19.4998C31.8583 19.3998 31.725 19.2998 31.6083 19.1831C31.1417 18.7164 30.875 18.0831 30.875 17.4164C30.875 16.7498 31.1417 16.1164 31.6083 15.6498C31.725 15.5331 31.8583 15.4331 31.9916 15.3331C32.125 15.2498 32.275 15.1664 32.425 15.1164C32.575 15.0498 32.725 14.9998 32.8917 14.9664C33.6917 14.7998 34.5583 15.0664 35.1417 15.6498C35.6083 16.1164 35.875 16.7498 35.875 17.4164C35.875 18.0831 35.6083 18.7164 35.1417 19.1831C34.675 19.6498 34.025 19.9164 33.375 19.9164Z" fill="white"/>
<path d="M33.375 27.4165C33.2083 27.4165 33.0417 27.3998 32.8917 27.3665C32.725 27.3332 32.575 27.2832 32.425 27.2332C32.275 27.1665 32.125 27.0832 31.9916 26.9998C31.8583 26.8998 31.725 26.7998 31.6083 26.6832C31.1417 26.2165 30.875 25.5832 30.875 24.9165C30.875 24.2498 31.1417 23.6165 31.6083 23.1498C31.725 23.0332 31.8583 22.9332 31.9916 22.8332C32.125 22.7498 32.275 22.6665 32.425 22.6165C32.575 22.5498 32.725 22.4998 32.8917 22.4665C33.2084 22.3998 33.5416 22.3998 33.8583 22.4665C34.025 22.4998 34.175 22.5498 34.325 22.6165C34.475 22.6665 34.625 22.7498 34.7584 22.8332C34.8917 22.9332 35.025 23.0332 35.1417 23.1498C35.6083 23.6165 35.875 24.2498 35.875 24.9165C35.875 25.5832 35.6083 26.2165 35.1417 26.6832C35.025 26.7998 34.8917 26.8998 34.7584 26.9998C34.625 27.0832 34.475 27.1665 34.325 27.2332C34.175 27.2832 34.025 27.3332 33.8583 27.3665C33.7083 27.3998 33.5417 27.4165 33.375 27.4165Z" fill="white"/>
<path d="M33.375 34.0834C33.2083 34.0834 33.0417 34.0667 32.8917 34.0334C32.725 34.0001 32.575 33.9501 32.425 33.9001C32.275 33.8334 32.125 33.7501 31.9916 33.6667C31.8583 33.5667 31.725 33.4667 31.6083 33.3501C31.4917 33.2334 31.3917 33.1167 31.2917 32.9667C31.2083 32.8334 31.125 32.6834 31.0583 32.5334C31.0083 32.3834 30.9584 32.2334 30.925 32.0667C30.8917 31.9167 30.875 31.7501 30.875 31.5834C30.875 30.9167 31.1417 30.2834 31.6083 29.8167C31.725 29.7001 31.8583 29.6001 31.9916 29.5001C32.125 29.4167 32.275 29.3334 32.425 29.2667C32.575 29.2167 32.725 29.1667 32.8917 29.1334C33.6917 28.9667 34.5583 29.2334 35.1417 29.8167C35.6083 30.2834 35.875 30.9167 35.875 31.5834C35.875 31.7501 35.8583 31.9167 35.825 32.0667C35.7916 32.2334 35.7417 32.3834 35.675 32.5334C35.625 32.6834 35.5417 32.8334 35.4583 32.9667C35.3583 33.1167 35.2583 33.2334 35.1417 33.3501C35.025 33.4667 34.8917 33.5667 34.7584 33.6667C34.625 33.7501 34.475 33.8334 34.325 33.9001C34.175 33.9501 34.025 34.0001 33.8583 34.0334C33.7083 34.0667 33.5417 34.0834 33.375 34.0834Z" fill="white"/>
<g opacity="0.6">
<path opacity="0.6" d="M33.3757 39.9168C32.9423 39.9168 32.5089 39.7335 32.1923 39.4335C31.8923 39.1168 31.709 38.6835 31.709 38.2502C31.709 37.8168 31.8923 37.3835 32.1923 37.0668C32.5756 36.6835 33.159 36.5168 33.6923 36.6168C33.809 36.6335 33.909 36.6668 34.009 36.7168C34.109 36.7502 34.209 36.8002 34.2923 36.8668C34.3923 36.9335 34.4757 37.0002 34.559 37.0668C34.859 37.3835 35.0423 37.8168 35.0423 38.2502C35.0423 38.6835 34.859 39.1168 34.559 39.4335C34.4757 39.5002 34.3923 39.5668 34.2923 39.6335C34.209 39.7002 34.109 39.7502 34.009 39.7835C33.909 39.8335 33.809 39.8668 33.6923 39.8835C33.5923 39.9002 33.4757 39.9168 33.3757 39.9168Z" fill="white"/>
</g>
<g opacity="0.4">
<path opacity="0.4" d="M33.375 45.3335C33.2083 45.3335 33.0417 45.3002 32.8917 45.2335C32.7417 45.1668 32.6083 45.0835 32.4916 44.9668C32.375 44.8502 32.275 44.7168 32.225 44.5668C32.1583 44.4168 32.125 44.2502 32.125 44.0835C32.125 43.7502 32.2583 43.4335 32.4916 43.2002C32.6083 43.0835 32.7417 43.0002 32.8917 42.9335C33.2084 42.8002 33.5416 42.8002 33.8583 42.9335C34.0083 43.0002 34.1417 43.0835 34.2584 43.2002C34.375 43.3168 34.4583 43.4502 34.525 43.6002C34.5917 43.7502 34.625 43.9168 34.625 44.0835C34.625 44.2502 34.5917 44.4168 34.525 44.5668C34.4583 44.7168 34.375 44.8502 34.2584 44.9668C34.1417 45.0835 34.0083 45.1668 33.8583 45.2335C33.6916 45.3002 33.5417 45.3335 33.375 45.3335Z" fill="white"/>
</g>
<g opacity="0.2">
<path opacity="0.2" d="M33.3743 48.7836C33.1577 48.7836 32.9411 48.7002 32.7911 48.5336C32.6244 48.3836 32.541 48.1669 32.541 47.9502C32.541 47.7336 32.6244 47.5169 32.7911 47.3669C33.0911 47.0502 33.6576 47.0502 33.9576 47.3669C34.1243 47.5169 34.2077 47.7336 34.2077 47.9502C34.2077 48.1669 34.1243 48.3836 33.9576 48.5336C33.8076 48.7002 33.591 48.7836 33.3743 48.7836Z" fill="white"/>
</g>
<path d="M19.209 27.4169C18.5423 27.4169 17.909 27.1502 17.4423 26.6835C16.9757 26.2169 16.709 25.5835 16.709 24.9169C16.709 24.2669 16.9757 23.6169 17.4423 23.1502C18.359 22.2169 20.0423 22.2169 20.9756 23.1502C21.4423 23.6169 21.709 24.2669 21.709 24.9169C21.709 25.5835 21.4423 26.2169 20.9756 26.6835C20.859 26.8002 20.7257 26.9002 20.5923 27.0002C20.459 27.0835 20.309 27.1669 20.159 27.2169C20.009 27.2835 19.8589 27.3335 19.6923 27.3669C19.5423 27.4002 19.3757 27.4169 19.209 27.4169Z" fill="white"/>
<path d="M47.541 27.4165C46.891 27.4165 46.241 27.1498 45.7744 26.6832C45.3077 26.2165 45.041 25.5665 45.041 24.9165C45.041 24.7498 45.0577 24.5832 45.0911 24.4332C45.1244 24.2665 45.1743 24.1165 45.2243 23.9665C45.291 23.8165 45.3743 23.6665 45.4577 23.5332C45.5577 23.3998 45.6577 23.2665 45.7744 23.1498C45.891 23.0332 46.0243 22.9332 46.1577 22.8332C46.291 22.7498 46.441 22.6665 46.591 22.6165C46.741 22.5498 46.8911 22.4998 47.0577 22.4665C47.3744 22.3998 47.7076 22.3998 48.0243 22.4665C48.191 22.4998 48.341 22.5498 48.491 22.6165C48.641 22.6665 48.791 22.7498 48.9244 22.8332C49.0577 22.9332 49.191 23.0332 49.3077 23.1498C49.4243 23.2665 49.5244 23.3998 49.6244 23.5332C49.7077 23.6665 49.791 23.8165 49.841 23.9665C49.9077 24.1165 49.9576 24.2665 49.991 24.4332C50.0243 24.5832 50.041 24.7498 50.041 24.9165C50.041 25.5832 49.7743 26.2165 49.3077 26.6832C49.191 26.7998 49.0577 26.8998 48.9244 26.9998C48.791 27.0832 48.641 27.1665 48.491 27.2332C48.341 27.2832 48.191 27.3332 48.0243 27.3665C47.8576 27.3998 47.7077 27.4165 47.541 27.4165Z" fill="white"/>
<g opacity="0.6">
<path opacity="0.6" d="M47.5417 33.2501C47.4417 33.2501 47.325 33.2334 47.225 33.2168C47.1083 33.2001 47.0083 33.1668 46.9083 33.1168C46.8083 33.0834 46.7083 33.0334 46.6083 32.9668C46.525 32.9168 46.4416 32.8334 46.3583 32.7668C46.2916 32.6834 46.2083 32.6001 46.1583 32.5168C46.0916 32.4168 46.0417 32.3168 46.0084 32.2168C45.9584 32.1168 45.925 32.0168 45.9084 31.9168C45.8917 31.8001 45.875 31.7001 45.875 31.5834C45.875 31.1501 46.0583 30.7168 46.3583 30.4001C46.4416 30.3334 46.525 30.2668 46.6083 30.2001C46.7083 30.1334 46.8083 30.0834 46.9083 30.0501C47.0083 30.0001 47.1083 29.9668 47.225 29.9501C47.425 29.9001 47.6417 29.9001 47.8583 29.9501C47.975 29.9668 48.075 30.0001 48.175 30.0501C48.275 30.0834 48.375 30.1334 48.4583 30.2001C48.5583 30.2668 48.6417 30.3334 48.725 30.4001C49.025 30.7168 49.2083 31.1501 49.2083 31.5834C49.2083 31.7001 49.1916 31.8001 49.175 31.9168C49.1583 32.0168 49.125 32.1168 49.075 32.2168C49.0416 32.3168 48.9917 32.4168 48.925 32.5168C48.8584 32.6001 48.7917 32.6834 48.725 32.7668C48.6417 32.8334 48.5583 32.9168 48.4583 32.9668C48.375 33.0334 48.275 33.0834 48.175 33.1168C48.075 33.1668 47.975 33.2001 47.8583 33.2168C47.7583 33.2334 47.6417 33.2501 47.5417 33.2501Z" fill="white"/>
</g>
<g opacity="0.6">
<path opacity="0.6" d="M19.2077 33.2499C18.7743 33.2499 18.341 33.0666 18.0243 32.7666C17.7243 32.4499 17.541 32.0166 17.541 31.5833C17.541 31.1499 17.7243 30.7166 18.0243 30.3999C18.491 29.9333 19.2244 29.7833 19.841 30.0499C20.0577 30.1333 20.2244 30.2499 20.3911 30.3999C20.6911 30.7166 20.8743 31.1499 20.8743 31.5833C20.8743 32.0166 20.6911 32.4499 20.3911 32.7666C20.0744 33.0666 19.641 33.2499 19.2077 33.2499Z" fill="white"/>
</g>
<g opacity="0.4">
<path opacity="0.4" d="M47.541 37.8335C47.2077 37.8335 46.891 37.7001 46.6576 37.4668C46.4243 37.2335 46.291 36.9168 46.291 36.5835C46.291 36.4168 46.3243 36.2668 46.391 36.1001C46.4577 35.9501 46.541 35.8168 46.6576 35.7001C47.0076 35.3501 47.5576 35.2335 48.0243 35.4335C48.1743 35.5001 48.3077 35.5835 48.4244 35.7001C48.5411 35.8168 48.6244 35.9501 48.691 36.1001C48.7577 36.2668 48.791 36.4168 48.791 36.5835C48.791 36.9168 48.6577 37.2335 48.4244 37.4668C48.3077 37.5835 48.1743 37.6668 48.0243 37.7335C47.8576 37.8001 47.7077 37.8335 47.541 37.8335Z" fill="white"/>
</g>
<g opacity="0.4">
<path opacity="0.4" d="M19.209 37.8334C18.8757 37.8334 18.5589 37.7001 18.3256 37.4668C18.2089 37.3501 18.109 37.2168 18.059 37.0668C17.9923 36.9168 17.959 36.7501 17.959 36.5834C17.959 36.4168 17.9923 36.2668 18.059 36.1001C18.109 35.9501 18.2089 35.8168 18.3256 35.7001C18.7756 35.2334 19.6257 35.2334 20.0924 35.7001C20.209 35.8168 20.2923 35.9501 20.359 36.1001C20.4257 36.2668 20.459 36.4168 20.459 36.5834C20.459 36.7501 20.4257 36.9168 20.359 37.0668C20.2923 37.2168 20.209 37.3501 20.0924 37.4668C19.859 37.7001 19.5423 37.8334 19.209 37.8334Z" fill="white"/>
</g>
<g opacity="0.2">
<path opacity="0.2" d="M47.5423 41.9999C47.4257 41.9999 47.3256 41.9832 47.2256 41.9332C47.1256 41.8999 47.0257 41.8332 46.959 41.7499C46.7924 41.5999 46.709 41.3832 46.709 41.1665C46.709 40.9499 46.7924 40.7332 46.959 40.5832C47.259 40.2665 47.8256 40.2665 48.1256 40.5832C48.2923 40.7332 48.3757 40.9499 48.3757 41.1665C48.3757 41.3832 48.2923 41.5999 48.1256 41.7499C47.9756 41.9165 47.759 41.9999 47.5423 41.9999Z" fill="white"/>
</g>
<g opacity="0.2">
<path opacity="0.2" d="M19.2083 41.9999C18.9917 41.9999 18.775 41.9165 18.625 41.7499C18.4584 41.5999 18.375 41.3832 18.375 41.1665C18.375 40.9499 18.4584 40.7332 18.625 40.5832C18.925 40.2665 19.4916 40.2665 19.7916 40.5832C19.9583 40.7332 20.0417 40.9499 20.0417 41.1665C20.0417 41.3832 19.9583 41.5999 19.7916 41.7499C19.6416 41.9165 19.425 41.9999 19.2083 41.9999Z" fill="white"/>
</g>
<path d="M26.291 23.6669C26.1243 23.6669 25.9577 23.6502 25.8077 23.6169C25.6411 23.5835 25.491 23.5335 25.341 23.4669C25.1743 23.4169 25.041 23.3335 24.9077 23.2502C24.7577 23.1502 24.641 23.0502 24.5244 22.9335C24.0577 22.4669 23.791 21.8169 23.791 21.1669C23.791 20.5169 24.0577 19.8669 24.5244 19.4002C25.4577 18.4669 27.1243 18.4669 28.0577 19.4002C28.5243 19.8669 28.791 20.5002 28.791 21.1669C28.791 21.8335 28.5243 22.4669 28.0577 22.9335C27.941 23.0502 27.8077 23.1502 27.6744 23.2502C27.541 23.3335 27.391 23.4169 27.241 23.4669C27.091 23.5335 26.941 23.5835 26.7743 23.6169C26.6243 23.6502 26.4577 23.6669 26.291 23.6669Z" fill="white"/>
<path d="M40.459 23.6665C40.2923 23.6665 40.1257 23.6498 39.9757 23.6165C39.809 23.5832 39.659 23.5332 39.509 23.4665C39.359 23.4165 39.209 23.3332 39.0756 23.2498C38.9423 23.1498 38.809 23.0498 38.6923 22.9332C38.5757 22.8165 38.4757 22.6832 38.3757 22.5498C38.2923 22.4165 38.209 22.2665 38.1423 22.1165C38.0923 21.9665 38.0424 21.8165 38.009 21.6498C37.9757 21.4998 37.959 21.3332 37.959 21.1665C37.959 20.5165 38.2257 19.8665 38.6923 19.3998C38.809 19.2832 38.9423 19.1832 39.0756 19.0832C39.209 18.9998 39.359 18.9165 39.509 18.8665C39.659 18.7998 39.809 18.7498 39.9757 18.7165C40.2924 18.6498 40.6256 18.6498 40.9423 18.7165C41.1089 18.7498 41.259 18.7998 41.409 18.8665C41.559 18.9165 41.709 18.9998 41.8423 19.0832C41.9757 19.1832 42.109 19.2832 42.2256 19.3998C42.6923 19.8665 42.959 20.5165 42.959 21.1665C42.959 21.3332 42.9423 21.4998 42.9089 21.6498C42.8756 21.8165 42.8257 21.9665 42.7757 22.1165C42.709 22.2665 42.6257 22.4165 42.5423 22.5498C42.4423 22.6832 42.3423 22.8165 42.2256 22.9332C42.109 23.0498 41.9757 23.1498 41.8423 23.2498C41.709 23.3332 41.559 23.4165 41.409 23.4665C41.259 23.5332 41.1089 23.5832 40.9423 23.6165C40.7923 23.6498 40.6257 23.6665 40.459 23.6665Z" fill="white"/>
<path d="M26.291 30.7499C26.1243 30.7499 25.9577 30.7332 25.8077 30.6999C25.6411 30.6665 25.491 30.6165 25.341 30.5665C25.191 30.4999 25.041 30.4165 24.9077 30.3332C24.7577 30.2332 24.641 30.1332 24.5244 30.0165C24.0577 29.5499 23.791 28.8999 23.791 28.2499C23.791 27.5832 24.0577 26.9499 24.5244 26.4832C25.4577 25.5499 27.1243 25.5499 28.0577 26.4832C28.5243 26.9499 28.791 27.5832 28.791 28.2499C28.791 28.9165 28.5243 29.5499 28.0577 30.0165C27.591 30.4832 26.941 30.7499 26.291 30.7499Z" fill="white"/>
<path d="M40.459 30.75C40.2923 30.75 40.1257 30.7333 39.9757 30.7C39.809 30.6667 39.659 30.6167 39.509 30.55C39.359 30.5 39.209 30.4167 39.0756 30.3333C38.9423 30.2333 38.809 30.1333 38.6923 30.0167C38.5757 29.9 38.4757 29.7667 38.3757 29.6333C38.2923 29.5 38.209 29.35 38.1423 29.2C38.0923 29.05 38.0424 28.9 38.009 28.7333C37.9757 28.5833 37.959 28.4167 37.959 28.25C37.959 27.6 38.2257 26.95 38.6923 26.4833C38.809 26.3667 38.9423 26.2667 39.0756 26.1667C39.209 26.0833 39.359 26 39.509 25.95C39.659 25.8833 39.809 25.8333 39.9757 25.8C40.2924 25.7333 40.6256 25.7333 40.9423 25.8C41.1089 25.8333 41.259 25.8833 41.409 25.95C41.559 26 41.709 26.0833 41.8423 26.1667C41.9757 26.2667 42.109 26.3667 42.2256 26.4833C42.6923 26.95 42.959 27.6 42.959 28.25C42.959 28.4167 42.9423 28.5833 42.9089 28.7333C42.8756 28.9 42.8257 29.05 42.7757 29.2C42.709 29.35 42.6257 29.5 42.5423 29.6333C42.4423 29.7667 42.3423 29.9 42.2256 30.0167C42.109 30.1333 41.9757 30.2333 41.8423 30.3333C41.709 30.4167 41.559 30.5 41.409 30.55C41.259 30.6167 41.1089 30.6667 40.9423 30.7C40.7923 30.7333 40.6257 30.75 40.459 30.75Z" fill="white"/>
<g opacity="0.6">
<path opacity="0.6" d="M26.2917 36.5835C26.075 36.5835 25.8583 36.5335 25.6583 36.4502C25.4417 36.3668 25.2583 36.2502 25.1083 36.1002C24.9583 35.9335 24.8417 35.7502 24.7584 35.5502C24.675 35.3502 24.625 35.1335 24.625 34.9168C24.625 34.4835 24.8083 34.0502 25.1083 33.7335C25.725 33.1168 26.8584 33.1168 27.475 33.7335C27.775 34.0502 27.9583 34.4835 27.9583 34.9168C27.9583 35.1335 27.9083 35.3502 27.825 35.5502C27.7416 35.7502 27.625 35.9335 27.475 36.1002C27.1584 36.4002 26.725 36.5835 26.2917 36.5835Z" fill="white"/>
</g>
<g opacity="0.6">
<path opacity="0.6" d="M40.4577 36.5835C40.0243 36.5835 39.591 36.4002 39.2743 36.1002C38.9743 35.7835 38.791 35.3502 38.791 34.9168C38.791 34.4835 38.9743 34.0502 39.2743 33.7335C39.891 33.1168 41.0077 33.1168 41.6411 33.7335C41.9411 34.0502 42.1243 34.4835 42.1243 34.9168C42.1243 35.0335 42.1077 35.1335 42.091 35.2502C42.0743 35.3502 42.041 35.4502 41.991 35.5502C41.9577 35.6502 41.9077 35.7502 41.841 35.8335C41.7744 35.9335 41.7077 36.0168 41.6411 36.1002C41.3244 36.4002 40.891 36.5835 40.4577 36.5835Z" fill="white"/>
</g>
<g opacity="0.4">
<path opacity="0.4" d="M26.291 41.5835C25.9577 41.5835 25.641 41.4502 25.4076 41.2168C25.291 41.1002 25.2077 40.9668 25.141 40.8168C25.0743 40.6668 25.041 40.5002 25.041 40.3335C25.041 40.1668 25.0743 40.0168 25.141 39.8502C25.2077 39.7002 25.291 39.5668 25.4076 39.4502C25.5243 39.3335 25.6577 39.2502 25.8077 39.1835C26.1077 39.0502 26.4576 39.0502 26.7743 39.1835C26.9243 39.2502 27.0577 39.3335 27.1744 39.4502C27.4077 39.6835 27.541 40.0002 27.541 40.3335C27.541 40.5002 27.5077 40.6668 27.441 40.8168C27.3744 40.9668 27.2911 41.1002 27.1744 41.2168C26.9411 41.4502 26.6243 41.5835 26.291 41.5835Z" fill="white"/>
</g>
<g opacity="0.4">
<path opacity="0.4" d="M40.459 41.5835C40.2923 41.5835 40.1257 41.5502 39.9757 41.4835C39.8257 41.4168 39.6923 41.3335 39.5756 41.2168C39.4589 41.1002 39.359 40.9668 39.309 40.8168C39.2423 40.6668 39.209 40.5002 39.209 40.3335C39.209 40.1668 39.2423 40.0002 39.309 39.8502C39.3756 39.7002 39.4589 39.5668 39.5756 39.4502C39.6923 39.3335 39.8257 39.2502 39.9757 39.1835C40.2757 39.0502 40.6256 39.0502 40.9423 39.1835C41.0923 39.2502 41.2257 39.3335 41.3424 39.4502C41.459 39.5668 41.5423 39.7002 41.609 39.8502C41.6757 40.0002 41.709 40.1668 41.709 40.3335C41.709 40.5002 41.6757 40.6668 41.609 40.8168C41.5423 40.9668 41.459 41.1002 41.3424 41.2168C41.109 41.4502 40.7923 41.5835 40.459 41.5835Z" fill="white"/>
</g>
<g opacity="0.2">
<path opacity="0.2" d="M26.2923 45.3334C26.0757 45.3334 25.859 45.25 25.709 45.0834C25.5424 44.9334 25.459 44.7167 25.459 44.5C25.459 44.2834 25.5424 44.0667 25.709 43.9167C26.009 43.6 26.5756 43.6 26.8756 43.9167C27.0423 44.0667 27.1257 44.2834 27.1257 44.5C27.1257 44.7167 27.0423 44.9334 26.8756 45.0834C26.7256 45.25 26.509 45.3334 26.2923 45.3334Z" fill="white"/>
</g>
<g opacity="0.2">
<path opacity="0.2" d="M40.4583 45.3334C40.3417 45.3334 40.2417 45.3167 40.1417 45.2667C40.0417 45.2334 39.9417 45.1667 39.875 45.0834C39.7917 45.0167 39.725 44.9167 39.6916 44.8167C39.6416 44.7167 39.625 44.6167 39.625 44.5C39.625 44.2834 39.7084 44.0667 39.875 43.9167C40.175 43.6 40.7416 43.6 41.0416 43.9167C41.2083 44.0667 41.2917 44.2834 41.2917 44.5C41.2917 44.6167 41.275 44.7167 41.225 44.8167C41.1917 44.9167 41.125 45.0167 41.0416 45.0834C40.8916 45.25 40.675 45.3334 40.4583 45.3334Z" fill="white"/>
</g>
</g>
<defs>
<filter id="filter0_ddi_551_2504" x="0.5" y="0" width="66" height="66" filterUnits="userSpaceOnUse" color-interpolation-filters="sRGB">
<feFlood flood-opacity="0" result="BackgroundImageFix"/>
<feColorMatrix in="SourceAlpha" type="matrix" values="0 0 0 0 0 0 0 0 0 0 0 0 0 0 0 0 0 0 127 0" result="hardAlpha"/>
<feMorphology radius="1" operator="dilate" in="SourceAlpha" result="effect1_dropShadow_551_2504"/>
<feOffset/>
<feComposite in2="hardAlpha" operator="out"/>
<feColorMatrix type="matrix" values="0 0 0 0 0.262745 0 0 0 0 0.219608 0 0 0 0 0.792157 0 0 0 0.6 0"/>
<feBlend mode="normal" in2="BackgroundImageFix" result="effect1_dropShadow_551_2504"/>
<feColorMatrix in="SourceAlpha" type="matrix" values="0 0 0 0 0 0 0 0 0 0 0 0 0 0 0 0 0 0 127 0" result="hardAlpha"/>
<feOffset dy="1"/>
<feGaussianBlur stdDeviation="1.5"/>
<feComposite in2="hardAlpha" operator="out"/>
<feColorMatrix type="matrix" values="0 0 0 0 0.192157 0 0 0 0 0.180392 0 0 0 0 0.505882 0 0 0 0.4 0"/>
<feBlend mode="normal" in2="effect1_dropShadow_551_2504" result="effect2_dropShadow_551_2504"/>
<feBlend mode="normal" in="SourceGraphic" in2="effect2_dropShadow_551_2504" result="shape"/>
<feColorMatrix in="SourceAlpha" type="matrix" values="0 0 0 0 0 0 0 0 0 0 0 0 0 0 0 0 0 0 127 0" result="hardAlpha"/>
<feOffset dy="1"/>
<feGaussianBlur stdDeviation="0.5"/>
<feComposite in2="hardAlpha" operator="arithmetic" k2="-1" k3="1"/>
<feColorMatrix type="matrix" values="0 0 0 0 0.505882 0 0 0 0 0.54902 0 0 0 0 0.972549 0 0 0 1 0"/>
<feBlend mode="normal" in2="shape" result="effect3_innerShadow_551_2504"/>
</filter>
<linearGradient id="paint0_linear_551_2504" x1="33.5" y1="2" x2="33.5" y2="62" gradientUnits="userSpaceOnUse">
<stop offset="0.25" stop-color="#818CF8"/>
<stop offset="1" stop-color="#6366F1"/>
</linearGradient>
</defs>
</svg>
