<svg width="15" height="15" viewBox="0 0 15 15" fill="none" xmlns="http://www.w3.org/2000/svg">
<path d="M7.78125 8.94189C8.74775 8.94189 9.53125 8.15839 9.53125 7.19189C9.53125 6.2254 8.74775 5.44189 7.78125 5.44189C6.81475 5.44189 6.03125 6.2254 6.03125 7.19189C6.03125 8.15839 6.81475 8.94189 7.78125 8.94189Z" stroke="#49576D" stroke-width="0.8" stroke-miterlimit="10" stroke-linecap="round" stroke-linejoin="round"/>
<path d="M1.94775 7.70539V6.67873C1.94775 6.07206 2.44359 5.57039 3.05609 5.57039C4.11192 5.57039 4.54359 4.82373 4.01275 3.90789C3.70942 3.38289 3.89025 2.70039 4.42109 2.39706L5.43025 1.81956C5.89109 1.54539 6.48609 1.70873 6.76025 2.16956L6.82442 2.28039C7.34942 3.19623 8.21275 3.19623 8.74359 2.28039L8.80775 2.16956C9.08192 1.70873 9.67692 1.54539 10.1378 1.81956L11.1469 2.39706C11.6778 2.70039 11.8586 3.38289 11.5553 3.90789C11.0244 4.82373 11.4561 5.57039 12.5119 5.57039C13.1186 5.57039 13.6203 6.06623 13.6203 6.67873V7.70539C13.6203 8.31206 13.1244 8.81373 12.5119 8.81373C11.4561 8.81373 11.0244 9.56039 11.5553 10.4762C11.8586 11.0071 11.6778 11.6837 11.1469 11.9871L10.1378 12.5646C9.67692 12.8387 9.08192 12.6754 8.80775 12.2146L8.74359 12.1037C8.21859 11.1879 7.35525 11.1879 6.82442 12.1037L6.76025 12.2146C6.48609 12.6754 5.89109 12.8387 5.43025 12.5646L4.42109 11.9871C3.89025 11.6837 3.70942 11.0012 4.01275 10.4762C4.54359 9.56039 4.11192 8.81373 3.05609 8.81373C2.44359 8.81373 1.94775 8.31206 1.94775 7.70539Z" stroke="#49576D" stroke-width="0.8" stroke-miterlimit="10" stroke-linecap="round" stroke-linejoin="round"/>
</svg>
