<svg width="15" height="15" viewBox="0 0 15 15" fill="none" xmlns="http://www.w3.org/2000/svg">
<path d="M9.10075 10.1802H6.18408" stroke="#49576D" stroke-width="0.8" stroke-miterlimit="10" stroke-linecap="round" stroke-linejoin="round"/>
<path d="M8.16647 2.31689L8.14897 2.35773L6.4573 6.28356H4.7948C4.39814 6.28356 4.01897 6.36523 3.6748 6.51106L4.69564 4.07273L4.71897 4.01439L4.7598 3.92106C4.77147 3.88606 4.78314 3.85106 4.80064 3.82189C5.5648 2.05439 6.42814 1.65189 8.16647 2.31689Z" stroke="#49576D" stroke-width="0.8" stroke-linecap="round" stroke-linejoin="round"/>
<path d="M11.3104 6.40023C11.0479 6.31856 10.7679 6.28356 10.4879 6.28356H6.45703L8.1487 2.35773L8.1662 2.31689C8.2537 2.34606 8.33536 2.38689 8.42286 2.42189L9.71203 2.96439C10.4295 3.26189 10.9312 3.57106 11.2345 3.94439C11.2929 4.01439 11.3395 4.07856 11.3804 4.15439C11.4329 4.23606 11.4737 4.31773 11.497 4.40523C11.5204 4.45773 11.5379 4.51023 11.5495 4.55689C11.707 5.04689 11.6137 5.64773 11.3104 6.40023Z" stroke="#49576D" stroke-width="0.8" stroke-linecap="round" stroke-linejoin="round"/>
<path d="M13.3354 9.13036V10.2679C13.3354 10.3845 13.3296 10.5012 13.3238 10.6179C13.2129 12.6537 12.0754 13.6804 9.91709 13.6804H5.36709C5.22709 13.6804 5.08709 13.6687 4.95292 13.6512C3.09792 13.5287 2.10626 12.537 1.98376 10.682C1.96626 10.5479 1.95459 10.4079 1.95459 10.2679V9.13036C1.95459 7.95786 2.66626 6.94869 3.68126 6.51119C4.03126 6.36536 4.40459 6.28369 4.80126 6.28369H10.4946C10.7804 6.28369 11.0604 6.32453 11.3171 6.40036C12.4779 6.75619 13.3354 7.84119 13.3354 9.13036Z" stroke="#49576D" stroke-width="0.8" stroke-linecap="round" stroke-linejoin="round"/>
<path d="M4.69525 4.07275L3.67442 6.51109C2.65942 6.94859 1.94775 7.95775 1.94775 9.13025V7.42109C1.94775 5.76442 3.12609 4.38192 4.69525 4.07275Z" stroke="#49576D" stroke-width="0.8" stroke-linecap="round" stroke-linejoin="round"/>
<path d="M13.3338 7.42111V9.13027C13.3338 7.84694 12.4821 6.75611 11.3154 6.40611C11.6188 5.64777 11.7063 5.05277 11.5604 4.55694C11.5488 4.50444 11.5313 4.45194 11.5079 4.40527C12.5929 4.96527 13.3338 6.11444 13.3338 7.42111Z" stroke="#49576D" stroke-width="0.8" stroke-linecap="round" stroke-linejoin="round"/>
</svg>
