<svg width="1440" height="942" viewBox="0 0 1440 942" fill="none" xmlns="http://www.w3.org/2000/svg">
<g opacity="0.12">
<path d="M592.891 875.099C576.623 851.594 533.906 840.899 501.083 840.899C490.964 840.899 481.581 841.828 473.192 843.621C442.322 850.282 415.968 856.238 392.72 861.521C330.469 875.643 292.906 884.193 261.685 884.193C235.683 884.193 213.395 878.397 182.206 863.507C149.639 847.944 125.718 833.15 106.537 821.237C76.4042 802.568 56.5184 790.272 29.2996 790.272C20.3974 790.272 10.7907 791.649 0.03125 794.467V796.772C10.8227 793.923 20.4294 792.546 29.2996 792.546C55.91 792.546 75.5717 804.746 105.352 823.191C124.598 835.103 148.55 849.961 181.245 865.556C212.787 880.607 235.331 886.467 261.685 886.467C293.163 886.467 330.821 877.917 393.2 863.763C416.448 858.479 442.77 852.523 473.64 845.863C481.87 844.101 491.092 843.205 501.051 843.205C533.329 843.205 575.246 853.612 591.033 876.444C597.982 886.531 599.135 897.963 594.428 910.483C585.013 935.461 540.983 957.492 502.108 976.961C478.635 988.714 456.444 999.825 445.044 1010.14C411.709 1040.27 419.714 1081.13 433.228 1125.16H435.565C422.148 1081.58 414.047 1041.2 446.517 1011.8C457.693 1001.68 479.756 990.667 503.1 978.979C542.328 959.349 586.774 937.062 596.509 911.284C601.537 897.931 600.32 885.794 592.891 875.099Z" fill="#32353E"/>
<path d="M10.2143 618.792C14.7615 520.036 77.7172 448.018 128.312 390.154L131.899 386.055C137.759 379.875 151.304 363.351 150.247 343.401C149.607 331.265 143.587 320.249 132.379 310.707C125.654 304.975 119.442 299.659 113.518 294.567C87.3558 272.088 66.6695 254.348 34.5832 232.092C22.8631 223.958 11.3031 216.273 0.0632722 209.036V210.189C11.143 217.33 22.5108 224.887 34.0388 232.893C66.0931 255.116 86.7474 272.856 112.878 295.304C118.802 300.396 125.014 305.743 131.739 311.443C142.754 320.794 148.646 331.553 149.287 343.433C150.344 363.031 136.99 379.298 131.194 385.415L127.576 389.545C76.8846 447.506 13.8008 519.652 9.25365 618.76C8.77332 629.328 4.67447 635.764 0.03125 637.974V639.127C5.02672 637.045 9.66994 630.513 10.2143 618.792Z" fill="#32353E"/>
<path d="M32.5979 619.818C36.7928 528.874 96.8985 460.155 145.188 404.916L148.806 400.786C158.958 389.194 167.155 378.882 173.239 370.236C180.765 359.477 194.726 339.463 161.711 307.601C126.103 273.209 87.612 241.635 47.3601 213.712C30.9327 202.312 15.1457 192.065 0.0632722 182.842V183.963C14.9856 193.089 30.5804 203.24 46.8157 214.512C87.0356 242.404 125.462 273.978 161.039 308.305C193.477 339.623 179.804 359.189 172.439 369.692C166.387 378.338 158.189 388.585 148.07 400.177L144.451 404.308C96.0659 459.642 35.8321 528.522 31.6372 619.785C29.6838 662.119 22.1586 686.744 7.97276 697.311C5.15481 699.393 2.49696 700.546 0.03125 700.802V701.762C2.72112 701.506 5.53907 700.321 8.54916 698.08C22.9912 687.352 30.6125 662.471 32.5979 619.818Z" fill="#32353E"/>
<path d="M423.461 -30.6505C417.249 -55.2115 367.038 -61.8081 308.886 -69.3973C294.508 -71.2866 279.649 -73.208 265.239 -75.5136C201.483 -85.5685 143.139 -117.559 86.7154 -148.524C58.4398 -164.023 29.5878 -179.842 0.03125 -192.875V-190.441C29.1715 -177.536 57.7033 -161.91 85.6266 -146.571C142.21 -115.541 200.747 -83.4231 264.887 -73.304C279.361 -71.0305 294.219 -69.0771 308.597 -67.1878C363.547 -59.9828 415.423 -53.1941 421.284 -30.1061C425.831 -12.1096 402.39 15.2054 349.618 53.3759C275.55 106.949 213.427 131.894 154.058 131.894C120.307 131.894 86.8755 123.505 54.6291 107.013C34.5512 96.7339 16.907 84.2453 0.0632722 71.6285V74.4145C16.5867 86.743 33.9428 98.9114 53.6364 108.998C86.203 125.682 119.986 134.136 154.09 134.136C213.94 134.136 276.511 109.062 350.963 55.2011C405.272 15.8779 428.328 -11.4051 423.461 -30.6505Z" fill="#32353E"/>
<path d="M8.32578 474.789C16.9398 459.61 28.1475 445.841 38.971 432.519C54.5659 413.306 70.7051 393.452 79.3831 369.051C94.6897 326.014 64.6849 306.16 32.8868 285.089C29.9408 283.136 26.9947 281.182 24.0487 279.197C18.797 275.643 13.8656 272.312 8.99824 268.918C6.59658 267.253 3.65053 265.139 0 262.481V263.666C3.36233 266.132 6.18029 268.149 8.45387 269.718C13.3212 273.113 18.2847 276.443 23.5363 279.998C26.4824 281.983 29.4284 283.936 32.3424 285.89C63.7883 306.736 93.5049 326.398 78.4544 368.731C69.8084 392.972 53.7333 412.762 38.1705 431.911C27.315 445.264 16.1072 459.066 7.46118 474.308C4.86738 478.888 2.49773 484.812 0 491.12V493.714C0.256178 493.073 0.512356 492.401 0.768533 491.76C3.33031 485.388 5.73198 479.368 8.32578 474.789Z" fill="#32353E"/>
<path d="M401.526 948.782C406.713 945.516 412.702 945.099 417.857 945.099C420.291 945.099 422.757 945.196 425.35 945.324C427.944 945.452 430.602 945.58 433.26 945.58C439.216 945.58 446.997 945.003 454.042 940.648C472.231 929.377 478.283 916.279 476.17 908.914C474.793 904.047 470.053 901.229 463.201 901.229C457.084 901.229 449.335 903.407 440.753 907.569C435.277 910.227 430.346 914.935 425.575 919.546C419.811 925.086 413.854 930.818 407.002 932.675C404.888 933.251 402.807 933.539 400.629 933.539C396.306 933.539 392.432 932.419 388.333 931.266C384.266 930.113 380.103 928.896 375.492 928.896C373.891 928.896 372.29 929.056 370.688 929.345C362.555 930.85 357.015 936.005 351.635 941.001C347.152 945.164 342.541 949.455 336.457 951.568C329.572 953.97 320.221 955.154 307.893 955.154C291.882 955.154 274.141 953.137 259.86 951.536C255.761 951.056 251.95 950.639 248.556 950.287C218.935 947.309 188.098 938.023 154.346 921.915C118.61 904.848 93.0558 889.029 72.4975 876.284C61.2898 869.335 49.7938 865.812 38.3939 865.812C23.8878 865.812 11.0149 871.32 0.03125 879.806V880.991C10.9508 872.377 23.8558 866.773 38.3939 866.773C49.6337 866.773 60.9375 870.232 72.0172 877.116C92.5755 889.861 118.161 905.712 153.962 922.78C187.81 938.951 218.743 948.27 248.46 951.248C251.854 951.6 255.665 952.016 259.763 952.497C274.045 954.13 291.85 956.115 307.893 956.115C320.317 956.115 329.764 954.93 336.745 952.497C343.021 950.319 347.729 945.932 352.276 941.705C357.783 936.582 363.003 931.746 370.849 930.273C372.386 929.985 373.891 929.857 375.46 929.857C379.943 929.857 384.074 931.042 388.044 932.195C392.015 933.347 396.146 934.532 400.629 934.532C402.871 934.532 405.048 934.244 407.258 933.636C414.335 931.682 420.387 925.886 426.247 920.282C430.954 915.767 435.854 911.06 441.201 908.498C449.655 904.431 457.276 902.254 463.233 902.254C469.733 902.254 473.992 904.719 475.273 909.235C477.29 916.28 471.334 928.896 453.562 939.912C446.709 944.171 439.12 944.715 433.26 944.715C430.634 944.715 427.976 944.587 425.414 944.459C422.917 944.331 420.355 944.235 417.889 944.235C412.574 944.235 406.425 944.683 401.046 948.078C395.121 951.792 390.606 961.207 386.251 970.333C383.625 975.841 381.128 981.028 378.502 984.615C356.599 1014.46 355.254 1046.61 359.993 1085.68C361.626 1099.09 364.348 1112.32 367.614 1125.22H368.607C365.309 1112.29 362.555 1099.03 360.922 1085.58C356.214 1046.74 357.527 1014.81 379.27 985.223C381.96 981.541 384.458 976.321 387.116 970.781C391.407 961.623 395.826 952.337 401.526 948.782Z" fill="#32353E"/>
<path d="M86.5881 404.276C88.0291 402.579 89.4701 400.849 90.9431 399.12C111.565 374.879 132.86 349.806 108.651 319.833C89.9184 296.649 61.6428 277.532 36.6654 260.656C31.5099 257.166 26.6105 253.867 21.8071 250.537C18.5729 248.296 14.2179 245.093 9.12633 241.411C6.3404 239.393 3.29829 237.152 0.0320222 234.782V235.967C3.07413 238.177 5.95613 240.258 8.54993 242.179C13.6094 245.894 17.9965 249.064 21.2307 251.306C26.0341 254.636 30.9335 257.934 36.089 261.457C60.9703 278.3 89.2139 297.386 107.851 320.442C131.579 349.806 110.509 374.559 90.1746 398.512C88.7015 400.241 87.2606 401.938 85.8195 403.667C67.9191 424.994 45.0553 453.558 26.9627 485.388C15.9791 504.698 6.94882 525 0 545.814V548.952C7.01287 527.177 16.3313 505.978 27.7953 485.836C45.8558 454.134 68.6877 425.603 86.5881 404.276Z" fill="#32353E"/>
<path d="M68.3346 80.179C92.6715 92.6356 113.358 98.4637 133.404 98.4637C154.41 98.4637 173.079 92.1553 194.694 84.8543C206.959 80.7234 220.856 76.0161 236.611 72.0454C244.617 70.028 251.566 69.8038 256.113 69.8038C259.155 69.8038 262.101 69.9319 264.919 70.028C267.609 70.124 270.139 70.2521 272.636 70.2521C285.605 70.2521 295.949 67.178 307.252 51.9034C314.874 41.5923 317.756 33.6187 320.253 26.6059C324.032 16.1026 327.01 7.80879 343.598 -4.07144C347.857 -7.11356 353.941 -9.51521 359.865 -11.8208C369.344 -15.5674 377.541 -18.7697 377.893 -24.2455C378.182 -28.6645 373.026 -33.5959 361.658 -39.7762C348.081 -47.1413 328.675 -48.134 311.479 -48.134C303.826 -48.134 295.756 -47.9099 287.975 -47.6857C280.162 -47.4616 272.06 -47.2054 264.343 -47.2054C247.083 -47.2054 235.01 -48.3902 225.147 -51.0801C169.429 -66.2266 117.169 -94.8544 71.0565 -120.152C46.9438 -133.441 23.4715 -146.314 0.03125 -157.362V-155.601C23.2153 -144.649 46.4314 -131.904 70.3841 -118.775C116.56 -93.4455 168.884 -64.7536 224.827 -49.575C234.818 -46.8531 247.051 -45.6363 264.439 -45.6363C272.188 -45.6363 280.29 -45.8604 288.135 -46.1166C295.917 -46.3408 303.954 -46.5649 311.575 -46.5649C328.547 -46.5649 347.696 -45.6043 360.986 -38.3993C371.425 -32.7313 376.613 -27.992 376.388 -24.3735C376.1 -19.9224 367.967 -16.7202 359.385 -13.3579C353.396 -10.9883 347.216 -8.55455 342.797 -5.41638C325.793 6.75208 322.591 15.6863 318.876 26.0294C316.379 32.9462 313.561 40.7917 306.068 50.9107C295.148 65.6409 285.221 68.619 272.732 68.619C270.267 68.619 267.737 68.5229 265.079 68.3948C262.229 68.2668 259.283 68.1707 256.209 68.1707C251.566 68.1707 244.489 68.3948 236.323 70.4443C220.504 74.415 206.575 79.1223 194.278 83.2852C172.791 90.5542 154.25 96.8305 133.5 96.8305C113.71 96.8305 93.2479 91.0666 69.1352 78.738C47.1039 67.4342 27.2822 52.4157 8.10085 37.8777C5.44301 35.8603 2.78516 33.8429 0.0952944 31.8255V33.8429C2.46494 35.6041 4.80256 37.3973 7.14018 39.1586C26.2895 53.7607 46.1753 68.8431 68.3346 80.179Z" fill="#32353E"/>
<path d="M83.0969 51.391C106.761 63.5274 129.945 69.4195 154.026 69.4195C167.507 69.4195 196.616 63.9117 221.977 54.7213C244.201 46.6517 270.715 33.2664 270.779 15.27C270.843 -5.92876 229.919 -17.7129 205.454 -24.7578C200.138 -26.2949 195.527 -27.6078 192.485 -28.7286C148.678 -44.6116 105.192 -64.6575 55.6539 -91.8124C36.6967 -102.188 18.2199 -112.307 0.03125 -121.401V-120.312C18.0598 -111.282 36.3765 -101.259 55.1415 -90.9477C104.744 -63.7609 148.262 -43.6829 192.101 -27.7999C195.207 -26.6791 199.818 -25.3662 205.134 -23.8292C229.342 -16.8804 269.85 -5.22427 269.786 15.27C269.69 46.3956 181.95 68.4589 153.994 68.4589C130.074 68.4589 107.018 62.5988 83.5132 50.5264C63.9476 40.5035 45.2466 26.3176 27.1861 12.6441C18.444 6.01553 9.44578 -0.805214 0.03125 -7.43382V-6.24899C9.22163 0.251526 18.0277 6.91214 26.6097 13.4127C44.7343 27.1502 63.4353 41.336 83.0969 51.391Z" fill="#32353E"/>
<path d="M93.312 31.4412C113.71 41.9124 133.564 46.9719 154.026 47.004C171.798 47.004 194.983 41.7203 203.917 30.1603C207.791 25.1328 208.912 19.2407 207.183 12.6441C203.116 -2.88666 170.614 -13.8703 146.853 -21.8758C139.168 -24.4696 132.539 -26.7112 128.472 -28.6005C101.029 -41.3453 73.8745 -56.2357 47.6163 -70.6137L44.7022 -72.2148C29.5237 -80.5406 14.6654 -88.6742 0.03125 -96.2314V-95.1427C14.5053 -87.6495 29.2035 -79.6119 44.2219 -71.3502L47.1359 -69.7491C73.3941 -55.3391 100.581 -40.4487 128.024 -27.7039C132.155 -25.7825 138.784 -23.541 146.501 -20.9472C168.724 -13.454 202.284 -2.11812 206.19 12.9003C207.823 19.2087 206.799 24.8126 203.116 29.5839C194.374 40.8877 171.542 46.0433 153.93 46.0433C133.692 46.0433 113.966 40.9838 93.6962 30.5766C75.8919 21.4502 57.9915 7.8728 40.6674 -5.25632C28.2108 -14.7029 14.7615 -24.8859 0.03125 -34.4926V-33.3398C14.5373 -23.8292 27.7945 -13.8062 40.1551 -4.42373C57.4791 8.70538 75.4116 22.2828 93.312 31.4412Z" fill="#32353E"/>
<path d="M303.058 452.213C301.457 454.871 299.952 457.369 298.639 459.226C282.436 482.058 263.254 502.296 241.671 524.519C238.757 527.497 235.779 530.54 232.769 533.582C214.965 551.578 196.52 570.183 185.504 592.182C181.245 600.7 179.901 607.361 181.694 611.428C182.494 613.285 183.903 614.502 185.889 615.046C186.689 615.27 187.618 615.398 188.611 615.398C192.549 615.398 197.801 613.477 203.757 609.891C215.605 602.718 226.845 593.879 237.733 585.297C246.635 578.285 255.857 571.016 265.368 564.739C303.698 539.346 329.028 522.534 340.876 475.173C343.342 465.342 344.783 442.991 337.194 433.256C334.568 429.894 331.141 428.325 326.915 428.517C317.052 429.029 308.982 442.414 303.058 452.213ZM327.651 429.477C331.206 429.477 334.184 430.95 336.425 433.864C343.79 443.311 342.349 465.278 339.948 474.949C328.195 521.958 302.994 538.641 264.823 563.939C255.281 570.247 246.058 577.516 237.124 584.561C226.269 593.111 215.029 601.949 203.245 609.09C196.072 613.445 189.923 615.238 186.145 614.15C184.448 613.669 183.263 612.612 182.558 611.043C180.925 607.297 182.27 600.764 186.337 592.631C197.289 570.759 215.669 552.219 233.41 534.254C236.42 531.212 239.43 528.17 242.344 525.192C263.959 502.936 283.14 482.666 299.407 459.802C300.752 457.913 302.257 455.415 303.859 452.758C309.655 443.151 317.564 430.022 326.915 429.541C327.203 429.477 327.427 429.477 327.651 429.477Z" fill="#32353E"/>
<path d="M103.368 11.7795C109.74 15.0458 127.705 20.9058 140.706 20.9058C145.349 20.9058 148.903 20.1373 151.241 18.6002C156.3 15.3019 158.542 12.2278 158.094 9.15366C157.069 2.39698 142.371 -1.66982 130.587 -4.93609C125.719 -6.28102 121.556 -7.46586 119.155 -8.55462C91.0392 -21.5877 63.5641 -36.6701 36.9857 -51.2402L34.0396 -52.8413C22.5436 -59.1817 11.2078 -65.394 0.0320222 -71.2861V-69.4609C10.9516 -63.6648 22.0313 -57.5806 33.3031 -51.4324L36.2492 -49.8313C62.8596 -35.2291 90.3667 -20.1467 118.514 -7.0816C121.012 -5.9288 125.271 -4.74397 130.17 -3.36701C140.93 -0.388947 155.628 3.7099 156.525 9.44188C156.877 11.7795 154.827 14.4373 150.376 17.2873C148.295 18.6322 145.061 19.3047 140.706 19.3047C128.121 19.3047 110.156 13.4767 104.072 10.3705C88.0611 2.17284 70.9933 -10.7642 54.4378 -23.3169C38.6508 -35.2612 20.7184 -48.8706 0 -61.2632V-59.3739C20.3021 -47.1734 37.9784 -33.7881 53.5091 -22.0039C70.0966 -9.48325 87.2285 3.51775 103.368 11.7795Z" fill="#32353E"/>
<path d="M55.3016 620.874C59.1443 537.872 116.336 472.451 162.288 419.902L165.906 415.771C220.568 353.2 218.359 331.361 192.709 306.063C164.593 278.332 120.275 236.639 60.2971 195.042C39.8028 180.824 19.5648 167.823 0.03125 156.295V158.153C19.2766 169.553 39.2265 182.361 59.3684 196.323C119.25 237.856 163.505 279.485 191.588 307.184C216.501 331.745 218.519 353.104 164.722 414.715L161.103 418.846C114.991 471.586 57.5752 537.232 53.7325 620.81C50.082 699.232 20.5575 722.256 0.03125 728.725V730.39C21.0378 724.017 51.619 700.865 55.3016 620.874Z" fill="#32353E"/>
<path d="M323.617 976.577C309.367 972.927 294.06 972.67 279.266 972.446C270.716 972.318 261.878 972.19 253.456 971.39C213.14 967.547 178.588 958.228 144.741 942.057C107.915 924.477 81.7531 908.274 60.7466 895.241C53.1253 890.534 45.6321 888.132 38.4271 888.132C25.0418 888.132 11.1762 896.906 0.0644531 911.54V913.141C11.1121 898.123 25.0098 889.092 38.4271 889.092C45.4399 889.092 52.773 891.43 60.2342 896.073C81.2728 909.106 107.435 925.31 144.325 942.922C178.3 959.157 212.948 968.476 253.36 972.35C261.846 973.151 270.684 973.279 279.266 973.439C294.028 973.663 309.271 973.919 323.425 977.538C345.424 983.206 344.656 999.281 341.517 1018.14C337.803 1040.65 334.697 1062.94 337.771 1088.27C339.308 1100.86 341.71 1113.15 344.592 1125.1H345.584C342.67 1113.09 340.269 1100.76 338.731 1088.14C335.689 1062.94 338.763 1040.72 342.478 1018.3C345.488 999.633 346.385 982.437 323.617 976.577Z" fill="#32353E"/>
<path d="M322.368 398.896C308.311 402.354 296.046 421.824 286.151 437.451C282.693 442.927 279.426 448.082 276.576 451.765C260.693 472.291 242.761 490.768 225.405 508.604C220.89 513.247 215.19 518.531 209.202 524.103C191.333 540.658 169.11 561.281 162.353 580.142C156.685 595.993 160.016 611.139 163.25 625.741C165.908 637.75 168.662 650.174 166.484 663.047C165.139 671.053 160.304 678.93 155.148 687.256C149 697.247 142.66 707.558 142.275 718.67C142.147 722.449 142.724 726.163 144.004 729.75C148.231 741.63 152.65 747.138 157.902 747.138C163.186 747.138 168.758 741.726 177.147 728.501C185.153 715.852 188.291 701.218 191.333 687.064C194.375 672.846 197.546 658.148 205.615 645.435C220.986 621.226 248.077 603.358 271.965 587.635C273.983 586.322 275.968 584.977 277.953 583.696C317.629 557.406 348.979 536.624 362.972 480.713C366.687 465.919 365.694 428.196 350.644 408.919C343.311 399.536 333.704 396.11 322.368 398.896ZM349.363 409.88C362.844 427.172 365.534 463.709 361.403 480.296C347.57 535.631 316.444 556.253 277.057 582.351C275.103 583.664 273.086 584.977 271.069 586.29C247.02 602.109 219.769 620.074 204.238 644.571C196.009 657.54 192.838 672.366 189.732 686.744C186.722 700.769 183.616 715.276 175.771 727.668C170.167 736.506 163.666 745.569 157.902 745.569C153.483 745.569 149.448 740.221 145.51 729.237C144.293 725.811 143.748 722.352 143.876 718.734C144.261 708.07 150.473 697.919 156.525 688.121C161.745 679.635 166.676 671.629 168.053 663.336C170.295 650.142 167.509 637.558 164.819 625.421C161.489 610.339 158.318 596.121 163.858 580.686C170.487 562.209 192.55 541.747 210.291 525.288C216.311 519.684 222.011 514.432 226.558 509.725C243.946 491.824 261.91 473.316 277.857 452.725C280.771 448.979 284.038 443.759 287.528 438.283C297.263 422.913 309.335 403.763 322.753 400.433C325.186 399.825 327.556 399.536 329.797 399.536C337.419 399.568 344.015 403.027 349.363 409.88Z" fill="#32353E"/>
<path d="M337.098 329.375C329.477 318.392 322.848 316.983 315.803 315.478C310.968 314.453 305.94 313.364 300.208 309.041L299.728 308.497C283.397 290.212 228.607 230.587 210.066 230.587C207.888 230.587 206.191 231.355 205.006 232.893C202.541 236.127 202.669 242.627 205.391 252.778C207.024 258.799 222.522 267.124 238.95 275.962C252.623 283.295 266.777 290.885 271.58 296.585C275.871 301.708 281.539 308.785 281.027 311.219C280.899 311.891 280.162 312.276 278.914 312.884C276.064 314.293 271.741 316.471 274.046 326.558C275.647 333.538 279.97 340.487 284.133 347.212C288.04 353.456 291.722 359.38 293.195 365.112C297.294 380.867 271.484 409.783 254.417 428.901C248.781 435.209 243.913 440.653 240.807 444.784C228.383 461.275 212.852 476.582 197.865 491.344C168.693 520.1 138.56 549.816 127.929 590.837C112.078 652.159 108.908 706.309 118.546 751.781C123.67 776.053 141.346 809.869 158.478 809.869C169.141 809.869 176.923 797.06 181.566 771.762C199.498 674.351 248.396 641.944 295.725 610.595C337.642 582.831 377.222 556.605 394.258 488.462C400.662 462.748 390.799 423.233 377.958 401.361C372.226 391.595 365.021 386.119 358.04 380.803C351.924 376.128 346.128 371.741 341.645 364.696C338.475 359.733 339.051 353.904 339.628 347.788C340.332 341.512 340.973 334.947 337.098 329.375ZM339.82 365.977C344.495 373.342 350.451 377.857 356.76 382.66C363.548 387.848 370.593 393.196 376.101 402.578C388.718 424.065 398.42 462.844 392.144 488.014C375.332 555.292 336.105 581.294 294.54 608.801C246.859 640.407 197.513 673.102 179.421 771.442C175.066 795.171 167.828 807.723 158.51 807.723C143.972 807.723 126.264 777.43 120.756 751.396C111.213 706.277 114.351 652.448 130.138 591.477C140.578 551.033 170.518 521.541 199.466 493.009C214.517 478.183 230.08 462.844 242.632 446.193C245.674 442.158 250.51 436.746 256.114 430.47C274.559 409.815 299.792 381.508 295.373 364.632C293.772 358.548 290.025 352.528 286.022 346.123C281.924 339.559 277.729 332.802 276.224 326.173C274.302 317.783 277.28 316.31 279.906 314.997C281.347 314.261 282.852 313.524 283.237 311.763C283.717 309.426 282.244 305.839 273.31 295.24C268.25 289.22 253.904 281.534 240.039 274.073C225.468 266.26 208.977 257.39 207.6 252.298C204.462 240.706 205.455 236.159 206.832 234.366C207.568 233.405 208.625 232.957 210.098 232.957C224.092 232.957 264.728 272.824 298.095 310.098C298.511 310.546 298.735 310.803 298.767 310.803C305.012 315.542 310.52 316.727 315.355 317.751C322.208 319.224 328.132 320.473 335.273 330.752C338.667 335.62 338.091 341.512 337.482 347.724C336.874 353.872 336.233 360.341 339.82 365.977Z" fill="#32353E"/>
<path d="M0.03125 121.52C108.01 182.618 224.379 279.837 245.578 328.159C258.29 357.171 227.453 391.851 188.418 435.754C144.035 485.644 88.8289 547.735 85.3705 622.251C81.1756 713.098 36.1523 750.404 0.03125 761.676V764.013C36.9849 752.742 83.3531 714.956 87.612 622.347C91.0064 548.632 145.957 486.861 190.083 437.227C229.663 392.716 260.916 357.587 247.627 327.23C226.268 278.557 108.779 180.473 0.03125 119.086V121.52Z" fill="#32353E"/>
<path d="M307.028 1006.93C295.372 996.143 277.952 995.246 262.581 994.445C258.643 994.253 254.896 994.061 251.31 993.709C208.304 989.61 171.35 979.619 135.069 962.295C103.847 947.373 79.6385 933.763 58.9201 919.481C53.2522 915.575 47.4562 913.589 41.6601 913.589C28.531 913.589 16.1705 923.901 8.61321 941.128C5.76323 947.629 2.94527 954.033 0.03125 960.374V962.679C3.23347 955.731 6.33963 948.686 9.47781 941.513C16.8749 924.637 28.9153 914.55 41.6601 914.55C47.232 914.55 52.8679 916.471 58.3757 920.282C79.1261 934.596 103.367 948.237 134.653 963.192C171.062 980.58 208.112 990.603 251.246 994.702C254.864 995.054 258.611 995.246 262.581 995.438C277.792 996.239 295.02 997.135 306.42 1007.67C319.645 1019.9 317.788 1043.12 316.123 1063.58C315.322 1073.64 314.553 1083.18 315.482 1090.93C316.891 1102.49 319.677 1113.92 322.591 1125.06H323.584C320.638 1113.86 317.852 1102.39 316.443 1090.8C315.514 1083.11 316.283 1073.64 317.083 1063.61C318.716 1042.93 320.574 1019.49 307.028 1006.93Z" fill="#32353E"/>
<path d="M29.94 350.702C28.3709 340.391 21.23 331.137 8.16489 322.491C5.47503 320.729 2.78516 318.936 0.03125 317.047V318.2C2.59303 319.929 5.12278 321.626 7.65254 323.291C20.4934 331.777 27.4743 340.807 29.0114 350.83C31.5411 367.45 18.9244 384.55 3.45763 403.635C2.40089 404.916 1.24809 406.517 0.0632722 408.214V409.879C1.56832 407.734 2.94527 405.78 4.22616 404.243C19.821 384.998 32.5658 367.706 29.94 350.702Z" fill="#32353E"/>
<path d="M58.2797 361.558C66.6054 338.182 58.2156 328.767 20.5255 303.822C17.5474 301.836 14.5373 299.851 11.4632 297.77C7.52445 295.112 3.74583 292.55 0.03125 289.988V291.141C3.58572 293.575 7.17221 296.008 10.9508 298.57C13.9929 300.62 17.003 302.637 20.0131 304.59C57.1909 329.215 65.4847 338.438 57.383 361.206C50.05 381.828 35.8641 399.28 20.8457 417.757C13.8648 426.371 6.72389 435.145 0.03125 444.527V446.193C6.91603 436.426 14.3132 427.3 21.5822 418.365C36.6647 399.824 50.8825 382.308 58.2797 361.558Z" fill="#32353E"/>
<path d="M310.872 482.25H310.648C306.101 482.25 301.49 488.014 298.127 492.241C297.391 493.138 296.75 493.97 296.174 494.611C293.004 498.229 289.93 502.04 286.983 505.754C285.062 508.156 283.173 510.526 281.219 512.863L280.995 513.151C274.591 520.741 271.997 525.672 273.022 528.234C273.31 528.938 274.014 529.835 275.744 530.027C276 530.059 276.256 530.059 276.512 530.059H276.672C289.481 529.771 299.856 518.179 304.916 511.294C309.719 504.73 313.146 497.621 314.362 491.825C314.651 490.48 315.419 485.869 313.594 483.563C312.889 482.762 311.961 482.314 310.872 482.25ZM312.761 491.536C311.609 497.108 308.278 503.993 303.603 510.366C298.736 517.026 288.745 528.234 276.608 528.49L276.48 529.291V528.49C276.288 528.49 276.096 528.49 275.904 528.458C274.751 528.33 274.559 527.818 274.495 527.658C274.143 526.761 274.207 523.687 282.212 514.176L282.468 513.888C284.422 511.518 286.343 509.149 288.264 506.747C291.21 503.064 294.253 499.254 297.423 495.667C297.999 495.027 298.672 494.162 299.408 493.234C302.386 489.487 306.901 483.851 310.84 483.851C311.48 483.883 311.961 484.107 312.345 484.588C313.402 485.997 313.242 489.231 312.761 491.536Z" fill="#32353E"/>
<path d="M648.706 806.667C691.2 801.831 736.767 752.613 737.344 710.92C738.24 647.004 701.511 595.928 665.966 546.55C659.946 538.16 653.701 529.482 647.809 520.964L644.255 515.841C627.539 491.76 608.582 464.445 602.402 434.953C597.182 409.943 589.209 351.759 597.887 331.649C604.259 316.919 622.384 308.497 639.9 300.363C652.004 294.727 663.436 289.412 671.474 282.143L671.858 281.79C699.333 256.909 699.333 256.909 718.066 256.269C723.734 256.077 730.779 255.82 740.738 254.892C754.091 253.643 761.969 251.69 767.733 250.281C771.383 249.384 774.041 248.711 776.379 248.711C782.143 248.711 786.978 252.81 802.957 266.324C850.19 306.319 849.293 375.872 848.461 443.15C847.372 527.785 846.251 615.334 942.062 643.033C955.831 647.004 969.248 649.053 981.929 649.053C1017.95 649.053 1048.6 632.946 1070.6 602.525C1102.88 557.854 1111.46 488.174 1091.93 429.093C1046.87 292.742 939.212 214.768 823.419 140.476C718.162 72.9414 617.933 54.3365 532.209 42.2001C525.997 41.3355 520.105 40.8872 514.661 40.8872C479.917 40.8872 463.393 58.5635 442.483 80.947C434.477 89.529 426.184 98.3671 415.904 107.429C404.12 117.773 389.166 124.849 374.66 131.702C351.027 142.878 328.708 153.413 319.486 176.886C299.92 226.68 347.985 265.459 390.415 299.691C410.044 315.542 428.585 330.496 439.473 345.451C482.543 404.756 469.67 504.761 430.603 560.96C418.402 578.508 395.026 600.187 370.273 623.179C329.284 661.222 282.82 704.356 274.622 740.573C270.748 757.609 271.772 769.521 277.697 776.95C282.66 783.162 291.018 786.172 303.25 786.172C323.392 786.172 352.212 777.879 382.729 769.105C420.035 758.377 462.337 746.209 498.394 746.209C515.59 746.209 529.84 748.866 541.912 754.374C555.81 760.715 567.594 769.841 578.962 778.711C597.759 793.313 615.499 807.115 640.604 807.115C643.262 807.115 645.984 806.955 648.706 806.667ZM542.616 752.933C530.32 747.329 515.878 744.608 498.426 744.608C462.145 744.608 419.715 756.808 382.313 767.567C351.892 776.31 323.168 784.571 303.25 784.571C291.53 784.571 283.589 781.753 278.977 775.957C273.374 768.944 272.445 757.48 276.192 740.957C284.293 705.22 330.565 662.279 371.362 624.364C396.179 601.34 419.619 579.565 431.916 561.889C471.303 505.241 484.24 404.371 440.754 344.522C429.77 329.407 411.133 314.357 391.407 298.442C349.426 264.562 301.841 226.136 320.959 177.462C329.957 154.598 351.988 144.159 375.332 133.143C389.934 126.258 405.017 119.118 416.961 108.614C427.304 99.5199 435.63 90.6177 443.668 82.0358C464.322 59.9404 480.621 42.4883 514.693 42.4883C520.073 42.4883 525.901 42.9366 532.017 43.8012C617.548 55.9056 717.586 74.4785 822.587 141.853C938.123 215.985 1045.56 293.767 1090.45 429.637C1109.83 488.27 1101.34 557.374 1069.35 601.628C1047.67 631.633 1017.44 647.484 981.961 647.484C969.441 647.484 956.183 645.499 942.542 641.528C900.112 629.264 873.246 604.03 860.469 564.451C849.005 529.002 849.581 485.388 850.126 443.214C850.99 375.583 851.887 305.647 804.078 265.139C781.246 245.797 780.606 245.477 767.412 248.743C761.712 250.152 753.867 252.074 740.642 253.323C730.747 254.251 723.702 254.507 718.066 254.7C698.757 255.372 698.757 255.372 670.833 280.638L670.449 280.99C662.604 288.099 651.268 293.382 639.259 298.954C621.455 307.216 603.042 315.798 596.446 331.073C587.608 351.535 595.613 410.135 600.865 435.337C607.077 465.15 626.13 492.593 642.942 516.833L646.496 521.957C652.389 530.475 658.633 539.153 664.685 547.543C700.07 596.729 736.671 647.548 735.774 710.952C735.198 751.973 690.367 800.358 648.546 805.13C645.888 805.418 643.23 805.578 640.668 805.578C616.107 805.578 598.591 791.936 580.018 777.526C568.522 768.56 556.674 759.338 542.616 752.933Z" fill="#32353E"/>
<path d="M1397.45 313.557C1395.82 312.372 1393.32 310.195 1390.15 307.409C1377.98 296.777 1357.58 279.005 1343.2 279.005C1337.57 279.005 1333.37 281.727 1330.72 287.107C1327.39 293.831 1334.72 309.458 1339.59 319.801C1340.77 322.331 1341.8 324.508 1342.44 326.078C1343.75 329.312 1344.97 332.258 1345.96 334.916C1352.75 352.72 1359.79 371.101 1365.01 391.083C1365.56 393.164 1366.1 395.534 1366.64 398.032C1369.05 408.695 1371.99 421.92 1379.36 428.421C1382.21 430.95 1384.99 432.615 1387.65 433.416C1388.87 433.768 1390.05 433.96 1391.24 433.96C1399.95 433.96 1405.94 424.066 1411.73 414.491C1413.05 412.313 1414.42 410.04 1415.77 407.99L1417.05 406.037C1439.11 372.446 1452.43 352.144 1411.86 323.996C1407.92 321.178 1402.8 317.464 1397.45 313.557ZM1415.7 405.108L1414.42 407.062C1413.05 409.175 1411.67 411.417 1410.36 413.626C1404.78 422.817 1399.05 432.327 1391.24 432.327C1390.21 432.327 1389.19 432.167 1388.13 431.847C1385.73 431.142 1383.14 429.573 1380.45 427.204C1373.47 421.055 1370.55 408.086 1368.21 397.647C1367.64 395.117 1367.13 392.748 1366.58 390.666C1361.33 370.62 1354.28 352.176 1347.46 334.339C1346.44 331.681 1345.25 328.703 1343.91 325.469C1343.24 323.868 1342.21 321.658 1341.03 319.097C1336.58 309.65 1329.15 293.831 1332.16 287.811C1334.56 282.976 1338.18 280.606 1343.2 280.606C1356.97 280.606 1377.08 298.154 1389.09 308.625C1392.29 311.411 1394.82 313.621 1396.52 314.87C1401.87 318.777 1406.99 322.523 1410.96 325.277C1450.22 352.528 1437.22 372.318 1415.7 405.108Z" fill="#32353E"/>
<path d="M1423.71 277.628C1416.63 272.472 1409.59 266.708 1402.13 260.624C1379.29 241.987 1353.45 220.853 1330.2 220.853C1325.62 220.853 1321.27 221.653 1316.88 223.318C1275.83 238.849 1281.72 282.239 1288.86 306.736C1293.25 321.69 1298.89 336.517 1304.36 350.831C1310.73 367.514 1317.33 384.774 1321.91 402.354C1324.7 412.954 1326.07 424.13 1327.42 434.921C1331.55 468.064 1335.45 499.35 1379.65 499.35C1383.14 499.35 1386.91 499.158 1390.85 498.773C1395.88 498.261 1400.01 497.492 1403.53 496.372C1415.29 492.593 1418.81 485.452 1424.12 474.661C1425.73 471.394 1427.55 467.712 1429.82 463.741C1433.28 457.625 1437.06 451.829 1441 446.257V444.592C1436.77 450.548 1432.71 456.728 1428.99 463.261C1426.72 467.264 1424.89 470.978 1423.26 474.244C1418.04 484.812 1414.61 491.793 1403.25 495.443C1399.79 496.564 1395.72 497.332 1390.76 497.813C1386.85 498.197 1383.1 498.389 1379.65 498.389C1336.29 498.389 1332.64 468.929 1328.38 434.793C1327.03 423.969 1325.62 412.762 1322.84 402.098C1318.23 384.454 1311.63 367.194 1305.23 350.478C1299.75 336.165 1294.11 321.402 1289.73 306.48C1282.65 282.303 1276.82 239.457 1317.14 224.215C1321.4 222.614 1325.66 221.813 1330.11 221.813C1353 221.813 1378.72 242.82 1401.42 261.361C1408.88 267.477 1415.96 273.241 1423.04 278.396C1428.38 282.303 1433.09 285.73 1436.61 288.163C1438.05 289.156 1439.5 290.149 1440.94 291.141V289.989C1439.69 289.124 1438.41 288.259 1437.16 287.395C1433.73 284.929 1429.02 281.503 1423.71 277.628Z" fill="#32353E"/>
<path d="M1398.41 992.972C1384.32 1014.91 1367.67 1035.95 1354.76 1051.83C1354.06 1052.69 1353.29 1053.62 1352.49 1054.55C1346.73 1061.31 1339.55 1069.7 1344.61 1078.18C1349.51 1086.35 1363.51 1088.01 1373.72 1089.2C1375.55 1089.42 1377.31 1089.62 1378.75 1089.84C1400.75 1093.17 1421.59 1099.35 1441.03 1108.16V1107.1C1421.59 1098.36 1400.81 1092.21 1378.88 1088.88C1377.4 1088.65 1375.64 1088.46 1373.82 1088.24C1363.79 1087.05 1350.06 1085.45 1345.41 1077.67C1340.71 1069.79 1347.62 1061.69 1353.16 1055.16C1353.96 1054.2 1354.76 1053.3 1355.47 1052.41C1368.4 1036.49 1385.09 1015.42 1399.18 993.453C1411.7 973.983 1420.54 953.809 1429.92 932.45C1433.09 925.245 1436.84 918.777 1441 913.109V911.508C1436.48 917.464 1432.42 924.349 1429.02 932.066C1419.7 953.425 1410.87 973.567 1398.41 992.972Z" fill="#32353E"/>
<path d="M1325.91 -188.071C1321.72 -188.071 1317.62 -188.103 1313.58 -188.135C1309.71 -188.167 1305.9 -188.199 1302.15 -188.199C1280.31 -188.199 1262.92 -187.014 1243.78 -181.218C1233.75 -178.176 1224.37 -173.405 1215.28 -168.762C1200.13 -161.044 1185.78 -153.743 1168.65 -153.743C1165.8 -153.743 1162.92 -153.935 1160.1 -154.352C1147.45 -156.177 1138.01 -163.638 1128.85 -170.843C1118.57 -178.945 1108.83 -186.598 1095.22 -186.598C1093.98 -186.598 1092.73 -186.534 1091.45 -186.406C1083.02 -185.541 1069.57 -177.984 1056.54 -170.651C1048.15 -165.944 1040.24 -161.493 1034.64 -159.443C1026.47 -156.433 1020.36 -154.992 1015.91 -153.903C1002.46 -150.701 1000.76 -149.516 994.194 -124.731C992.401 -117.878 991.088 -111.474 989.807 -105.294C985.1 -82.3018 981.385 -64.1451 956.888 -46.8211C940.365 -35.165 919.39 -29.4651 892.748 -29.4651C866.362 -29.4651 838.79 -34.9729 814.454 -39.8723C801.741 -42.4341 789.7 -44.8357 780.798 -45.7644C775.611 -46.3088 767.605 -46.661 759.407 -46.661C735.903 -46.661 708.364 -38.0471 706.443 -25.7185C705.546 -19.8584 710.093 -11.0843 737.056 -2.47037L740.066 -1.50969C842.761 31.4412 914.395 74.415 987.277 146.849C1007.39 166.831 1022.76 176.15 1035.6 176.15C1038.61 176.15 1041.59 175.605 1044.37 174.58C1058.05 169.489 1068.01 152.229 1079.57 132.247C1085.52 121.936 1092.28 110.248 1100.28 98.976C1138.97 44.4742 1194.46 4.63858 1256.55 -13.1658C1274.87 -18.4174 1292.77 -21.0753 1309.71 -21.0753C1365.01 -21.0753 1404.05 6.01552 1441 33.8748V31.8575C1404.11 4.09419 1365.08 -22.6764 1309.71 -22.6764C1292.61 -22.6764 1274.58 -19.9865 1256.1 -14.7029C1193.66 3.19757 1137.85 43.2574 1098.97 98.0474C1090.93 109.351 1084.18 121.103 1078.19 131.447C1066.79 151.172 1056.96 168.176 1043.83 173.075C1041.2 174.068 1038.45 174.548 1035.6 174.548C1023.17 174.548 1008.19 165.39 988.398 145.728C915.323 73.1021 843.498 30.0002 740.546 -3.01474L737.536 -3.97542C717.362 -10.4119 706.891 -18.0652 708.044 -25.4303C709.645 -35.6774 734.142 -45.0279 759.439 -45.0279C767.573 -45.0279 775.515 -44.7077 780.638 -44.1633C789.476 -43.2346 801.485 -40.833 814.165 -38.2712C838.566 -33.3718 866.233 -27.832 892.78 -27.832C919.743 -27.832 941.037 -33.596 957.849 -45.4762C982.858 -63.1845 986.637 -81.6293 991.408 -104.941C992.689 -111.122 993.97 -117.494 995.795 -124.315C1002.3 -149.004 1003.64 -149.324 1016.32 -152.334C1020.84 -153.391 1026.98 -154.864 1035.25 -157.906C1040.98 -160.02 1048.95 -164.503 1057.37 -169.242C1069.64 -176.127 1083.57 -183.972 1091.64 -184.805C1092.85 -184.933 1094.07 -184.997 1095.26 -184.997C1108.32 -184.997 1117.83 -177.504 1127.92 -169.594C1137.24 -162.261 1146.88 -154.672 1159.94 -152.783C1162.86 -152.366 1165.83 -152.142 1168.75 -152.142C1186.26 -152.142 1201.44 -159.86 1216.08 -167.321C1225.11 -171.9 1234.42 -176.671 1244.29 -179.649C1263.28 -185.413 1280.5 -186.566 1302.18 -186.566C1305.93 -186.566 1309.71 -186.534 1313.58 -186.502C1317.62 -186.47 1321.72 -186.438 1325.91 -186.438C1345.48 -186.438 1362.96 -184.164 1379.42 -179.457C1400.2 -173.533 1420.6 -165.239 1441.03 -155.569V-157.33C1420.76 -166.872 1400.52 -175.102 1379.87 -180.994C1363.25 -185.766 1345.61 -188.071 1325.91 -188.071Z" fill="#32353E"/>
<path d="M1424.48 305.776C1420.76 303.182 1415.74 299.531 1410.48 295.689C1402.96 290.181 1395.69 284.257 1387.94 277.948C1386.21 276.539 1384.29 274.906 1382.27 273.209C1369.37 262.257 1351.69 247.271 1335.42 247.271C1330.94 247.271 1326.78 248.424 1323.06 250.729C1294.95 268.117 1311.86 309.618 1321.94 334.403C1323.16 337.414 1324.34 340.264 1325.31 342.793C1331.9 360.021 1338.72 377.858 1343.62 396.655C1344.55 400.177 1345.48 404.34 1346.44 408.727C1350.92 428.837 1357.04 456.408 1372.44 466.335C1374.97 467.968 1377.66 468.993 1380.38 469.377C1381.18 469.505 1382.05 469.537 1382.88 469.537C1401.71 469.537 1420.48 440.941 1434.21 420.031C1436.71 416.252 1438.95 412.826 1441.03 409.848V408.183C1438.76 411.417 1436.23 415.227 1433.41 419.518C1419.83 440.237 1401.2 468.577 1382.88 468.577C1382.08 468.577 1381.31 468.512 1380.51 468.416C1377.92 468.064 1375.39 467.071 1372.95 465.534C1357.87 455.832 1351.79 428.485 1347.37 408.535C1346.38 404.148 1345.48 399.985 1344.55 396.43C1339.62 377.601 1332.8 359.733 1326.2 342.473C1325.24 339.943 1324.09 337.093 1322.84 334.083C1312.85 309.554 1296.16 268.534 1323.58 251.594C1327.16 249.384 1331.13 248.264 1335.42 248.264C1351.34 248.264 1368.86 263.122 1381.63 273.978C1383.65 275.707 1385.57 277.308 1387.36 278.781C1395.08 285.057 1402.35 291.013 1409.91 296.521C1415.16 300.364 1420.19 304.014 1423.9 306.608C1428.9 310.067 1433.96 313.493 1439.34 317.143C1439.91 317.528 1440.46 317.88 1441 318.264V317.111C1440.62 316.855 1440.23 316.599 1439.82 316.311C1434.5 312.66 1429.47 309.234 1424.48 305.776Z" fill="#32353E"/>
<path d="M1258.03 533.037C1259.85 535.407 1263.25 538.641 1271.8 539.345C1303.79 541.971 1352.17 545.91 1393 583.12L1393.48 583.536C1407.44 596.281 1418.78 612.42 1427.17 631.505C1429.5 636.757 1433.25 639.799 1437.51 639.799C1438.66 639.799 1439.85 639.575 1441.03 639.095V637.942C1439.88 638.486 1438.7 638.838 1437.51 638.838C1433.67 638.838 1430.21 636.02 1428.03 631.121C1419.58 611.908 1408.15 595.673 1394.09 582.832L1393.61 582.415C1352.52 544.981 1303.95 541.011 1271.83 538.385C1263.66 537.712 1260.43 534.67 1258.73 532.461C1254.66 527.113 1254.15 518.915 1254.6 516.386C1259.05 496.788 1264.59 472.387 1262.51 445.712C1259.02 400.529 1240.93 361.686 1223.47 324.124C1209.45 293.991 1193.57 259.823 1199.07 244.261C1208.9 216.561 1249.06 176.822 1265.84 161.035C1276.5 151.012 1289.22 145.92 1303.56 145.92C1311.76 145.92 1318.84 147.65 1323.35 149.091C1352.81 158.569 1394.5 180.344 1441 210.221V209.068C1394.66 179.32 1353.07 157.641 1323.64 148.162C1319.09 146.689 1311.89 144.928 1303.56 144.928C1288.96 144.928 1276.05 150.115 1265.2 160.33C1248.36 176.181 1208.07 216.049 1198.18 243.94C1192.54 259.887 1208.52 294.215 1222.61 324.54C1240.03 362.006 1258.06 400.753 1261.58 445.776C1263.66 472.323 1258.12 496.628 1253.7 516.225C1253.22 518.851 1253.77 527.465 1258.03 533.037Z" fill="#32353E"/>
<path d="M1318.29 504.025C1325.59 508.028 1335.58 509.725 1345.25 511.358C1352.43 512.575 1359.82 513.824 1365.84 516.001C1369.65 517.378 1373.85 519.46 1378.3 521.637C1387.49 526.152 1397.9 531.308 1407.38 531.308C1409.2 531.308 1410.96 531.116 1412.63 530.731C1413.08 530.635 1413.49 530.507 1413.94 530.379C1427.52 526.344 1434.75 509.308 1441 493.682V491.088C1440.97 491.184 1440.93 491.28 1440.87 491.376C1434.53 507.323 1427.36 525.384 1413.65 529.482C1413.24 529.611 1412.82 529.707 1412.4 529.803C1410.83 530.155 1409.14 530.347 1407.38 530.347C1398.12 530.347 1387.81 525.256 1378.72 520.772C1374.23 518.563 1370.01 516.481 1366.16 515.104C1360.05 512.895 1352.59 511.646 1345.38 510.397C1335.77 508.764 1325.85 507.067 1318.71 503.16C1302.89 494.482 1304.55 478.599 1306.28 461.787C1306.95 455.223 1307.66 448.402 1307.18 442.19C1303.05 388.905 1283.26 346.347 1264.11 305.231C1255.43 286.562 1254.79 266.068 1262.31 247.591C1270.48 227.577 1287.58 211.406 1309.23 203.24C1315.98 200.678 1323 199.397 1330.14 199.397C1361.04 199.397 1390.05 223.094 1415.64 244.004C1422.87 249.928 1429.73 255.5 1436.29 260.304C1437.99 261.553 1439.53 262.673 1440.97 263.73V262.545C1439.69 261.617 1438.31 260.624 1436.84 259.535C1430.3 254.764 1423.45 249.192 1416.21 243.268C1390.5 222.261 1361.33 198.469 1330.11 198.469C1322.87 198.469 1315.73 199.782 1308.88 202.375C1286.97 210.637 1269.68 227.001 1261.42 247.271C1253.76 266.004 1254.44 286.754 1263.24 305.679C1282.36 346.764 1302.12 389.225 1306.22 442.318C1306.7 448.434 1305.99 455.223 1305.32 461.755C1303.69 478.087 1301.93 495.027 1318.29 504.025Z" fill="#32353E"/>
<path d="M1325.91 -155.729C1298.98 -155.729 1270.35 -150.861 1239.96 -145.674C1205.8 -139.845 1170.44 -133.825 1132.82 -133.825C1130.1 -133.825 1127.41 -133.857 1124.84 -133.921C1111.78 -134.242 1100.7 -136.387 1090.93 -138.276C1082.48 -139.91 1075.18 -141.351 1068.16 -141.351C1051.51 -141.351 1039.28 -132.576 1025.93 -111.122C1019.49 -100.778 1014.78 -88.3858 1010.24 -76.4415C1002.2 -55.2748 993.873 -33.3716 975.524 -20.4026C969.216 -15.9515 957.111 -12.4931 944.303 -8.81056C921.919 -2.40611 896.557 4.83089 893.099 19.9454C888.808 38.9025 927.715 64.8085 948.626 78.7382C952.5 81.332 955.863 83.5735 958.072 85.1747C982.601 103.171 1002.87 115.147 1022.15 115.147C1024.77 115.147 1027.4 114.923 1029.96 114.443C1045.33 111.689 1059.29 100.801 1073.9 80.2112C1116.81 19.7533 1178.51 -24.4694 1247.65 -44.3232C1268.88 -50.4074 1289.76 -53.4816 1309.74 -53.4816C1364.98 -53.4816 1405.87 -31.1621 1441.03 -6.31284V-7.49767C1405.87 -32.2829 1364.98 -54.4422 1309.74 -54.4422C1289.69 -54.4422 1268.72 -51.3361 1247.39 -45.2198C1178.03 -25.334 1116.17 19.0167 1073.13 79.6668C1058.69 100.033 1044.92 110.792 1029.8 113.482C1027.3 113.931 1024.74 114.155 1022.15 114.155C1003.13 114.155 983.017 102.242 958.648 84.3741C956.439 82.741 953.045 80.4994 949.17 77.9056C928.452 64.104 889.897 38.4222 894.028 20.1055C897.358 5.53539 922.431 -1.60556 944.559 -7.91394C957.464 -11.5965 969.632 -15.0549 976.069 -19.6341C994.673 -32.7632 1003.03 -54.7945 1011.13 -76.0892C1015.65 -88.0015 1020.36 -100.33 1026.73 -110.609C1039.89 -131.776 1051.87 -140.39 1068.13 -140.39C1075.05 -140.39 1082.29 -138.981 1090.71 -137.348C1100.51 -135.426 1111.65 -133.281 1124.78 -132.961C1127.37 -132.897 1130.06 -132.865 1132.79 -132.865C1170.51 -132.865 1205.89 -138.885 1240.16 -144.745C1270.45 -149.9 1299.04 -154.8 1325.88 -154.8C1342.47 -154.8 1357.1 -152.911 1370.68 -149.036C1393.96 -142.407 1417.24 -132.256 1441 -120.376V-121.465C1417.33 -133.281 1394.15 -143.368 1370.93 -149.997C1357.33 -153.807 1342.56 -155.729 1325.91 -155.729Z" fill="#32353E"/>
<path d="M1297.57 521.285C1304.14 522.918 1310.51 524.423 1316.72 525.832C1350.22 533.581 1379.1 540.306 1408.02 566.468L1408.59 566.981C1415.25 573.001 1420.47 575.915 1424.64 575.915C1425.28 575.915 1425.92 575.851 1426.53 575.691C1432.8 574.25 1435.94 565.476 1439.37 554.172C1439.91 552.41 1440.49 550.681 1441.03 548.92V545.782C1440.14 548.472 1439.27 551.194 1438.44 553.884C1435.08 564.899 1432.07 573.417 1426.3 574.762C1422.14 575.723 1416.66 572.969 1409.23 566.244L1408.66 565.732C1379.55 539.377 1350.54 532.653 1316.91 524.871C1310.73 523.43 1304.33 521.957 1297.8 520.324C1274.32 514.432 1278.29 492.337 1282.14 471.01C1283.8 461.692 1285.56 452.021 1284.92 443.951C1281.11 394.733 1262.19 354.033 1243.87 314.645C1241.69 309.938 1239.32 305.359 1237.08 300.908C1225.33 277.82 1215.15 257.902 1229.69 233.373C1240.6 214.928 1257 199.814 1272.82 185.212C1275.67 182.586 1278.52 179.96 1281.3 177.334C1287.42 171.602 1295.75 168.688 1306.03 168.688C1345.48 168.688 1406.16 210.669 1441.06 235.967V234.782C1405.97 209.388 1345.54 167.728 1306.03 167.728C1295.49 167.728 1286.94 170.738 1280.63 176.63C1277.85 179.256 1275 181.881 1272.15 184.507C1256.26 199.173 1239.84 214.32 1228.82 232.893C1214.03 257.87 1224.79 279.005 1236.19 301.356C1238.46 305.807 1240.8 310.387 1242.97 315.094C1261.23 354.385 1280.15 394.989 1283.93 444.047C1284.54 451.989 1282.81 461.595 1281.14 470.85C1277.27 492.625 1273.2 515.169 1297.57 521.285Z" fill="#32353E"/>
<path d="M623.666 982.437C615.565 994.669 605.478 1009.85 608.968 1020.35C610.377 1024.64 613.964 1027.84 619.599 1029.86C620.656 1030.25 621.841 1030.44 623.09 1030.44C635.451 1030.44 655.048 1011.32 672.34 994.477C683.324 983.75 693.731 973.63 699.975 970.781C729.82 957.235 771.001 950.799 807.314 945.099C821.66 942.857 835.205 940.744 847.694 938.278C876.194 932.706 903.701 929.856 929.479 929.856C1013.83 929.856 1084.63 960.213 1139.96 1020.06C1146.17 1026.79 1155.17 1030.18 1166.8 1030.18C1202.92 1030.18 1264.88 995.021 1308.49 929.856C1334.59 890.885 1372.51 811.182 1333.09 715.467C1317.3 677.105 1293.83 659.236 1259.21 659.236C1232.89 659.236 1202.85 668.907 1168.08 680.115C1125.29 693.916 1076.78 709.543 1024.58 709.543C983.948 709.543 946.642 700.161 910.521 680.915C799.084 621.482 795.85 513.087 805.456 425.282C809.203 391.146 803.119 364.12 787.908 347.116C777.149 335.107 762.515 328.767 745.543 328.767C713.393 328.767 673.269 353.712 658.795 401.426C645.185 446.321 677.464 487.149 714.834 534.414C757.007 587.699 804.784 648.093 795.498 728.693C790.886 768.656 776.316 806.987 756.462 831.26C741.412 849.672 728.123 851.306 714.033 853.035C703.274 854.348 692.162 855.725 679.129 863.986C669.17 870.295 666.064 881.054 662.765 892.422C660.492 900.268 658.122 908.369 653.351 915.03C650.725 918.68 646.146 919.481 641.343 920.313C634.97 921.434 627.733 922.683 623.923 930.913C621.265 936.645 624.787 943.401 628.181 949.934C631.031 955.378 633.945 961.014 633.081 965.689C632.28 969.468 628.278 975.488 623.666 982.437ZM629.719 949.101C626.388 942.697 623.218 936.613 625.492 931.713C628.918 924.348 635.354 923.228 641.567 922.139C646.562 921.274 651.718 920.378 654.76 916.119C659.723 909.202 662.125 900.94 664.463 892.966C667.665 881.919 670.707 871.512 680.057 865.588C692.738 857.55 703.658 856.205 714.193 854.892C728.667 853.099 742.309 851.434 757.839 832.445C777.885 807.915 792.648 769.201 797.291 728.917C806.641 647.548 758.608 586.834 716.243 533.261C679.193 486.412 647.171 445.936 660.524 401.97C674.742 355.121 714.033 330.624 745.511 330.624C761.938 330.624 776.124 336.741 786.499 348.333C801.358 364.92 807.282 391.435 803.599 425.058C793.928 513.439 797.227 622.571 909.625 682.516C946.034 701.922 983.628 711.369 1024.58 711.369C1077.07 711.369 1125.71 695.678 1168.62 681.844C1203.24 670.668 1233.15 661.03 1259.18 661.03C1293.41 661.03 1315.67 678.033 1331.36 716.108C1370.46 811.054 1332.83 890.085 1306.96 928.767C1265.23 991.051 1202.92 1028.29 1166.76 1028.29C1155.72 1028.29 1147.13 1025.09 1141.31 1018.78C1085.62 958.548 1014.34 927.999 929.479 927.999C903.605 927.999 875.969 930.849 847.342 936.453C834.885 938.886 821.339 941 807.026 943.241C770.584 948.941 729.308 955.41 699.207 969.051C692.674 972.029 682.651 981.796 671.059 993.1C654.023 1009.72 634.714 1028.55 623.09 1028.55C622.065 1028.55 621.105 1028.39 620.24 1028.1C615.116 1026.24 612.01 1023.52 610.761 1019.74C607.559 1010.1 617.358 995.31 625.235 983.429C629.975 976.288 634.042 970.14 634.81 966.041C635.771 960.758 632.697 954.833 629.719 949.101Z" fill="#32353E"/>
<path d="M424.87 987.721C439.312 974.656 462.176 963.224 488.658 949.967C507.135 940.712 531.984 917.977 530.479 899.372C529.679 889.221 521.481 881.599 506.174 876.796C500.154 874.907 493.558 873.978 486.033 873.978C466.435 873.978 444.34 880.479 424.87 886.243C415.968 888.868 407.578 891.334 399.893 893.095C335.464 907.73 296.557 916.568 261.685 916.568C230.815 916.568 203.757 909.651 168.276 892.711C134.14 876.412 109.387 861.073 89.5013 848.777C60.233 830.652 46.5916 822.646 29.2996 822.646C21.23 822.646 11.5913 824.44 0.03125 828.122V829.787C11.6233 826.073 21.294 824.216 29.2996 824.216C46.1753 824.216 59.6886 832.157 88.7008 850.122C108.619 862.45 133.372 877.789 167.604 894.152C203.308 911.22 230.591 918.169 261.717 918.169C296.749 918.169 335.72 909.331 400.277 894.664C407.994 892.903 416.416 890.438 425.35 887.812C444.724 882.112 466.691 875.643 486.065 875.643C493.43 875.643 499.866 876.54 505.726 878.397C520.36 883.008 528.142 890.149 528.91 899.596C530.351 917.496 506.046 939.56 487.954 948.622C461.375 961.943 438.415 973.439 423.813 986.632C379.751 1026.47 386.86 1078.47 400.213 1125.16H401.878C388.557 1078.7 381.352 1027.04 424.87 987.721Z" fill="#32353E"/>
<path d="M1397.61 763.885C1401.74 766.511 1408.4 767.952 1416.44 767.952C1423.58 767.952 1432.03 766.767 1441.03 764.014V761.676C1432.03 764.494 1423.58 765.711 1416.44 765.711C1408.95 765.711 1402.54 764.366 1398.83 761.996C1380 749.988 1371.7 728.757 1362.9 706.31C1355.31 686.936 1347.43 666.89 1332.19 652.768L1332.16 652.096L1331.48 652.128C1313.94 636.661 1290.34 629.136 1259.27 629.136C1228.98 629.136 1197.12 636.405 1171.53 642.233C1154.05 646.236 1138.94 649.662 1129.2 649.662C1123.5 649.662 1120.01 648.477 1118.57 646.076C1116.65 642.874 1118.09 636.821 1122.83 628.175C1144.96 587.763 1189.66 491.44 1186.55 451.573C1184.12 420.127 1169 387.624 1154.37 356.211C1133.2 310.707 1111.33 263.698 1127.25 218.739C1145.44 167.472 1225.52 75.824 1282.49 68.0747C1285.82 67.6263 1289.41 67.4022 1293.15 67.4022C1330.24 67.4022 1384.45 89.4975 1440.97 121.488V119.086C1384.42 87.1599 1330.24 65.1606 1293.15 65.1606C1289.31 65.1606 1285.63 65.3848 1282.2 65.8651C1224.5 73.7426 1143.48 166.255 1125.13 218.003C1108.9 263.794 1130.99 311.251 1152.32 357.171C1166.86 388.393 1181.88 420.703 1184.28 451.765C1187.03 487.31 1148.06 577.388 1120.84 627.119C1115.56 636.789 1114.18 643.194 1116.62 647.261C1118.47 650.431 1122.6 651.936 1129.17 651.936C1139.16 651.936 1154.37 648.477 1171.98 644.443C1197.47 638.615 1229.21 631.378 1259.24 631.378C1289.92 631.378 1313.17 638.807 1330.3 654.081C1345.38 667.883 1353.2 687.833 1360.79 707.11C1369.75 729.942 1378.21 751.493 1397.61 763.885Z" fill="#32353E"/>
<path d="M1378.94 910.099C1370.49 929.377 1362.48 947.597 1352.36 963.384C1293.34 1055.19 1227.54 1070.66 1157.86 1087.02C1152.54 1088.27 1146.97 1089.46 1141.59 1090.61C1118.38 1095.54 1094.39 1100.66 1074.83 1113.34C1068.71 1117.31 1064.03 1121.22 1060.77 1125.1H1062.85C1065.96 1121.7 1070.21 1118.24 1075.69 1114.69C1095 1102.17 1118.86 1097.08 1141.91 1092.18C1147.32 1091.02 1152.9 1089.84 1158.21 1088.59C1228.18 1072.13 1294.31 1056.6 1353.67 964.249C1363.89 948.366 1371.9 930.113 1380.41 910.708C1393.89 879.966 1409.2 845.158 1430.3 833.502C1434.05 832.061 1437.61 830.844 1441.03 829.755V828.09C1437.41 829.243 1433.63 830.556 1429.66 832.061C1407.95 843.973 1392.55 879.07 1378.94 910.099Z" fill="#32353E"/>
<path d="M1046.04 1090.32C1083.79 1073.48 1117.93 1065.47 1150.98 1057.69C1217.33 1042.09 1274.61 1028.61 1327.03 947.085C1335.87 933.347 1343.4 916.183 1351.37 897.995C1368.02 860.016 1385.25 820.757 1417.24 804.554C1425.85 801.224 1433.7 798.63 1441.03 796.708V794.403C1433.41 796.388 1425.21 799.078 1416.22 802.569C1383.55 819.124 1366.16 858.768 1349.32 897.098C1341.38 915.191 1333.89 932.291 1325.14 945.868C1273.17 1026.66 1216.3 1040.05 1150.43 1055.51C1117.32 1063.29 1083.06 1071.36 1045.11 1088.27C1020.42 1099.29 1003.93 1112.03 997.076 1125.06H999.574C1006.46 1112.86 1022.41 1100.86 1046.04 1090.32Z" fill="#32353E"/>
<path d="M875.776 835.583C877.089 836.32 878.498 836.672 879.971 836.672C885.671 836.672 891.242 831.1 896.206 826.201C899.056 823.351 901.778 820.661 903.987 819.604C906.869 818.227 909.559 817.555 912.217 817.555C917.309 817.555 921.632 819.989 926.627 822.806C928.42 823.799 930.278 824.856 932.263 825.849C937.034 828.218 941.709 829.339 946.545 829.339C951.412 829.339 955.895 828.218 960.667 827.065C965.63 825.849 970.754 824.6 976.742 824.472H977.51C989.679 824.472 1000.82 830.78 1011.61 836.864C1022.34 842.916 1033.42 849.193 1045.49 849.193C1051.29 849.193 1056.86 847.784 1062.5 844.934C1067.01 842.628 1070.47 839.81 1073.51 837.281C1078.48 833.182 1082.77 829.659 1090 829.659C1092.12 829.659 1094.39 829.947 1096.92 830.556C1117.48 835.423 1126.54 854.316 1135.28 872.601C1139.38 881.183 1143.61 890.021 1148.96 897.098C1159.68 911.284 1173.52 919.097 1187.93 919.097H1188.66C1203.11 918.841 1216.97 910.868 1227.73 896.682C1242.3 877.436 1268.78 814.705 1257.8 783.483C1254.57 774.261 1248.32 768.433 1239.29 766.159C1236.09 765.359 1233.14 764.942 1230.23 764.942C1220.88 764.942 1213.87 769.137 1205.76 773.973C1203.94 775.061 1202.05 776.182 1200.06 777.303C1183.64 786.589 1167.37 788.511 1150.11 790.56C1143.35 791.361 1136.34 792.193 1129.26 793.474C1121.39 794.915 1114.28 797.669 1107.42 800.327C1098.39 803.817 1089.88 807.116 1080.49 807.116C1074.15 807.116 1067.97 805.579 1061.57 802.44C1048.38 795.94 1034 789.952 1018.11 789.952C1012.86 789.952 1007.68 790.56 1002.33 791.841C999.894 792.417 997.492 793.026 995.155 793.634C985.964 795.972 977.286 798.181 968.48 798.181C961.339 798.181 954.614 796.708 947.954 793.634L945.136 792.321C933.032 786.717 920.511 780.953 907.734 780.953C900.657 780.953 894.157 782.683 887.784 786.205C879.779 790.656 869.051 809.357 869.051 822.39C869.019 828.603 871.357 833.15 875.776 835.583ZM888.521 787.646C894.637 784.252 900.913 782.587 907.702 782.587C920.159 782.587 932.487 788.287 944.431 793.826L947.249 795.139C954.102 798.277 961.051 799.815 968.448 799.815C977.446 799.815 986.22 797.573 995.507 795.203C997.844 794.595 1000.21 793.986 1002.65 793.41C1007.87 792.161 1012.89 791.553 1018.05 791.553C1033.61 791.553 1047.8 797.477 1060.8 803.881C1067.43 807.148 1073.83 808.717 1080.43 808.717C1090.1 808.717 1098.78 805.354 1107.94 801.8C1114.73 799.174 1121.74 796.452 1129.49 795.011C1136.53 793.73 1143.48 792.898 1150.24 792.097C1167.63 790.048 1184.09 788.094 1200.77 778.648C1202.75 777.527 1204.68 776.374 1206.5 775.285C1214.41 770.578 1221.23 766.479 1230.13 766.479C1232.89 766.479 1235.74 766.864 1238.78 767.632C1247.27 769.778 1253.13 775.254 1256.17 783.932C1266.96 814.641 1240.73 876.604 1226.32 895.625C1215.88 909.395 1202.47 917.144 1188.5 917.4H1187.8C1173.9 917.4 1160.52 909.811 1150.11 896.041C1144.86 889.093 1140.86 880.703 1136.6 871.833C1127.69 853.196 1118.47 833.95 1097.15 828.923C1094.49 828.282 1092.12 827.994 1089.88 827.994C1082.06 827.994 1077.58 831.709 1072.36 835.968C1069.22 838.529 1066.02 841.187 1061.63 843.429C1056.22 846.183 1050.91 847.528 1045.37 847.528C1033.71 847.528 1023.3 841.636 1012.29 835.391C1001.33 829.179 989.999 822.775 977.414 822.775H976.614C970.433 822.903 965.246 824.183 960.186 825.432C955.511 826.585 951.092 827.674 946.449 827.674C941.806 827.674 937.483 826.617 932.871 824.344C930.918 823.383 929.093 822.358 927.331 821.366C922.336 818.548 917.629 815.922 912.153 815.922C909.239 815.922 906.325 816.658 903.219 818.131C900.753 819.316 897.967 822.07 895.021 825.016C890.314 829.691 884.966 835.007 879.939 835.007C878.754 835.007 877.633 834.719 876.544 834.11C872.606 831.933 870.588 827.994 870.588 822.358C870.588 809.197 881.764 791.393 888.521 787.646Z" fill="#32353E"/>
<path d="M669.232 948.782C671.282 949.326 674.964 949.582 679.64 949.582C689.374 949.582 725.527 948.141 781.919 929.504C829.055 913.942 884.198 905.36 937.13 905.36C1024.29 905.36 1082.19 918.425 1156.77 989.802C1162.05 994.862 1169.16 997.424 1177.84 997.424C1210.25 997.424 1259.27 962.135 1289.44 917.08C1313.01 881.887 1347.27 810.03 1311.89 724.114C1296.64 687.128 1277.53 682.037 1259.15 682.037C1236.41 682.037 1207.97 691.195 1175.02 701.826C1130.64 716.14 1080.3 732.344 1024.52 732.344C980.04 732.344 939.212 722.096 899.696 701.026C774.778 634.42 773.08 510.301 782.687 422.753C785.665 395.63 781.438 374.175 770.839 362.359C764.466 355.25 755.916 351.631 745.477 351.631C721.749 351.631 691.84 371.005 680.6 408.054C670.449 441.518 699.301 477.991 732.7 520.228C775.386 574.186 828.511 641.336 818.136 731.287C815.158 757.065 808.305 781.562 797.705 804.105C780.83 840.002 758.542 870.455 731.419 894.632C713.519 910.579 695.555 921.755 682.458 929.889C670.513 937.318 663.308 941.769 663.821 945.195C664.045 946.764 665.774 947.885 669.232 948.782ZM682.97 930.753C696.099 922.588 714.095 911.412 732.06 895.401C759.279 871.128 781.662 840.579 798.602 804.586C809.266 781.946 816.15 757.321 819.128 731.479C829.536 641.112 776.283 573.77 733.469 519.684C700.23 477.671 671.538 441.39 681.529 408.407C692.641 371.805 722.101 352.656 745.477 352.656C755.628 352.656 763.922 356.146 770.134 363.063C780.574 374.687 784.672 395.886 781.758 422.721C772.152 510.558 773.849 635.06 899.28 701.954C938.956 723.121 979.944 733.4 1024.55 733.4C1080.49 733.4 1130.9 717.165 1175.38 702.819C1208.23 692.22 1236.57 683.093 1259.18 683.093C1277.24 683.093 1296 688.121 1311.02 724.562C1346.21 810.061 1312.11 881.599 1288.67 916.631C1259.18 960.694 1209.45 996.527 1177.87 996.527C1169.42 996.527 1162.57 994.061 1157.44 989.162C1121.29 954.578 1087.67 932.579 1051.58 919.93C1020.52 909.074 986.284 904.431 937.098 904.431C884.037 904.431 828.799 913.013 781.566 928.608C725.335 947.181 689.31 948.622 679.608 948.622C675.028 948.622 671.41 948.333 669.456 947.821C666.51 947.053 664.909 946.124 664.749 945.035C664.365 942.313 672.146 937.446 682.97 930.753Z" fill="#32353E"/>
<path d="M745.477 373.759C728.313 373.759 709.452 391.115 703.272 406.71C699.173 417.053 702.311 434.697 711.63 453.974C720.404 472.131 732.124 486.093 740.77 488.687C742.083 489.071 743.428 489.295 744.708 489.295C746.149 489.295 747.591 489.039 748.967 488.558C760.111 484.684 759.855 477.831 759.311 462.845C758.958 453.622 758.51 441.005 760.399 423.681C762.961 400.401 759.311 382.661 754.379 377.185C752.81 375.392 750.633 373.759 745.477 373.759ZM758.798 423.489C756.877 440.941 757.357 453.622 757.71 462.909C758.254 477.927 758.478 483.563 748.423 487.053C746.085 487.854 743.652 487.918 741.186 487.181C732.956 484.716 721.62 471.106 713.039 453.302C703.912 434.441 700.806 417.245 704.745 407.318C710.733 392.204 728.922 375.392 745.477 375.36C749.992 375.36 751.849 376.737 753.194 378.21C757.87 383.462 761.296 400.689 758.798 423.489Z" fill="#32353E"/>
<path d="M1133.11 837.825C1136.6 839.234 1138.65 840.387 1141.24 841.828C1142.27 842.404 1143.35 843.012 1144.67 843.717C1157.86 850.794 1168.91 857.999 1176.66 864.531C1181.04 868.246 1184.63 870.039 1187.61 870.039C1192 870.039 1194.56 866.325 1196.64 862.802C1204.39 849.609 1207.11 839.426 1210.31 821.558C1210.7 819.38 1210.76 816.306 1208.94 814.128C1206.63 811.374 1202.05 810.894 1195.33 812.751C1175.02 818.387 1161.35 820.949 1144.03 824.247C1140.99 824.824 1137.88 825.4 1134.58 826.041C1131.25 826.681 1128.72 829.051 1128.43 831.773C1128.3 832.989 1128.53 835.967 1133.11 837.825ZM1134.9 827.866C1138.17 827.225 1141.31 826.649 1144.32 826.073C1161.67 822.774 1175.41 820.181 1195.78 814.545C1198.3 813.84 1200.48 813.488 1202.31 813.488C1204.71 813.488 1206.47 814.096 1207.46 815.313C1208.84 816.946 1208.74 819.444 1208.42 821.237C1205.29 838.85 1202.6 848.904 1194.97 861.873C1192.73 865.652 1190.62 868.182 1187.55 868.182C1185.02 868.182 1181.81 866.517 1177.78 863.122C1169.93 856.494 1158.76 849.225 1145.47 842.084C1144.19 841.379 1143.07 840.771 1142.07 840.194C1139.42 838.721 1137.33 837.537 1133.72 836.096C1131.31 835.135 1130.03 833.598 1130.19 831.933C1130.45 830.043 1132.4 828.346 1134.9 827.866Z" fill="#32353E"/>
<path d="M839.013 871.544C841.959 871.544 845.578 871.288 850.093 870.776C852.046 870.551 898.511 865.364 948.369 865.364C967.807 865.364 985.131 866.164 999.861 867.765C1073.48 875.675 1137.2 910.803 1167.69 942.089C1173.29 947.853 1179.99 950.767 1187.61 950.767C1204.68 950.767 1225.68 935.909 1245.28 910.035C1279.61 864.691 1289.98 777.879 1272.98 743.711C1268.46 734.649 1262.16 729.846 1254.73 729.846C1254.12 729.846 1253.48 729.878 1252.84 729.942C1239.39 731.319 1220.69 736.795 1197.05 743.743C1152.77 756.744 1092.12 774.517 1026.34 775.573C970.144 776.502 905.908 754.247 884.069 743.615C876.928 740.125 872.316 738.588 869.114 738.588C862.582 738.588 862.326 744.768 861.845 755.047C861.461 763.213 860.981 774.389 856.978 787.134C849.741 810.318 841.543 827.898 835.555 840.739C828.926 854.989 824.892 863.571 827.742 868.054C829.311 870.455 832.801 871.544 839.013 871.544ZM836.42 841.091C842.408 828.218 850.637 810.606 857.874 787.358C861.877 774.485 862.39 763.213 862.774 755.015C863.222 744.992 863.478 739.484 869.082 739.484C872.092 739.484 876.703 741.054 883.62 744.416C905.107 754.887 967.454 776.502 1023.05 776.502C1024.13 776.502 1025.25 776.502 1026.34 776.47C1092.25 775.413 1152.96 757.609 1197.31 744.576C1220.91 737.659 1239.55 732.183 1252.93 730.806C1260.87 730.006 1267.34 734.457 1272.08 744.032C1288.96 777.975 1278.61 864.243 1244.48 909.33C1225.07 934.98 1204.32 949.678 1187.58 949.678C1180.24 949.678 1173.77 946.86 1168.36 941.288C1137.75 909.875 1073.83 874.65 999.957 866.709C985.195 865.108 967.839 864.307 948.369 864.307C898.479 864.307 851.95 869.527 849.997 869.719C845.514 870.231 841.927 870.487 839.013 870.487C833.217 870.487 829.887 869.495 828.542 867.381C826.012 863.474 829.919 855.053 836.42 841.091Z" fill="#32353E"/>
<path d="M767.349 908.242C770.327 908.242 774.138 907.473 778.108 906.096C822.94 890.533 874.944 882.976 937.099 882.976C1014.5 882.976 1091.19 890.053 1178.32 975.744C1180.82 978.21 1184.12 979.459 1188.09 979.459C1212.46 979.459 1257.48 932.771 1270.83 904.623C1272.05 902.061 1273.36 899.339 1274.77 896.489C1291.78 861.649 1320.21 803.305 1291.14 732.728C1279.51 704.516 1268.69 704.516 1259.11 704.516C1239.9 704.516 1213 713.194 1181.88 723.217C1135.92 738.043 1083.82 754.823 1024.52 754.823C973.764 754.823 932.712 745.505 891.339 724.594C884.935 721.36 878.786 717.805 873.343 714.699C862.455 708.455 853.873 703.523 848.333 703.523C844.01 703.523 841.897 706.534 841.801 712.746C841.801 713.739 841.929 715.308 842.153 717.517C848.077 778.295 824.541 835.039 772.216 886.178C763.09 895.112 759.215 901.517 760.72 905.231C761.553 907.185 763.827 908.242 767.349 908.242ZM772.889 886.851C806.544 853.964 828.608 818.291 838.438 780.793C846.348 750.66 844.074 727.348 843.114 717.421C842.889 715.244 842.761 713.674 842.761 712.746C842.857 705.349 845.996 704.484 848.333 704.484C853.617 704.484 862.551 709.608 872.862 715.532C878.306 718.67 884.486 722.192 890.923 725.459C932.424 746.433 973.604 755.816 1024.52 755.816C1083.98 755.816 1136.15 739.004 1182.2 724.146C1213.26 714.123 1240.09 705.477 1259.15 705.477C1268.4 705.477 1278.9 705.477 1290.27 733.08C1319.16 803.241 1290.85 861.329 1273.91 896.041C1272.5 898.923 1271.19 901.613 1269.97 904.207C1256.71 932.162 1212.14 978.498 1188.09 978.498C1184.37 978.498 1181.3 977.346 1178.99 975.072C1138.52 935.268 1096.6 909.202 1050.91 895.369C1010.17 883.04 972.355 882.015 937.099 882.015C874.848 882.015 822.747 889.605 777.788 905.199C773.914 906.544 770.199 907.281 767.349 907.281C765.172 907.281 762.418 906.865 761.617 904.879C760.881 902.99 761.329 898.154 772.889 886.851Z" fill="#32353E"/>
<path d="M566.538 580.174C564.392 578.221 562.471 577.292 560.678 577.292C556.194 577.292 553.056 582.992 548.317 591.606C543.386 600.54 536.661 612.773 525.005 625.165L521.578 628.784C508.225 642.938 502.109 649.406 503.614 652.896C504.286 654.466 506.368 655.17 510.307 655.17C513.669 655.17 518.6 654.69 526.83 653.537C530.224 653.057 533.683 652.832 537.109 652.832C564.872 652.832 588.024 668.395 604.932 679.763C614.827 686.424 622.64 691.675 628.244 691.675C630.582 691.675 632.503 690.747 633.944 688.889C651.685 666.154 589.658 601.149 566.538 580.174ZM632.696 687.929C631.575 689.402 630.102 690.106 628.244 690.106C623.121 690.106 615.5 684.983 605.829 678.45C588.761 666.954 565.385 651.231 537.109 651.231C533.619 651.231 530.064 651.488 526.606 651.968C518.472 653.121 513.573 653.601 510.307 653.601C507.232 653.601 505.471 653.153 505.087 652.288C503.998 649.79 511.459 641.881 522.763 629.904L526.19 626.286C537.974 613.765 544.795 601.405 549.726 592.406C554.209 584.273 557.155 578.925 560.71 578.925C562.086 578.925 563.656 579.726 565.481 581.391C594.173 607.425 648.418 667.723 632.696 687.929Z" fill="#32353E"/>
<path d="M566.986 606.88C555.778 606.88 541.336 624.556 541.272 632.946C541.24 636.372 543.385 638.39 547.132 638.454C563.655 638.742 581.107 649.213 593.852 656.867C601.41 661.382 606.853 664.68 610.088 664.68C611.112 664.68 611.945 664.36 612.521 663.719C613.258 662.919 613.546 661.702 613.418 660.005C612.233 644.602 582.997 613.765 571.149 607.841C569.868 607.2 568.491 606.88 566.986 606.88ZM611.176 660.165C611.272 661.51 611.016 662.022 610.856 662.182C610.792 662.246 610.632 662.438 610.056 662.438C607.43 662.438 601.666 658.98 594.973 654.945C582.004 647.164 564.264 636.533 547.164 636.244C544.634 636.212 543.481 635.188 543.513 632.978C543.577 625.485 556.995 609.121 566.986 609.121C568.138 609.121 569.195 609.346 570.124 609.826C582.901 616.23 610.12 646.203 611.176 660.165Z" fill="#32353E"/>
<path d="M527.375 316.438C530.129 316.438 532.338 312.532 534.484 303.79C542.521 271.095 569.068 227.833 610.312 204.841C652.037 181.561 679.833 175.509 694.787 172.274C702.216 170.673 705.931 169.841 706.827 167.887C707.18 167.151 707.051 166.254 706.507 165.23C703.625 159.978 651.941 131.062 577.618 125.042L574.479 124.785C567.787 124.241 561.991 123.761 556.451 123.761C537.045 123.761 521.419 129.173 484.913 160.01C479.149 164.877 473.257 169.392 467.557 173.779C449.913 187.325 434.67 198.981 435.663 212.27C436.432 222.453 446.519 232.572 467.397 244.068C490.517 256.813 504.607 282.111 513.925 298.826C519.785 309.426 523.692 316.438 527.375 316.438ZM467.781 243.236C447.479 232.06 437.264 221.909 436.528 212.206C435.567 199.461 450.618 187.933 468.07 174.58C473.77 170.193 479.694 165.678 485.458 160.778C521.707 130.133 537.206 124.753 556.355 124.753C561.863 124.753 567.627 125.234 574.319 125.778L577.458 126.034C650.084 131.894 702.857 160.714 705.578 165.71C706.123 166.735 706.027 167.215 705.867 167.503C705.162 169.008 701.159 169.905 694.499 171.346C679.512 174.612 651.621 180.664 609.768 204.008C568.299 227.16 541.561 270.711 533.491 303.598C531.506 311.603 529.488 315.51 527.311 315.51C524.173 315.51 519.978 307.953 514.63 298.41C505.343 281.534 491.158 256.109 467.781 243.236Z" fill="#32353E"/>
<path d="M533.427 371.421C536.213 371.421 538.135 368.091 539.48 360.918C547.805 316.823 565.834 254.38 626.068 221.077C644.673 210.765 665.711 202.632 690.336 196.131C695.3 194.818 700.583 191.264 705.739 187.806C712.368 183.322 719.252 178.711 725.593 178.711C726.329 178.711 727.066 178.775 727.738 178.903C731.293 179.544 733.951 181.593 736.512 183.579C739.394 185.82 742.116 187.934 745.895 187.934C747.304 187.934 748.777 187.645 750.346 187.005C753.036 185.948 754.445 183.867 755.79 181.849C757.711 178.999 759.504 176.31 764.948 176.79C770.36 177.238 773.274 181.369 776.348 185.724C778.493 188.766 780.735 191.936 783.905 193.698C786.211 194.979 790.374 196.355 794.056 196.355C796.618 196.355 798.443 195.683 799.468 194.338C800.429 193.057 800.621 191.232 799.98 188.958C797.867 181.401 781.696 174.356 770.968 169.681C767.798 168.304 765.076 167.119 763.315 166.191C747.368 157.737 731.453 150.596 718.004 144.704C661.26 119.886 609.512 104.74 559.846 98.3995C554.242 97.695 549.407 97.3428 545.02 97.3428C520.555 97.3428 501.597 108.038 463.875 143.135C454.621 151.749 445.078 159.146 435.888 166.287C415.265 182.298 398.966 194.946 399.35 210.862C399.671 223.414 410.558 236.8 433.678 252.971C470.888 279.005 495.577 318.552 511.941 344.714C521.931 360.79 528.592 371.421 533.427 371.421ZM434.159 252.106C411.327 236.127 400.535 222.966 400.247 210.733C399.863 195.299 416.002 182.778 436.432 166.927C445.655 159.754 455.197 152.357 464.484 143.711C502.014 108.807 520.811 98.1754 544.987 98.1754C549.342 98.1754 554.146 98.5276 559.686 99.2321C609.256 105.54 660.908 120.687 717.555 145.472C731.005 151.364 746.888 158.505 762.803 166.927C764.596 167.888 767.35 169.073 770.52 170.45C781.055 175.029 797.002 181.978 798.988 189.086C799.532 191.072 799.436 192.609 798.635 193.634C797.611 194.979 795.529 195.267 793.992 195.267C790.662 195.267 786.595 193.986 784.322 192.705C781.344 191.072 779.198 187.998 777.085 185.02C774.01 180.665 770.84 176.181 764.98 175.669C758.96 175.125 756.943 178.231 754.957 181.177C753.612 183.162 752.363 185.02 749.962 185.98C748.489 186.557 747.176 186.845 745.863 186.845C742.437 186.845 739.811 184.827 737.057 182.714C734.399 180.665 731.645 178.519 727.866 177.879C727.13 177.751 726.329 177.687 725.561 177.687C718.932 177.687 711.951 182.394 705.195 186.941C699.911 190.495 694.884 193.89 690.112 195.139C665.391 201.639 644.32 209.837 625.619 220.18C565.033 253.675 546.909 316.407 538.551 360.694C537.302 367.226 535.637 370.428 533.427 370.428C529.104 370.428 522.22 359.381 512.677 344.106C496.282 317.912 471.497 278.268 434.159 252.106Z" fill="#32353E"/>
<path d="M651.716 773.204C673.619 770.706 694.241 755.656 704.296 734.873C713.455 715.884 718.418 683.67 689.982 638.07C677.782 618.472 664.461 598.715 651.588 579.597C614.762 524.935 579.986 473.284 565.608 421.472C549.373 362.871 562.406 314.517 606.66 269.334C644.991 230.203 695.618 207.755 745.605 207.755C783.167 207.755 816.694 220.981 839.974 244.965C865.56 271.319 878.369 309.906 876.96 356.499C876.64 367.322 876.127 378.498 875.583 390.346C873.662 432.423 871.452 480.104 878.241 519.78C886.054 565.412 904.595 593.591 934.888 605.952C951.123 612.58 966.494 615.911 980.616 615.911C1006.27 615.911 1028.1 604.703 1043.76 583.536C1070.37 547.511 1076.75 485.836 1059.65 430.054C1022.92 310.355 934.6 238.913 804.045 162.38C704.873 104.26 621.102 86.3271 545.37 75.5996C539.734 74.7991 534.354 74.3828 529.391 74.3828C497.753 74.3828 482.702 90.49 463.649 110.888C456.316 118.734 448.759 126.803 439.344 135.097C428.521 144.608 419.106 150.404 410.781 155.527C397.427 163.725 385.931 170.802 373.218 189.759C348.049 227.385 381.736 250.473 417.377 274.906C436.206 287.811 455.708 301.164 466.147 316.983C531.728 416.348 505.278 522.342 458.622 588.404C445.3 607.297 425.831 625.133 405.209 643.994C380.007 667.082 353.941 690.939 339.019 717.613C332.614 729.077 330.789 736.859 333.447 741.406C335.4 744.736 339.723 746.337 346.608 746.337C358.905 746.337 378.438 741.246 401.078 735.321C432.812 727.06 472.295 716.749 507.199 716.749C525.676 716.749 541.527 719.695 554.304 725.491C567.017 731.287 577.776 739.644 588.184 747.746C605.316 761.067 621.455 773.62 644.319 773.62C646.784 773.652 649.25 773.492 651.716 773.204ZM554.752 724.626C541.687 718.67 526.157 715.788 507.263 715.788C472.263 715.788 432.684 726.099 400.918 734.393C378.342 740.285 358.873 745.344 346.672 745.376C340.14 745.376 336.105 743.903 334.311 740.893C331.846 736.666 333.671 729.205 339.883 718.061C354.71 691.547 380.712 667.723 405.881 644.699C426.535 625.773 446.037 607.937 459.422 588.948C486.769 550.233 502.908 506.074 506.079 461.243C509.729 410.008 496.568 361.27 466.947 316.439C456.412 300.492 436.847 287.074 417.921 274.105C382.665 249.929 349.362 227.129 374.019 190.271C386.572 171.474 398.036 164.461 411.261 156.328C419.619 151.204 429.065 145.376 439.953 135.801C449.399 127.508 456.989 119.374 464.322 111.529C483.215 91.3226 498.169 75.3435 529.359 75.3435C534.258 75.3435 539.606 75.7598 545.21 76.5283C620.846 87.2557 704.52 105.156 803.533 163.18C933.896 239.553 1022.05 310.899 1058.69 430.278C1075.72 485.804 1069.41 547.127 1042.96 582.928C1027.5 603.838 1005.95 614.918 980.584 614.918C966.59 614.918 951.348 611.588 935.24 605.023C905.268 592.791 886.919 564.867 879.17 519.588C872.381 480.008 874.59 432.359 876.512 390.346C877.056 378.498 877.568 367.322 877.889 356.499C879.298 309.618 866.425 270.807 840.647 244.261C817.175 220.084 783.423 206.763 745.605 206.763C695.362 206.763 644.479 229.306 605.956 268.63C582.452 292.646 567.946 317.399 561.573 344.362C555.905 368.443 556.898 393.708 564.647 421.696C579.057 473.668 613.865 525.352 650.755 580.11C663.628 599.227 676.949 618.985 689.15 638.55C717.361 683.798 712.462 715.66 703.4 734.425C693.505 754.919 673.171 769.777 651.588 772.211C649.154 772.499 646.72 772.627 644.351 772.627C621.839 772.627 605.796 760.139 588.824 746.946C578.385 738.876 567.561 730.454 554.752 724.626Z" fill="#32353E"/>
<path d="M672.722 733.496C681.112 727.38 686.044 718.83 687.324 708.103C691.135 676.625 663.212 630.673 638.138 600.924C606.853 563.778 575.791 524.135 560.58 485.772C559.844 483.883 558.691 478.535 557.25 471.779C552.351 448.979 544.185 410.84 532.337 410.84C531.248 410.84 530.127 411.161 529.039 411.833C524.107 414.747 522.666 420.511 524.587 429.381C526.157 436.65 529.775 445.04 532.977 452.437C536.372 460.251 539.286 467.007 539.222 470.85C539.094 480.745 534.482 485.1 529.999 489.327C526.509 492.625 522.922 496.019 521.609 501.944C519.944 509.565 523.082 515.297 526.125 520.837C528.942 525.96 531.824 531.244 530.928 538.065C529.231 550.585 489.587 595.705 454.651 635.54C425.703 668.491 400.726 696.959 401.142 702.403C401.174 702.819 401.334 703.139 401.59 703.363C403.992 705.349 408.315 706.309 414.879 706.309C425.223 706.309 439.601 704.004 456.284 701.314C476.49 698.08 499.386 694.397 519.272 694.397C534.803 694.397 546.427 696.607 554.784 701.154C559.332 703.619 564.423 706.566 569.771 709.704C593.659 723.569 623.376 740.861 648.546 740.861C657.928 740.829 666.062 738.364 672.722 733.496ZM555.297 700.289C546.779 695.678 534.995 693.404 519.336 693.404C499.386 693.404 476.458 697.087 456.188 700.321C439.568 702.979 425.191 705.285 414.943 705.285C408.635 705.285 404.472 704.388 402.263 702.563C402.231 702.531 402.167 702.467 402.135 702.275C401.75 697.215 427.816 667.562 455.387 636.117C490.452 596.185 530.159 550.938 531.921 538.161C532.881 531.02 529.903 525.608 527.021 520.356C523.915 514.72 521.001 509.405 522.602 502.136C523.819 496.5 527.181 493.362 530.704 490.031C535.315 485.676 540.086 481.161 540.214 470.882C540.278 466.847 537.3 459.994 533.874 452.053C530.704 444.688 527.085 436.362 525.516 429.189C523.691 420.767 525.004 415.355 529.519 412.666C530.448 412.121 531.408 411.833 532.337 411.833C543.417 411.833 551.806 450.964 556.29 472.003C557.795 479.08 558.883 484.171 559.684 486.157C574.926 524.647 606.052 564.355 637.402 601.565C662.347 631.185 690.142 676.817 686.364 708.007C685.083 718.478 680.312 726.804 672.146 732.76C665.645 737.499 657.736 739.869 648.61 739.869C623.728 739.869 594.108 722.673 570.315 708.839C564.967 705.701 559.876 702.755 555.297 700.289Z" fill="#32353E"/>
<path d="M661.771 693.308C664.621 666.922 636.377 625.549 622.255 609.634C597.887 582.191 580.883 558.783 569.643 543.316C558.499 527.977 552.351 519.492 548.38 519.492C545.658 519.492 544.153 523.014 543.225 531.692C536.244 596.889 494.071 632.21 468.869 653.281C457.821 662.535 450.552 668.619 450.232 673.647C450.136 675.088 450.648 676.433 451.769 677.585C454.075 680.019 457.693 681.172 463.233 681.172C469.445 681.172 477.291 679.731 486.385 678.066C498.169 675.888 511.555 673.454 525.228 673.454C543.865 673.454 558.883 678.098 571.18 687.64C588.504 701.09 614.122 715.468 634.2 715.468C641.437 715.468 647.617 713.642 652.613 709.992C657.896 706.181 660.97 700.545 661.771 693.308ZM634.168 714.539C614.346 714.539 588.92 700.289 571.756 686.936C559.268 677.233 544.057 672.526 525.228 672.526C511.459 672.526 498.041 674.992 486.193 677.169C477.163 678.834 469.349 680.243 463.233 680.243C457.981 680.243 454.555 679.186 452.474 676.945C451.545 675.952 451.129 674.895 451.193 673.711C451.481 669.099 459.038 662.759 469.477 654.017C494.775 632.818 537.14 597.37 544.153 531.788C544.986 523.943 546.299 520.452 548.348 520.452C551.839 520.452 558.243 529.258 568.842 543.861C580.082 559.359 597.118 582.768 621.487 610.243C635.513 626.062 663.596 667.114 660.778 693.18C660.01 700.129 657.064 705.541 652.004 709.223C647.201 712.778 641.213 714.539 634.168 714.539Z" fill="#32353E"/>
<path d="M935.369 429.829C932.071 479.912 946.449 514.4 961.019 529.931C967.68 537.04 974.981 540.979 981.609 540.979C990.928 540.979 997.941 533.645 1001.33 520.324C1023.21 434.601 948.722 344.234 939.596 336.677C936.97 334.499 935.145 334.211 933.96 335.524C931.815 337.862 932.487 345.515 933.704 359.38C935.113 375.808 937.29 400.625 935.369 429.829ZM935.145 336.613C935.305 336.421 935.465 336.357 935.721 336.357C936.17 336.357 937.034 336.613 938.603 337.926C947.666 345.419 1021.51 434.985 999.83 519.94C996.628 532.461 990.191 539.377 981.641 539.377C975.493 539.377 968.576 535.631 962.236 528.842C947.89 513.535 933.736 479.496 937.002 429.925C938.924 400.593 936.778 375.712 935.337 359.252C934.248 347.18 933.48 338.438 935.145 336.613Z" fill="#32353E"/>
<path d="M1325.91 -133.313C1300.87 -133.313 1273.14 -128.574 1243.74 -123.578C1208.65 -117.59 1172.37 -111.41 1132.82 -111.41C1129.91 -111.41 1127.02 -111.442 1124.3 -111.506C1121.93 -111.57 1119.63 -111.634 1117.32 -111.698C1111.33 -111.858 1105.7 -112.018 1100.25 -112.018C1066.18 -112.018 1045.08 -105.069 1031.18 -68.468C1022.41 -45.3159 1012.42 -19.0897 988.527 -2.14998C981.771 2.65337 975.014 6.72018 969.026 10.3387C955.192 18.6965 944.273 25.2931 943.856 34.4194C943.472 42.8092 951.958 52.8962 971.331 67.1141C989.936 80.7556 1005.21 87.3842 1018.08 87.3842C1019.24 87.3842 1020.42 87.3201 1021.54 87.2241C1040.24 85.4949 1052.8 70.0281 1068.68 50.4625C1075.88 41.5604 1084.08 31.5054 1093.69 21.8987C1135.29 -19.6981 1186.39 -50.0232 1241.47 -65.8101C1264.72 -72.4708 1287.68 -75.8651 1309.74 -75.8651C1364.24 -75.8651 1406.26 -56.1715 1441.03 -33.3716V-34.5244C1406.26 -57.2282 1364.21 -76.8258 1309.74 -76.8258C1287.58 -76.8258 1264.53 -73.4314 1241.21 -66.7388C1185.98 -50.8878 1134.71 -20.4667 1093.02 21.2263C1083.38 30.8649 1075.18 40.952 1067.94 49.8541C1052.19 69.2276 1039.76 84.5662 1021.48 86.2634C1020.36 86.3595 1019.24 86.4235 1018.12 86.4235C1005.47 86.4235 990.353 79.8589 971.908 66.3456C952.822 52.3198 944.465 42.489 944.817 34.4835C945.201 25.8695 955.929 19.401 969.538 11.1713C975.526 7.55276 982.315 3.45392 989.104 -1.34941C1013.25 -18.4493 1023.27 -44.8356 1032.11 -68.1157C1045.81 -104.205 1066.63 -111.058 1100.28 -111.058C1105.73 -111.058 1111.36 -110.897 1117.32 -110.737C1119.59 -110.673 1121.93 -110.609 1124.3 -110.545C1127.06 -110.481 1129.91 -110.449 1132.85 -110.449C1172.46 -110.449 1208.81 -116.661 1243.94 -122.65C1273.27 -127.645 1301 -132.384 1325.95 -132.384C1340.42 -132.384 1353.04 -130.783 1364.6 -127.485C1389.41 -120.408 1414.84 -108.784 1441.07 -95.2065V-96.2953C1414.94 -109.777 1389.61 -121.337 1364.85 -128.414C1353.2 -131.68 1340.45 -133.313 1325.91 -133.313Z" fill="#32353E"/>
<path d="M910.584 426.947C906.869 475.525 916.476 514.848 937.61 537.68C948.658 549.625 962.235 556.189 975.845 556.189C995.25 556.189 1010.75 542.708 1015.39 521.861C1028.87 460.891 1008 406.069 988.141 370.781C964.765 329.344 934.888 300.011 920.478 290.405C915.227 286.914 911.512 284.737 909.271 284.737C908.438 284.737 907.798 285.025 907.317 285.569C905.46 287.651 906.228 293.607 907.734 305.391C910.359 326.27 915.323 365.177 910.584 426.947ZM907.99 286.178C908.278 285.826 908.694 285.665 909.239 285.665C911.224 285.665 914.971 287.875 919.934 291.173C952.437 312.852 1038.77 411.609 1014.43 521.605C1009.92 542.003 994.77 555.197 975.845 555.197C962.492 555.197 949.17 548.728 938.315 537.008C917.372 514.4 907.862 475.333 911.544 427.012C916.283 365.145 911.32 326.174 908.63 305.231C907.285 294.472 906.453 287.939 907.99 286.178Z" fill="#32353E"/>
<path d="M892.171 430.086C888.488 490.544 900.048 538.321 924.769 564.579C937.546 578.157 953.045 585.33 969.632 585.33C1001.33 585.33 1028.17 559.68 1036.46 521.509C1048.66 465.214 1038.16 409.784 1005.27 356.755C971.938 303.054 925.826 268.342 901.297 252.395C888.808 244.293 883.46 240.899 881.411 243.364C879.714 245.414 880.835 251.242 883.012 262.834C887.751 288.035 897.646 340.328 892.171 430.086ZM882.116 244.069C882.372 243.749 882.724 243.621 883.268 243.621C885.862 243.621 891.466 247.271 900.752 253.291C982.473 306.32 1060.77 404.628 1035.47 521.349C1027.3 559.071 1000.82 584.401 969.6 584.401C953.301 584.401 938.026 577.324 925.442 563.939C900.913 537.873 889.449 490.352 893.099 430.15C898.575 340.264 888.68 287.907 883.909 262.738C881.923 252.138 880.739 245.734 882.116 244.069Z" fill="#32353E"/>
<path d="M523.66 229.178C532.722 229.178 539.223 220.436 546.172 207.307C558.308 184.379 583.67 173.267 597.279 167.311C604.164 164.301 606.758 163.18 606.438 161.259C606.149 159.658 604.388 158.985 594.974 158.345C566.602 156.424 502.942 183.482 495.609 203.849C493.911 208.556 495.16 212.847 499.259 216.209C510.147 225.303 517.448 229.178 523.66 229.178ZM497.69 204.649C504.383 186.044 563.56 160.522 591.899 160.522C592.892 160.522 593.853 160.554 594.781 160.619C600.321 161.003 602.787 161.387 603.78 161.707C602.563 162.54 599.425 163.917 596.351 165.262C582.485 171.314 556.675 182.618 544.154 206.25C536.277 221.108 530.513 226.905 523.628 226.905C518.024 226.905 511.139 223.19 500.636 214.512C497.274 211.726 496.313 208.524 497.69 204.649Z" fill="#32353E"/>
<path d="M551.519 228.025C573.326 188.286 613.194 174.42 645.472 166.767C648.579 166.03 648.867 164.429 648.771 163.565C648.002 157.096 617.773 144.704 572.654 144.704C567.562 144.704 562.343 144.864 557.187 145.184C536.565 146.433 487.955 175.189 470.503 196.484C465.956 202.023 463.906 206.603 464.387 210.157C465.604 218.995 473.449 222.902 482.575 227.449C492.214 232.252 503.134 237.696 508.481 250.377C511.588 257.774 515.654 261.521 520.586 261.521C528.912 261.489 539.319 250.249 551.519 228.025ZM509.922 249.736C504.383 236.511 493.175 230.907 483.28 225.976C474.57 221.653 467.045 217.906 465.956 209.901C465.54 206.859 467.525 202.568 471.72 197.476C488.98 176.438 536.981 148.002 557.283 146.785C562.439 146.465 567.594 146.305 572.654 146.305C617.005 146.305 646.561 158.569 647.17 163.757C647.266 164.589 645.921 165.038 645.088 165.23C612.49 172.947 572.238 186.973 550.11 227.257C531.73 260.72 517.928 268.822 509.922 249.736Z" fill="#32353E"/>
<path d="M972.835 502.616C972.867 502.616 972.867 502.616 972.835 502.616C974.532 502.616 976.005 501.431 977.254 499.126C983.499 487.437 983.37 446.961 966.815 422.336C964.669 419.134 961.563 419.55 959.194 423.585C952.981 434.281 950.356 468.288 967.295 497.973C969.089 501.079 970.946 502.616 972.835 502.616ZM961.179 424.738C962.012 423.329 962.876 422.464 963.549 422.464C964.125 422.464 964.701 423.169 964.99 423.617C980.809 447.186 981.161 487.117 975.301 498.101C974.5 499.574 973.636 500.406 972.867 500.406C971.874 500.406 970.562 499.126 969.281 496.884C953.013 468.352 955.351 434.761 961.179 424.738Z" fill="#32353E"/>
<path d="M1181.14 600.892C1183.41 604.19 1189.02 605.599 1199.81 605.599C1206.56 605.599 1214.6 605.055 1223.92 604.447C1235.45 603.678 1248.55 602.814 1262.06 602.814C1304.87 602.814 1333.76 611.908 1353 631.505C1370.9 645.275 1380.77 667.723 1389.48 687.544C1400.08 711.625 1409.2 732.407 1429.41 732.407C1431.55 732.407 1433.83 732.151 1436.13 731.671C1437.67 731.351 1439.3 730.934 1441 730.422V728.757C1439.21 729.333 1437.45 729.782 1435.81 730.134C1433.6 730.582 1431.42 730.838 1429.41 730.838C1410.26 730.838 1401.32 710.504 1390.95 686.936C1382.14 666.954 1372.18 644.314 1354.06 630.353C1334.56 610.499 1305.32 601.244 1262.06 601.244C1248.48 601.244 1235.38 602.109 1223.79 602.878C1214.51 603.486 1206.47 604.03 1199.78 604.03C1189.85 604.03 1184.34 602.749 1182.45 600.028C1181.43 598.523 1181.4 596.505 1182.39 593.815C1202.75 539.345 1219.82 470.402 1218.16 449.171C1215.27 411.993 1198.94 376.865 1183.12 342.889C1163.78 301.356 1145.53 262.129 1157.12 229.402C1173.26 183.931 1246.91 104.996 1286.78 99.5523C1288.7 99.2961 1290.85 99.168 1293.15 99.168C1324.21 99.168 1378.94 121.423 1440.97 158.185V156.328C1379 119.694 1324.31 97.5669 1293.15 97.5669C1290.75 97.5669 1288.54 97.695 1286.56 97.9832C1246.24 103.491 1171.85 183.066 1155.59 228.89C1143.77 262.225 1162.15 301.741 1181.62 343.594C1197.37 377.441 1213.64 412.409 1216.52 449.299C1217.96 467.904 1202.69 534.83 1180.85 593.239C1179.7 596.409 1179.79 598.939 1181.14 600.892Z" fill="#32353E"/>
<path d="M1332.99 1107.74C1331.16 1107.74 1328.06 1107.93 1324.15 1108.19C1317.55 1108.6 1308.52 1109.18 1299.56 1109.18C1277.3 1109.18 1265.65 1105.53 1264.91 1098.29C1263.79 1087.44 1289.6 1071.3 1306.67 1060.64C1313.46 1056.38 1319.32 1052.73 1322.04 1050.36C1343.3 1031.72 1362.93 1008.5 1380.38 981.348C1391.94 963.352 1400.46 943.979 1409.46 923.452C1416.25 908.018 1427.01 891.974 1441.06 880.895V879.71C1426.59 890.918 1415.51 907.281 1408.59 923.068C1399.6 943.562 1391.11 962.904 1379.58 980.836C1362.16 1007.93 1342.6 1031.05 1321.43 1049.62C1318.77 1051.96 1312.94 1055.61 1306.19 1059.83C1287.87 1071.27 1262.83 1086.96 1263.98 1098.39C1264.78 1106.3 1276.44 1110.14 1299.59 1110.14C1308.59 1110.14 1317.65 1109.57 1324.25 1109.12C1328.15 1108.86 1331.23 1108.67 1333.02 1108.67C1366.71 1108.67 1396.68 1114.08 1423.77 1125.03H1426.37C1398.54 1113.44 1367.73 1107.74 1332.99 1107.74Z" fill="#32353E"/>
<path d="M1325.91 -111.218C1302.76 -111.218 1275.89 -106.639 1247.46 -101.804C1211.47 -95.6555 1174.22 -89.3151 1132.82 -89.3151C1129.78 -89.3151 1126.77 -89.3471 1123.79 -89.4111L1116.74 -89.6033C1110.92 -89.7634 1105.44 -89.9235 1100.28 -89.9235C1055.42 -89.9235 1053.21 -65.2664 1050.84 -39.1683C1049.56 -24.8543 1048.22 -10.028 1040.34 2.55669C1037.52 7.03979 1029.96 12.7397 1021.93 18.7599C1004.86 31.5688 985.516 46.1069 994.803 59.7163C998.806 65.5764 1003.61 68.5225 1009.08 68.5225C1012.09 68.5225 1015.36 67.6259 1018.76 65.8646C1033.9 58.0512 1050.07 34.9311 1063.07 16.3583C1070.44 5.82294 1076.81 -3.27135 1080.3 -5.38481C1083.95 -7.56232 1088.05 -7.85053 1091.54 -7.85053C1092.89 -7.85053 1094.26 -7.7865 1095.64 -7.75447C1097.05 -7.69043 1098.46 -7.65841 1099.84 -7.65841C1105.12 -7.65841 1110.69 -8.29884 1115.72 -12.878C1121.77 -18.3858 1122.54 -25.5588 1123.28 -32.4756C1123.95 -38.6879 1124.56 -44.548 1128.69 -49.5115C1141.18 -64.4338 1184.98 -74.8731 1213.96 -81.7578C1222.48 -83.7752 1229.85 -85.5364 1235.35 -87.1055C1260.56 -94.3426 1285.6 -97.9931 1309.71 -97.9931C1363.25 -97.9931 1406.06 -80.4449 1441 -59.4383V-61.3276C1406.03 -82.2061 1363.22 -99.5942 1309.71 -99.5942C1285.44 -99.5942 1260.27 -95.9116 1234.91 -88.6426C1229.46 -87.0735 1222.1 -85.3123 1213.58 -83.2949C1182.65 -75.9298 1140.28 -65.8428 1127.47 -50.5041C1123.02 -45.1884 1122.35 -38.784 1121.67 -32.6037C1120.94 -25.6869 1120.23 -19.1544 1114.63 -14.0308C1109.99 -9.80389 1104.77 -9.22749 1099.84 -9.22749C1098.46 -9.22749 1097.05 -9.29153 1095.67 -9.32355C1094.3 -9.3876 1092.89 -9.41962 1091.51 -9.41962C1087.8 -9.41962 1083.44 -9.09941 1079.44 -6.72977C1075.66 -4.45618 1069.51 4.3179 1061.7 15.4616C1049.46 32.9137 1032.75 56.8344 1017.96 64.4556C1008.92 69.0989 1001.82 67.2736 996.02 58.8197C987.598 46.4912 1006.3 32.4334 1022.79 20.0728C1031.28 13.7004 1038.61 8.1926 1041.59 3.4533C1049.69 -9.45165 1051.03 -24.4701 1052.35 -38.9761C1054.72 -65.4265 1056.8 -88.2904 1100.19 -88.2904C1105.34 -88.2904 1110.82 -88.1302 1116.62 -87.9701L1123.66 -87.778C1126.67 -87.714 1129.68 -87.6819 1132.72 -87.6819C1174.29 -87.6819 1211.56 -94.0543 1247.65 -100.203C1276.02 -105.038 1302.79 -109.617 1325.82 -109.617C1338.15 -109.617 1348.74 -108.304 1358.22 -105.582C1384.39 -98.1212 1412.02 -84.832 1440.94 -69.4933V-71.2865C1412.21 -86.4971 1384.74 -99.6582 1358.67 -107.087C1349.13 -109.873 1338.37 -111.218 1325.91 -111.218Z" fill="#32353E"/>
<path d="M1229.49 559.167C1235.45 567.717 1248.03 568.678 1265.42 570.023C1267.31 570.183 1269.27 570.311 1271.25 570.471C1276.76 570.919 1282.52 571.112 1288.61 571.336C1316.91 572.296 1349 573.417 1377.98 599.804L1378.33 600.124C1394.41 614.182 1403.95 638.967 1412.4 660.838C1420.89 682.869 1428.26 701.89 1439.91 701.89C1440.26 701.89 1440.65 701.826 1441 701.794V700.834C1440.65 700.866 1440.26 700.962 1439.91 700.962C1428.9 700.962 1421.69 682.229 1413.3 660.518C1404.82 638.55 1395.21 613.637 1378.97 599.419L1378.62 599.099C1349.39 572.489 1317.11 571.368 1288.64 570.407C1282.55 570.183 1276.79 569.991 1271.31 569.542C1269.33 569.382 1267.38 569.222 1265.49 569.094C1248.35 567.781 1235.96 566.821 1230.26 558.655C1224.88 550.906 1225.62 536.368 1232.73 511.582C1239.29 488.622 1241.76 467.648 1240.19 447.474C1236.99 406.325 1219.79 369.372 1203.17 333.603C1185.82 296.265 1169.39 261.008 1177.97 236.8C1192.25 196.484 1261.23 125.33 1289.79 121.456C1290.43 121.359 1291.52 121.263 1293.19 121.263C1317.04 121.263 1371.03 141.117 1441 183.995V182.874C1371.06 140.125 1317.11 120.303 1293.19 120.303C1291.49 120.303 1290.34 120.399 1289.66 120.495C1260.88 124.434 1191.42 195.971 1177.07 236.479C1168.36 261.072 1184.85 296.489 1202.31 334.019C1218.89 369.692 1236.06 406.549 1239.23 447.538C1240.8 467.616 1238.36 488.494 1231.8 511.326C1224.56 536.72 1223.86 551.066 1229.49 559.167Z" fill="#32353E"/>
<path d="M645.6 848.744C693.281 843.3 750.057 786.653 765.267 743.359C791.685 668.203 744.709 607.681 699.269 549.144C655.431 492.657 613.994 439.308 634.136 374.335C651.684 317.752 708.364 287.203 752.779 287.203C776.731 287.203 797.417 295.689 811.091 311.123C827.326 329.44 833.699 357.267 829.536 391.595C815.222 509.533 810.963 638.55 942.446 676.593C957.529 680.948 972.419 683.157 986.733 683.157C1042.1 683.157 1077.42 651.455 1097.31 624.845C1135.44 573.834 1148.7 497.525 1130.26 434.985C1114.63 381.956 1083.86 330.497 1036.24 277.724C965.438 199.27 868.987 131.831 741.411 71.5009L735.903 68.8751C682.234 43.4815 626.739 17.2233 568.299 2.74923C564.84 1.88463 560.997 0.859918 556.899 -0.228837C538.838 -5.03217 516.39 -10.9883 497.113 -10.9883C489.396 -10.9883 482.703 -9.9956 477.259 -8.04224C468.934 -5.06418 464.258 0.63578 459.711 6.1436C456.317 10.2424 452.826 14.5014 447.831 17.5435C444.597 19.5289 438.256 21.9626 431.596 24.5564C420.772 28.7193 409.596 33.0423 406.074 37.2051C399.253 45.2107 401.143 50.014 402.936 54.6893C404.249 58.0196 405.465 61.1898 403.864 65.8971L402.616 69.6116C392.913 98.1434 392.913 98.1434 370.561 104.612C366.238 105.861 360.859 107.43 354.486 109.447C336.073 115.307 328.516 124.338 321.215 133.08C315.611 139.804 310.295 146.145 300.273 151.268C300.016 151.236 299.696 151.236 299.376 151.236C287.848 151.236 200.427 157 193.703 178.487C191.909 184.283 195.816 190.56 205.391 197.188C217.367 205.482 226.429 206.443 232.225 206.443C235.043 206.443 237.605 206.186 240.071 205.962C242.184 205.77 244.17 205.578 246.059 205.578C253.104 205.578 260.213 207.563 269.947 231.612C272.349 237.536 274.206 242.372 275.743 246.406C283.301 266.196 283.557 266.452 302.738 274.65C307.51 276.667 313.434 279.197 320.959 282.688C345.68 294.087 350.74 307.024 357.144 323.42C360.538 332.066 364.381 341.897 371.65 352.944C379.431 364.76 388.558 374.271 397.396 383.461C413.055 399.761 427.849 415.163 432.556 440.877C440.722 485.42 416.545 527.946 389.198 567.269C375.941 586.354 348.69 608.546 319.838 632.05C270.844 671.95 215.318 717.197 215.125 759.082C214.997 783.003 221.146 801.351 233.378 813.648C246.699 827.033 266.937 833.534 295.277 833.534C336.362 833.534 386.829 819.668 431.371 807.468C466.436 797.861 496.729 789.535 516.07 789.535C520.457 789.535 524.172 789.984 527.086 790.848C545.755 796.388 560.549 808.236 574.895 819.7C593.884 834.911 611.849 849.257 637.499 849.257C640.22 849.225 642.91 849.064 645.6 848.744ZM527.822 788.671C524.62 787.71 520.81 787.262 516.166 787.262C496.505 787.262 466.084 795.619 430.859 805.258C386.444 817.427 336.105 831.26 295.341 831.26C267.642 831.26 247.916 824.984 235.043 812.047C223.259 800.199 217.335 782.394 217.431 759.082C217.623 718.254 272.701 673.359 321.311 633.779C350.291 610.179 377.638 587.891 391.088 568.55C418.691 528.81 443.124 485.805 434.798 440.461C429.963 414.075 414.944 398.448 399.061 381.892C390.287 372.766 381.225 363.319 373.571 351.695C366.43 340.84 362.62 331.169 359.289 322.587C352.693 305.711 347.473 292.422 321.952 280.638C314.394 277.148 308.438 274.618 303.667 272.568C285.158 264.659 285.158 264.659 277.857 245.574C276.32 241.539 274.463 236.672 272.061 230.747C262.742 207.788 255.473 203.304 246.091 203.304C244.106 203.304 242.056 203.497 239.879 203.721C237.477 203.945 234.979 204.201 232.257 204.201C226.301 204.201 218.039 203.208 206.704 195.363C198.026 189.375 194.407 183.931 195.88 179.192C201.708 160.523 283.205 153.51 299.408 153.51C299.792 153.51 300.048 153.51 300.208 153.542L300.465 152.517L300.945 153.51C311.576 148.13 317.372 141.245 322.944 134.553C330.373 125.683 337.386 117.293 355.191 111.625C361.531 109.607 366.879 108.07 371.202 106.821C394.482 100.097 394.77 99.7445 404.761 70.3802L406.01 66.6656C407.867 61.1898 406.362 57.3471 405.049 53.9208C403.32 49.5017 401.847 45.691 407.803 38.7102C410.973 34.9956 422.373 30.5765 432.428 26.7019C439.217 24.076 445.621 21.6103 449.048 19.5289C454.363 16.2946 457.982 11.9076 461.472 7.64865C466.02 2.14083 470.311 -3.07881 478.028 -5.83273C483.247 -7.69001 489.684 -8.65067 497.145 -8.65067C516.134 -8.65067 538.422 -2.72655 556.354 2.04476C560.453 3.13352 564.296 4.15823 567.786 5.02283C626.003 19.4328 681.401 45.659 734.974 70.9886L740.482 73.6144C867.77 133.784 963.997 201.063 1034.61 279.293C1082 331.81 1112.61 382.981 1128.14 435.69C1146.4 497.589 1133.3 573.097 1095.54 623.564C1075.95 649.758 1041.17 680.98 986.765 680.98C972.675 680.98 958.009 678.802 943.119 674.479C813.333 636.949 817.591 508.957 831.809 391.915C836.068 356.947 829.504 328.511 812.82 309.714C798.73 293.799 777.436 285.057 752.843 285.057C707.627 285.057 649.923 316.151 632.055 373.791C611.56 439.853 655.271 496.18 697.572 550.649C742.628 608.706 789.252 668.747 763.218 742.751C748.199 785.436 692.289 841.315 645.408 846.663C642.782 846.951 640.188 847.111 637.659 847.111C612.777 847.111 595.133 832.989 576.432 818.035C561.894 806.315 546.908 794.339 527.822 788.671Z" fill="#32353E"/>
<path d="M938.218 -73.2076C927.363 -65.5543 912.504 -61.8077 892.779 -61.8077C869.627 -61.8077 843.689 -66.9953 820.857 -71.5745C807.375 -74.2643 794.663 -76.8261 784.255 -77.9149C779.164 -78.4592 765.49 -79.7081 748.647 -79.7081C717.457 -79.7081 677.429 -75.4812 664.012 -55.3392C658.152 -46.5971 657.928 -35.5815 663.307 -22.6445C665.837 -16.5603 672.37 -13.262 678.678 -10.0598C683.673 -7.53001 688.829 -4.90422 691.711 -1.02953C695.105 3.58167 697.123 10.0502 699.044 16.3266C701.638 24.6523 704.296 33.2663 710.348 38.3578C717.873 44.6662 726.103 47.6122 736.318 47.6122C743.395 47.6122 750.632 46.1713 757.613 44.7943C764.53 43.4174 771.671 42.0083 778.587 42.0083C785.216 42.0083 790.98 43.3213 796.232 46.0111C808.944 52.5757 814.324 61.4138 819.48 69.9317C826.236 81.0755 832.609 91.5788 853.615 96.5102C897.582 106.789 909.654 117.549 938.763 143.519C942.509 146.881 946.544 150.468 950.963 154.342C961.434 163.533 969.184 174.036 976.677 184.187C983.369 193.249 990.254 202.6 999.156 211.182C1010.08 221.717 1020.39 226.392 1030.35 230.907C1043.6 236.928 1056.16 242.628 1067.52 262.161L1069.29 265.235C1083.6 289.956 1098.04 312.852 1106.94 312.852C1108.38 312.852 1109.6 312.308 1110.63 311.187C1113.83 307.665 1114.69 298.346 1113.28 282.687C1112.45 273.497 1105.82 265.299 1099.39 257.358C1092.47 248.808 1085.94 240.706 1086.32 231.772C1086.8 221.077 1093.27 215.793 1100.12 210.221C1105.15 206.154 1110.34 201.927 1113.38 195.363C1120.68 179.64 1122.44 165.582 1124.17 151.973C1126.54 133.015 1128.78 115.147 1145.75 94.9091C1176.08 58.6919 1218.64 31.345 1265.58 17.8636C1281.21 13.3805 1295.68 11.203 1309.8 11.203C1357.77 11.203 1392.17 37.3011 1428.61 64.9043C1432.74 68.0424 1436.9 71.1806 1441.1 74.3188V71.5328C1437.35 68.7149 1433.63 65.929 1429.95 63.143C1393.22 35.2837 1358.51 8.99344 1309.8 8.99344C1295.46 8.99344 1280.79 11.203 1264.94 15.7501C1217.58 29.3275 1174.64 56.9307 1143.99 93.5001C1126.6 114.25 1124.33 132.439 1121.9 151.716C1120.2 165.166 1118.47 179.063 1111.3 194.434C1108.48 200.518 1103.48 204.553 1098.68 208.492C1091.73 214.128 1084.56 219.988 1084.05 231.708C1083.63 241.475 1090.74 250.281 1097.59 258.799C1103.81 266.484 1110.21 274.426 1110.98 282.911C1112.64 301.356 1110.79 307.665 1108.9 309.682C1108.32 310.323 1107.68 310.611 1106.88 310.611C1098.07 310.611 1079.21 278.012 1071.17 264.114L1069.38 261.04C1057.66 240.898 1044.79 235.07 1031.21 228.858C1021.41 224.407 1011.29 219.796 1000.66 209.549C991.919 201.127 985.067 191.84 978.438 182.842C970.881 172.595 963.067 161.996 952.404 152.645C947.985 148.77 943.95 145.184 940.204 141.822C910.775 115.563 898.607 104.708 854.064 94.3006C833.954 89.5934 827.806 79.4744 821.337 68.7469C815.989 59.9408 810.482 50.8465 797.192 43.9937C791.62 41.1118 785.536 39.7348 778.523 39.7348C771.414 39.7348 764.145 41.1758 757.132 42.5527C750.248 43.9297 743.107 45.3066 736.254 45.3066C726.615 45.3066 718.834 42.5207 711.725 36.5646C706.185 31.8893 703.591 23.5956 701.126 15.558C699.14 9.12154 697.059 2.46091 693.44 -2.47052C690.27 -6.79352 684.858 -9.54742 679.639 -12.1732C673.426 -15.3114 667.534 -18.2895 665.325 -23.6052C660.265 -35.8056 660.425 -46.1168 665.837 -54.2184C678.742 -73.5278 717.969 -77.5946 748.615 -77.5946C765.362 -77.5946 778.908 -76.3458 783.967 -75.8014C794.246 -74.7126 806.927 -72.1509 820.344 -69.493C843.304 -64.8818 869.338 -59.6942 892.715 -59.6942C912.921 -59.6942 928.195 -63.5689 939.435 -71.5104C967.454 -91.3322 959.417 -121.209 951.635 -150.093C943.342 -180.962 934.76 -212.889 969.28 -233.703C973.411 -236.201 978.95 -237.482 985.707 -237.482C1006.36 -237.482 1035.44 -226.21 1063.55 -215.29C1088.05 -205.78 1111.17 -196.813 1126.22 -196.461C1128.4 -196.397 1130.54 -196.397 1132.72 -196.397C1132.72 -196.397 1132.72 -196.397 1132.75 -196.397C1165.1 -196.397 1197.79 -201.969 1229.43 -207.381C1261 -212.76 1293.63 -218.332 1325.85 -218.332C1348.39 -218.332 1368.76 -215.642 1388.07 -210.135C1405.93 -205.043 1423.55 -198.286 1440.97 -190.601V-193.035C1423.77 -200.624 1406.35 -207.253 1388.67 -212.28C1369.14 -217.852 1348.58 -220.574 1325.85 -220.574C1293.44 -220.574 1260.68 -215.002 1229.04 -209.59C1197.5 -204.211 1164.9 -198.639 1132.75 -198.639C1130.58 -198.575 1128.46 -198.671 1126.28 -198.703C1111.62 -199.055 1088.69 -207.957 1064.39 -217.372C1036.08 -228.355 1006.81 -239.723 985.739 -239.723C978.438 -239.723 972.706 -238.378 968.127 -235.624C932.166 -213.913 940.972 -181.187 949.49 -149.517C957.464 -119.928 964.957 -92.1007 938.218 -73.2076Z" fill="#32353E"/>
</g>
</svg>
