<svg width="148" height="30" viewBox="0 0 148 30" fill="none" xmlns="http://www.w3.org/2000/svg">
<path d="M5.83186 4H1C1.03835 8.95189 1.00122 19.448 1.11504 21.8041C1.23009 24.1856 4.25959 25.5842 5.83186 26H14V21.1237H6.29204L5.83186 20.4433V4Z" fill="white" stroke="white" stroke-width="1.57414"/>
<path d="M25.1681 26L30 26C29.9617 21.0481 29.9988 10.552 29.885 8.19588C29.7699 5.81443 26.7404 4.41581 25.1681 4L17 4L17 8.87629L24.708 8.87629L25.1681 9.5567L25.1681 26Z" fill="white" stroke="white" stroke-width="1.57414"/>
<path d="M14.1858 4H10V17.3814H16.8142V26H21V12.3918H14.1858V4Z" fill="white" stroke="white" stroke-width="1.57414"/>
<path d="M37.2078 23.5V6.04545H40.3698V20.8494H48.0573V23.5H37.2078ZM54.1923 23.7642C53.3627 23.7642 52.6156 23.6165 51.9508 23.321C51.2917 23.0199 50.769 22.5767 50.3826 21.9915C50.0019 21.4062 49.8116 20.6847 49.8116 19.8267C49.8116 19.0881 49.948 18.4773 50.2207 17.9943C50.4934 17.5114 50.8656 17.125 51.3372 16.8352C51.8088 16.5455 52.34 16.3267 52.9309 16.179C53.5275 16.0256 54.144 15.9148 54.7803 15.8466C55.5474 15.767 56.1695 15.696 56.6468 15.6335C57.1241 15.5653 57.4707 15.4631 57.6866 15.3267C57.9082 15.1847 58.019 14.9659 58.019 14.6705V14.6193C58.019 13.9773 57.8286 13.4801 57.448 13.1278C57.0673 12.7756 56.519 12.5994 55.8031 12.5994C55.0474 12.5994 54.448 12.7642 54.0048 13.0938C53.5673 13.4233 53.2718 13.8125 53.1184 14.2614L50.2377 13.8523C50.465 13.0568 50.84 12.392 51.3627 11.858C51.8855 11.3182 52.5247 10.9148 53.2803 10.6477C54.036 10.375 54.8713 10.2386 55.786 10.2386C56.4167 10.2386 57.0445 10.3125 57.6695 10.4602C58.2945 10.608 58.8656 10.8523 59.3826 11.1932C59.8997 11.5284 60.3144 11.9858 60.6269 12.5653C60.9451 13.1449 61.1042 13.8693 61.1042 14.7386V23.5H58.1383V21.7017H58.036C57.8485 22.0653 57.5843 22.4062 57.2434 22.7244C56.9082 23.0369 56.4849 23.2898 55.9735 23.483C55.4678 23.6705 54.8741 23.7642 54.1923 23.7642ZM54.9934 21.4972C55.6127 21.4972 56.1497 21.375 56.6042 21.1307C57.0588 20.8807 57.4082 20.5511 57.6525 20.142C57.9025 19.733 58.0275 19.2869 58.0275 18.804V17.2614C57.9309 17.3409 57.7661 17.4148 57.5332 17.483C57.3059 17.5511 57.0502 17.6108 56.7661 17.6619C56.482 17.7131 56.2008 17.7585 55.9224 17.7983C55.644 17.8381 55.4025 17.8722 55.198 17.9006C54.7377 17.9631 54.3258 18.0653 53.9622 18.2074C53.5985 18.3494 53.3116 18.5483 53.1014 18.804C52.8911 19.054 52.786 19.3778 52.786 19.7756C52.786 20.3438 52.9934 20.7727 53.4082 21.0625C53.823 21.3523 54.3514 21.4972 54.9934 21.4972ZM67.0517 15.8295V23.5H63.9665V10.4091H66.9153V12.6335H67.0688C67.3699 11.9006 67.85 11.3182 68.5091 10.8864C69.1739 10.4545 69.9949 10.2386 70.9722 10.2386C71.8756 10.2386 72.6625 10.4318 73.333 10.8182C74.0091 11.2045 74.5318 11.7642 74.9011 12.4972C75.2761 13.2301 75.4608 14.1193 75.4551 15.1648V23.5H72.3699V15.642C72.3699 14.767 72.1426 14.0824 71.6881 13.5881C71.2392 13.0937 70.617 12.8466 69.8216 12.8466C69.2818 12.8466 68.8017 12.9659 68.3813 13.2045C67.9665 13.4375 67.6398 13.7756 67.4011 14.2188C67.1682 14.6619 67.0517 15.1989 67.0517 15.8295ZM88.6981 13.8693L85.8856 14.1761C85.806 13.892 85.6668 13.625 85.468 13.375C85.2748 13.125 85.0134 12.9233 84.6839 12.7699C84.3543 12.6165 83.9509 12.5398 83.4736 12.5398C82.8316 12.5398 82.2918 12.679 81.8543 12.9574C81.4225 13.2358 81.2094 13.5966 81.2151 14.0398C81.2094 14.4205 81.3486 14.7301 81.6327 14.9688C81.9225 15.2074 82.3998 15.4034 83.0645 15.5568L85.2975 16.0341C86.5361 16.3011 87.4566 16.7244 88.0589 17.304C88.6668 17.8835 88.9736 18.642 88.9793 19.5795C88.9736 20.4034 88.7322 21.1307 88.2549 21.7614C87.7833 22.3864 87.127 22.875 86.2861 23.2273C85.4452 23.5795 84.4793 23.7557 83.3884 23.7557C81.7861 23.7557 80.4964 23.4205 79.5191 22.75C78.5418 22.0739 77.9594 21.1335 77.7719 19.929L80.7805 19.6392C80.9168 20.2301 81.2066 20.6761 81.6498 20.9773C82.093 21.2784 82.6697 21.429 83.3799 21.429C84.1128 21.429 84.7009 21.2784 85.1441 20.9773C85.593 20.6761 85.8174 20.304 85.8174 19.8608C85.8174 19.4858 85.6725 19.1761 85.3827 18.9318C85.0986 18.6875 84.6555 18.5 84.0532 18.3693L81.8202 17.9006C80.5645 17.6392 79.6356 17.1989 79.0333 16.5795C78.431 15.9545 78.1327 15.1648 78.1384 14.2102C78.1327 13.4034 78.3515 12.7045 78.7947 12.1136C79.2435 11.517 79.8657 11.0568 80.6611 10.733C81.4623 10.4034 82.3856 10.2386 83.431 10.2386C84.9651 10.2386 86.1725 10.5653 87.0532 11.2188C87.9395 11.8722 88.4878 12.7557 88.6981 13.8693ZM97.8203 10.4091V12.7955H90.2947V10.4091H97.8203ZM92.1527 7.27273H95.2379V19.5625C95.2379 19.9773 95.3004 20.2955 95.4254 20.517C95.5561 20.733 95.7265 20.8807 95.9368 20.9602C96.147 21.0398 96.3799 21.0795 96.6356 21.0795C96.8288 21.0795 97.0049 21.0653 97.164 21.0369C97.3288 21.0085 97.4538 20.983 97.539 20.9602L98.0589 23.3722C97.8942 23.429 97.6584 23.4915 97.3515 23.5597C97.0504 23.6278 96.6811 23.6676 96.2436 23.679C95.4709 23.7017 94.7748 23.5852 94.1555 23.3295C93.5362 23.0682 93.0447 22.6648 92.6811 22.1193C92.3231 21.5739 92.147 20.892 92.1527 20.0739V7.27273ZM105.815 23.7557C104.503 23.7557 103.369 23.483 102.415 22.9375C101.466 22.3864 100.736 21.608 100.224 20.6023C99.7131 19.5909 99.4574 18.4006 99.4574 17.0312C99.4574 15.6847 99.7131 14.5028 100.224 13.4858C100.742 12.4631 101.463 11.6676 102.389 11.0994C103.315 10.5256 104.403 10.2386 105.653 10.2386C106.46 10.2386 107.222 10.3693 107.938 10.6307C108.659 10.8864 109.295 11.2841 109.847 11.8239C110.403 12.3636 110.841 13.0511 111.159 13.8864C111.477 14.7159 111.636 15.7045 111.636 16.8523V17.7983H100.906V15.7188H108.679C108.673 15.1278 108.545 14.6023 108.295 14.142C108.045 13.6761 107.696 13.3097 107.247 13.0426C106.804 12.7756 106.287 12.642 105.696 12.642C105.065 12.642 104.511 12.7955 104.034 13.1023C103.557 13.4034 103.185 13.8011 102.918 14.2955C102.656 14.7841 102.523 15.321 102.517 15.9062V17.7216C102.517 18.483 102.656 19.1364 102.935 19.6818C103.213 20.2216 103.602 20.6364 104.102 20.9261C104.602 21.2102 105.188 21.3523 105.858 21.3523C106.307 21.3523 106.713 21.2898 107.077 21.1648C107.44 21.0341 107.756 20.8438 108.023 20.5938C108.29 20.3438 108.492 20.0341 108.628 19.6648L111.509 19.9886C111.327 20.75 110.98 21.4148 110.469 21.983C109.963 22.5455 109.315 22.983 108.526 23.2955C107.736 23.6023 106.832 23.7557 105.815 23.7557ZM117.092 6.04545V23.5H114.006V6.04545H117.092ZM123.11 6.04545V23.5H120.024V6.04545H123.11ZM129.809 23.7642C128.98 23.7642 128.232 23.6165 127.568 23.321C126.909 23.0199 126.386 22.5767 125.999 21.9915C125.619 21.4062 125.428 20.6847 125.428 19.8267C125.428 19.0881 125.565 18.4773 125.838 17.9943C126.11 17.5114 126.482 17.125 126.954 16.8352C127.426 16.5455 127.957 16.3267 128.548 16.179C129.144 16.0256 129.761 15.9148 130.397 15.8466C131.164 15.767 131.786 15.696 132.264 15.6335C132.741 15.5653 133.088 15.4631 133.303 15.3267C133.525 15.1847 133.636 14.9659 133.636 14.6705V14.6193C133.636 13.9773 133.446 13.4801 133.065 13.1278C132.684 12.7756 132.136 12.5994 131.42 12.5994C130.664 12.5994 130.065 12.7642 129.622 13.0938C129.184 13.4233 128.889 13.8125 128.735 14.2614L125.855 13.8523C126.082 13.0568 126.457 12.392 126.98 11.858C127.502 11.3182 128.142 10.9148 128.897 10.6477C129.653 10.375 130.488 10.2386 131.403 10.2386C132.034 10.2386 132.661 10.3125 133.286 10.4602C133.911 10.608 134.482 10.8523 134.999 11.1932C135.517 11.5284 135.931 11.9858 136.244 12.5653C136.562 13.1449 136.721 13.8693 136.721 14.7386V23.5H133.755V21.7017H133.653C133.465 22.0653 133.201 22.4062 132.86 22.7244C132.525 23.0369 132.102 23.2898 131.59 23.483C131.085 23.6705 130.491 23.7642 129.809 23.7642ZM130.61 21.4972C131.23 21.4972 131.767 21.375 132.221 21.1307C132.676 20.8807 133.025 20.5511 133.269 20.142C133.519 19.733 133.644 19.2869 133.644 18.804V17.2614C133.548 17.3409 133.383 17.4148 133.15 17.483C132.923 17.5511 132.667 17.6108 132.383 17.6619C132.099 17.7131 131.818 17.7585 131.539 17.7983C131.261 17.8381 131.019 17.8722 130.815 17.9006C130.355 17.9631 129.943 18.0653 129.579 18.2074C129.215 18.3494 128.928 18.5483 128.718 18.804C128.508 19.054 128.403 19.3778 128.403 19.7756C128.403 20.3438 128.61 20.7727 129.025 21.0625C129.44 21.3523 129.968 21.4972 130.61 21.4972ZM139.583 23.5V10.4091H142.575V12.5909H142.711C142.95 11.8352 143.359 11.2528 143.938 10.8438C144.524 10.429 145.191 10.2216 145.941 10.2216C146.112 10.2216 146.302 10.2301 146.512 10.2472C146.728 10.2585 146.907 10.2784 147.049 10.3068V13.1449C146.919 13.0994 146.711 13.0597 146.427 13.0256C146.149 12.9858 145.879 12.9659 145.617 12.9659C145.055 12.9659 144.549 13.0881 144.1 13.3324C143.657 13.571 143.308 13.9034 143.052 14.3295C142.796 14.7557 142.669 15.2472 142.669 15.804V23.5H139.583Z" fill="#F4F3F7"/>
</svg>
