<svg width="148" height="29" viewBox="0 0 148 29" fill="none" xmlns="http://www.w3.org/2000/svg">
<path d="M5.83186 3.5H1C1.03835 8.45189 1.00122 18.948 1.11504 21.3041C1.23009 23.6856 4.25959 25.0842 5.83186 25.5H14V20.6237H6.29204L5.83186 19.9433V3.5Z" fill="#1A1A21" stroke="#1A1A21" stroke-width="1.57414"/>
<path d="M25.1681 25.5L30 25.5C29.9617 20.5481 29.9988 10.052 29.885 7.69588C29.7699 5.31443 26.7404 3.91581 25.1681 3.5L17 3.5L17 8.37629L24.708 8.37629L25.1681 9.0567L25.1681 25.5Z" fill="#1A1A21" stroke="#1A1A21" stroke-width="1.57414"/>
<path d="M14.1858 3.5H10V16.8814H16.8142V25.5H21V11.8918H14.1858V3.5Z" fill="#1A1A21" stroke="#1A1A21" stroke-width="1.57414"/>
<path d="M37.2078 23V5.54545H40.3698V20.3494H48.0573V23H37.2078ZM54.1923 23.2642C53.3627 23.2642 52.6156 23.1165 51.9508 22.821C51.2917 22.5199 50.769 22.0767 50.3826 21.4915C50.0019 20.9062 49.8116 20.1847 49.8116 19.3267C49.8116 18.5881 49.948 17.9773 50.2207 17.4943C50.4934 17.0114 50.8656 16.625 51.3372 16.3352C51.8088 16.0455 52.34 15.8267 52.9309 15.679C53.5275 15.5256 54.144 15.4148 54.7803 15.3466C55.5474 15.267 56.1695 15.196 56.6468 15.1335C57.1241 15.0653 57.4707 14.9631 57.6866 14.8267C57.9082 14.6847 58.019 14.4659 58.019 14.1705V14.1193C58.019 13.4773 57.8286 12.9801 57.448 12.6278C57.0673 12.2756 56.519 12.0994 55.8031 12.0994C55.0474 12.0994 54.448 12.2642 54.0048 12.5938C53.5673 12.9233 53.2718 13.3125 53.1184 13.7614L50.2377 13.3523C50.465 12.5568 50.84 11.892 51.3627 11.358C51.8855 10.8182 52.5247 10.4148 53.2803 10.1477C54.036 9.875 54.8713 9.73864 55.786 9.73864C56.4167 9.73864 57.0445 9.8125 57.6695 9.96023C58.2945 10.108 58.8656 10.3523 59.3826 10.6932C59.8997 11.0284 60.3144 11.4858 60.6269 12.0653C60.9451 12.6449 61.1042 13.3693 61.1042 14.2386V23H58.1383V21.2017H58.036C57.8485 21.5653 57.5843 21.9062 57.2434 22.2244C56.9082 22.5369 56.4849 22.7898 55.9735 22.983C55.4678 23.1705 54.8741 23.2642 54.1923 23.2642ZM54.9934 20.9972C55.6127 20.9972 56.1497 20.875 56.6042 20.6307C57.0588 20.3807 57.4082 20.0511 57.6525 19.642C57.9025 19.233 58.0275 18.7869 58.0275 18.304V16.7614C57.9309 16.8409 57.7661 16.9148 57.5332 16.983C57.3059 17.0511 57.0502 17.1108 56.7661 17.1619C56.482 17.2131 56.2008 17.2585 55.9224 17.2983C55.644 17.3381 55.4025 17.3722 55.198 17.4006C54.7377 17.4631 54.3258 17.5653 53.9622 17.7074C53.5985 17.8494 53.3116 18.0483 53.1014 18.304C52.8911 18.554 52.786 18.8778 52.786 19.2756C52.786 19.8438 52.9934 20.2727 53.4082 20.5625C53.823 20.8523 54.3514 20.9972 54.9934 20.9972ZM67.0517 15.3295V23H63.9665V9.90909H66.9153V12.1335H67.0688C67.3699 11.4006 67.85 10.8182 68.5091 10.3864C69.1739 9.95455 69.9949 9.73864 70.9722 9.73864C71.8756 9.73864 72.6625 9.93182 73.333 10.3182C74.0091 10.7045 74.5318 11.2642 74.9011 11.9972C75.2761 12.7301 75.4608 13.6193 75.4551 14.6648V23H72.3699V15.142C72.3699 14.267 72.1426 13.5824 71.6881 13.0881C71.2392 12.5937 70.617 12.3466 69.8216 12.3466C69.2818 12.3466 68.8017 12.4659 68.3813 12.7045C67.9665 12.9375 67.6398 13.2756 67.4011 13.7188C67.1682 14.1619 67.0517 14.6989 67.0517 15.3295ZM88.6981 13.3693L85.8856 13.6761C85.806 13.392 85.6668 13.125 85.468 12.875C85.2748 12.625 85.0134 12.4233 84.6839 12.2699C84.3543 12.1165 83.9509 12.0398 83.4736 12.0398C82.8316 12.0398 82.2918 12.179 81.8543 12.4574C81.4225 12.7358 81.2094 13.0966 81.2151 13.5398C81.2094 13.9205 81.3486 14.2301 81.6327 14.4688C81.9225 14.7074 82.3998 14.9034 83.0645 15.0568L85.2975 15.5341C86.5361 15.8011 87.4566 16.2244 88.0589 16.804C88.6668 17.3835 88.9736 18.142 88.9793 19.0795C88.9736 19.9034 88.7322 20.6307 88.2549 21.2614C87.7833 21.8864 87.127 22.375 86.2861 22.7273C85.4452 23.0795 84.4793 23.2557 83.3884 23.2557C81.7861 23.2557 80.4964 22.9205 79.5191 22.25C78.5418 21.5739 77.9594 20.6335 77.7719 19.429L80.7805 19.1392C80.9168 19.7301 81.2066 20.1761 81.6498 20.4773C82.093 20.7784 82.6697 20.929 83.3799 20.929C84.1128 20.929 84.7009 20.7784 85.1441 20.4773C85.593 20.1761 85.8174 19.804 85.8174 19.3608C85.8174 18.9858 85.6725 18.6761 85.3827 18.4318C85.0986 18.1875 84.6555 18 84.0532 17.8693L81.8202 17.4006C80.5645 17.1392 79.6356 16.6989 79.0333 16.0795C78.431 15.4545 78.1327 14.6648 78.1384 13.7102C78.1327 12.9034 78.3515 12.2045 78.7947 11.6136C79.2435 11.017 79.8657 10.5568 80.6611 10.233C81.4623 9.90341 82.3856 9.73864 83.431 9.73864C84.9651 9.73864 86.1725 10.0653 87.0532 10.7188C87.9395 11.3722 88.4878 12.2557 88.6981 13.3693ZM97.8203 9.90909V12.2955H90.2947V9.90909H97.8203ZM92.1527 6.77273H95.2379V19.0625C95.2379 19.4773 95.3004 19.7955 95.4254 20.017C95.5561 20.233 95.7265 20.3807 95.9368 20.4602C96.147 20.5398 96.3799 20.5795 96.6356 20.5795C96.8288 20.5795 97.0049 20.5653 97.164 20.5369C97.3288 20.5085 97.4538 20.483 97.539 20.4602L98.0589 22.8722C97.8942 22.929 97.6584 22.9915 97.3515 23.0597C97.0504 23.1278 96.6811 23.1676 96.2436 23.179C95.4709 23.2017 94.7748 23.0852 94.1555 22.8295C93.5362 22.5682 93.0447 22.1648 92.6811 21.6193C92.3231 21.0739 92.147 20.392 92.1527 19.5739V6.77273ZM105.815 23.2557C104.503 23.2557 103.369 22.983 102.415 22.4375C101.466 21.8864 100.736 21.108 100.224 20.1023C99.7131 19.0909 99.4574 17.9006 99.4574 16.5312C99.4574 15.1847 99.7131 14.0028 100.224 12.9858C100.742 11.9631 101.463 11.1676 102.389 10.5994C103.315 10.0256 104.403 9.73864 105.653 9.73864C106.46 9.73864 107.222 9.86932 107.938 10.1307C108.659 10.3864 109.295 10.7841 109.847 11.3239C110.403 11.8636 110.841 12.5511 111.159 13.3864C111.477 14.2159 111.636 15.2045 111.636 16.3523V17.2983H100.906V15.2188H108.679C108.673 14.6278 108.545 14.1023 108.295 13.642C108.045 13.1761 107.696 12.8097 107.247 12.5426C106.804 12.2756 106.287 12.142 105.696 12.142C105.065 12.142 104.511 12.2955 104.034 12.6023C103.557 12.9034 103.185 13.3011 102.918 13.7955C102.656 14.2841 102.523 14.821 102.517 15.4062V17.2216C102.517 17.983 102.656 18.6364 102.935 19.1818C103.213 19.7216 103.602 20.1364 104.102 20.4261C104.602 20.7102 105.188 20.8523 105.858 20.8523C106.307 20.8523 106.713 20.7898 107.077 20.6648C107.44 20.5341 107.756 20.3438 108.023 20.0938C108.29 19.8438 108.492 19.5341 108.628 19.1648L111.509 19.4886C111.327 20.25 110.98 20.9148 110.469 21.483C109.963 22.0455 109.315 22.483 108.526 22.7955C107.736 23.1023 106.832 23.2557 105.815 23.2557ZM117.092 5.54545V23H114.006V5.54545H117.092ZM123.11 5.54545V23H120.024V5.54545H123.11ZM129.809 23.2642C128.98 23.2642 128.232 23.1165 127.568 22.821C126.909 22.5199 126.386 22.0767 125.999 21.4915C125.619 20.9062 125.428 20.1847 125.428 19.3267C125.428 18.5881 125.565 17.9773 125.838 17.4943C126.11 17.0114 126.482 16.625 126.954 16.3352C127.426 16.0455 127.957 15.8267 128.548 15.679C129.144 15.5256 129.761 15.4148 130.397 15.3466C131.164 15.267 131.786 15.196 132.264 15.1335C132.741 15.0653 133.088 14.9631 133.303 14.8267C133.525 14.6847 133.636 14.4659 133.636 14.1705V14.1193C133.636 13.4773 133.446 12.9801 133.065 12.6278C132.684 12.2756 132.136 12.0994 131.42 12.0994C130.664 12.0994 130.065 12.2642 129.622 12.5938C129.184 12.9233 128.889 13.3125 128.735 13.7614L125.855 13.3523C126.082 12.5568 126.457 11.892 126.98 11.358C127.502 10.8182 128.142 10.4148 128.897 10.1477C129.653 9.875 130.488 9.73864 131.403 9.73864C132.034 9.73864 132.661 9.8125 133.286 9.96023C133.911 10.108 134.482 10.3523 134.999 10.6932C135.517 11.0284 135.931 11.4858 136.244 12.0653C136.562 12.6449 136.721 13.3693 136.721 14.2386V23H133.755V21.2017H133.653C133.465 21.5653 133.201 21.9062 132.86 22.2244C132.525 22.5369 132.102 22.7898 131.59 22.983C131.085 23.1705 130.491 23.2642 129.809 23.2642ZM130.61 20.9972C131.23 20.9972 131.767 20.875 132.221 20.6307C132.676 20.3807 133.025 20.0511 133.269 19.642C133.519 19.233 133.644 18.7869 133.644 18.304V16.7614C133.548 16.8409 133.383 16.9148 133.15 16.983C132.923 17.0511 132.667 17.1108 132.383 17.1619C132.099 17.2131 131.818 17.2585 131.539 17.2983C131.261 17.3381 131.019 17.3722 130.815 17.4006C130.355 17.4631 129.943 17.5653 129.579 17.7074C129.215 17.8494 128.928 18.0483 128.718 18.304C128.508 18.554 128.403 18.8778 128.403 19.2756C128.403 19.8438 128.61 20.2727 129.025 20.5625C129.44 20.8523 129.968 20.9972 130.61 20.9972ZM139.583 23V9.90909H142.575V12.0909H142.711C142.95 11.3352 143.359 10.7528 143.938 10.3438C144.524 9.92898 145.191 9.72159 145.941 9.72159C146.112 9.72159 146.302 9.73011 146.512 9.74716C146.728 9.75852 146.907 9.77841 147.049 9.80682V12.6449C146.919 12.5994 146.711 12.5597 146.427 12.5256C146.149 12.4858 145.879 12.4659 145.617 12.4659C145.055 12.4659 144.549 12.5881 144.1 12.8324C143.657 13.071 143.308 13.4034 143.052 13.8295C142.796 14.2557 142.669 14.7472 142.669 15.304V23H139.583Z" fill="#1A1A21"/>
</svg>
