<svg width="14" height="15" viewBox="0 0 14 15" fill="none" xmlns="http://www.w3.org/2000/svg">
<path d="M1.1665 6.74777V6.17611C1.1665 3.25944 2.33317 2.09277 5.24984 2.09277H8.74984C11.6665 2.09277 12.8332 3.25944 12.8332 6.17611V9.67611C12.8332 12.5928 11.6665 13.7594 8.74984 13.7594H8.1665" stroke="#5D5D5F" stroke-linecap="round" stroke-linejoin="round"/>
<path d="M7.5835 7.3424L10.506 4.41406H8.16683" stroke="#5D5D5F" stroke-linecap="round" stroke-linejoin="round"/>
<path d="M10.5059 4.41406V6.75323" stroke="#5D5D5F" stroke-linecap="round" stroke-linejoin="round"/>
<path d="M6.4165 10.3463V11.9213C6.4165 13.2338 5.8915 13.7588 4.579 13.7588H3.004C1.6915 13.7588 1.1665 13.2338 1.1665 11.9213V10.3463C1.1665 9.03379 1.6915 8.50879 3.004 8.50879H4.579C5.8915 8.50879 6.4165 9.03379 6.4165 10.3463Z" stroke="#5D5D5F" stroke-linecap="round" stroke-linejoin="round"/>
</svg>
