<svg width="15" height="15" viewBox="0 0 15 15" fill="none" xmlns="http://www.w3.org/2000/svg">
<path d="M6.03109 1.56152H9.53109C12.4478 1.56152 13.6144 2.72819 13.6144 5.64486V9.14486C13.6144 12.0615 12.4478 13.2282 9.53109 13.2282H6.03109C3.11442 13.2282 1.94775 12.0615 1.94775 9.14486V5.64486C1.94775 2.72819 3.11442 1.56152 6.03109 1.56152Z" stroke="#49576D" stroke-width="0.8" stroke-linecap="round" stroke-linejoin="round"/>
<path d="M5.78027 9.30229L9.59526 5.4873" stroke="#49576D" stroke-width="0.8" stroke-linecap="round" stroke-linejoin="round"/>
<path d="M6.01975 6.44378C6.41602 6.44378 6.73724 6.12256 6.73724 5.7263C6.73724 5.33003 6.41602 5.00879 6.01975 5.00879C5.62349 5.00879 5.30225 5.33003 5.30225 5.7263C5.30225 6.12256 5.62349 6.44378 6.01975 6.44378Z" stroke="#49576D" stroke-width="0.8" stroke-linecap="round" stroke-linejoin="round"/>
<path d="M9.83468 9.7807C10.2309 9.7807 10.5522 9.45946 10.5522 9.06319C10.5522 8.66693 10.2309 8.3457 9.83468 8.3457C9.43841 8.3457 9.11719 8.66693 9.11719 9.06319C9.11719 9.45946 9.43841 9.7807 9.83468 9.7807Z" stroke="#49576D" stroke-width="0.8" stroke-linecap="round" stroke-linejoin="round"/>
</svg>
