<svg width="14" height="14" viewBox="0 0 14 14" fill="none" xmlns="http://www.w3.org/2000/svg">
<path d="M0.163233 13.3646V12.0726H2.68264L2.05817 11.4696C1.35475 10.8093 0.852301 10.0734 0.550834 9.26202C0.249366 8.45121 0.0986328 7.63668 0.0986328 6.81841C0.0986328 5.32543 0.533033 3.99036 1.40183 2.8132C2.27006 1.63605 3.41477 0.824956 4.83597 0.379934V1.73654C3.80237 2.13849 2.96975 2.80258 2.3381 3.7288C1.70646 4.65445 1.39063 5.68432 1.39063 6.81841C1.39063 7.49312 1.51983 8.1463 1.77824 8.77795C2.03664 9.40959 2.43141 9.99817 2.96257 10.5437L3.5009 11.082V8.73488H4.79291V13.3646H0.163233ZM8.71198 13.1277V11.7711C9.74558 11.3691 10.5782 10.705 11.2098 9.77882C11.8415 8.85317 12.1573 7.8233 12.1573 6.68921C12.1573 6.0145 12.0281 5.36132 11.7697 4.72967C11.5113 4.09803 11.1165 3.50945 10.5854 2.96394L10.047 2.4256V4.77274H8.75505V0.143066H13.3847V1.43507H10.8653L11.4898 2.038C12.1789 2.71271 12.6776 3.45203 12.9859 4.25594C13.2949 5.05985 13.4493 5.87094 13.4493 6.68921C13.4493 8.18219 13.0152 9.51726 12.147 10.6944C11.2782 11.8716 10.1332 12.6827 8.71198 13.1277Z" fill="#1A1A21"/>
</svg>
